<svg width="182" height="229" viewBox="0 0 182 229" fill="none" xmlns="http://www.w3.org/2000/svg">
<path d="M155.731 141.851C130.014 171.642 101.889 199.072 74.7458 227.493" stroke="#D9E9E1" stroke-width="3" stroke-miterlimit="1.5" stroke-linecap="round" stroke-linejoin="round"/>
<path d="M175.397 121.326C173.358 123.089 171.354 124.884 169.389 126.731" stroke="#D9E9E1" stroke-width="3" stroke-miterlimit="1.5" stroke-linecap="round" stroke-linejoin="round"/>
<path d="M42.8418 216.063C81.9107 182.392 117.012 142.914 151.673 104.814" stroke="#D9E9E1" stroke-width="3" stroke-miterlimit="1.5" stroke-linecap="round" stroke-linejoin="round"/>
<path d="M179.991 70.0641C176.735 73.9848 173.285 77.6491 169.841 81.3937" stroke="#D9E9E1" stroke-width="3" stroke-miterlimit="1.5" stroke-linecap="round" stroke-linejoin="round"/>
<path d="M111.238 108.304C102.239 117.007 94.4639 126.901 85.8593 135.972C70.4148 152.251 53.8686 167.302 37.5548 182.682" stroke="#D9E9E1" stroke-width="3" stroke-miterlimit="1.5" stroke-linecap="round" stroke-linejoin="round"/>
<path d="M124.42 94.5169C128.783 89.6743 133.045 84.71 137.148 79.6419" stroke="#D9E9E1" stroke-width="3" stroke-miterlimit="1.5" stroke-linecap="round" stroke-linejoin="round"/>
<path d="M53.5448 129.865C65.6643 116.84 78.3141 104.342 90.5015 91.3969" stroke="#D9E9E1" stroke-width="3" stroke-miterlimit="1.5" stroke-linecap="round" stroke-linejoin="round"/>
<path d="M105.659 75.7144C109.034 71.8317 112.448 67.9668 115.748 64.0192" stroke="#D9E9E1" stroke-width="3" stroke-miterlimit="1.5" stroke-linecap="round" stroke-linejoin="round"/>
<path d="M-0.968083 146.984C21.8269 126.605 42.3778 103.933 64.931 83.3759" stroke="#D9E9E1" stroke-width="3" stroke-miterlimit="1.5" stroke-linecap="round" stroke-linejoin="round"/>
<path d="M75.3304 72.9253C77.0681 71.2161 78.8397 69.5305 80.515 67.7598" stroke="#D9E9E1" stroke-width="3" stroke-miterlimit="1.5" stroke-linecap="round" stroke-linejoin="round"/>
<path d="M82.2935 25.2552C64.2398 49.4487 42.2938 72.7078 20.315 93.3959" stroke="#D9E9E1" stroke-width="3" stroke-miterlimit="1.5" stroke-linecap="round" stroke-linejoin="round"/>
<path d="M99.4175 1.98829C97.7018 4.18851 95.9109 6.30811 94.049 8.3854" stroke="#D9E9E1" stroke-width="3" stroke-miterlimit="1.5" stroke-linecap="round" stroke-linejoin="round"/>
</svg>
