<svg width="24" height="15" viewBox="0 0 24 15" fill="none" xmlns="http://www.w3.org/2000/svg">
<path d="M14.4778 6.47934C14.5465 6.83901 14.5956 7.19867 14.5956 7.66521C14.5956 11.7381 11.8354 14.625 7.68047 14.625C3.70232 14.625 0.480469 11.4367 0.480469 7.5C0.480469 3.56325 3.70232 0.375 7.68047 0.375C9.62537 0.375 11.2461 1.07485 12.5034 2.2413L10.5487 4.09789C10.0182 3.59242 9.08511 2.99949 7.68047 2.99949C5.22482 2.99949 3.22097 5.01159 3.22097 7.5C3.22097 9.98841 5.22482 12.0005 7.68047 12.0005C10.529 12.0005 11.5997 9.96896 11.7667 8.92886H7.68047V6.47931H14.4778V6.47934ZM21.4305 6.71822V4.65H19.3304V6.71822H17.2405V8.79638H19.3304V10.8646H21.4305V8.79638H23.5205V6.71822H21.4305Z" fill="#777E7A"/>
</svg>
