<svg width="46" height="29" viewBox="0 0 46 29" fill="none" xmlns="http://www.w3.org/2000/svg">
<path d="M0 10.6979C0 4.78729 5.51384 0 12.3214 0H13.1429C14.9603 0 16.4286 1.27483 16.4286 2.85276C16.4286 4.43069 14.9603 5.70552 13.1429 5.70552H12.3214C9.14866 5.70552 6.57143 7.94316 6.57143 10.6979V11.411H13.1429C16.7674 11.411 19.7143 13.9696 19.7143 17.1166V22.8221C19.7143 25.969 16.7674 28.5276 13.1429 28.5276H6.57143C2.94688 28.5276 0 25.969 0 22.8221V19.9693V17.1166V10.6979ZM26.2857 10.6979C26.2857 4.78729 31.7996 0 38.6071 0H39.4286C41.246 0 42.7143 1.27483 42.7143 2.85276C42.7143 4.43069 41.246 5.70552 39.4286 5.70552H38.6071C35.4344 5.70552 32.8571 7.94316 32.8571 10.6979V11.411H39.4286C43.0531 11.411 46 13.9696 46 17.1166V22.8221C46 25.969 43.0531 28.5276 39.4286 28.5276H32.8571C29.2326 28.5276 26.2857 25.969 26.2857 22.8221V19.9693V17.1166V10.6979Z" fill="#3E654D"/>
</svg>
