<svg width="15" height="13" viewBox="0 0 15 13" fill="none" xmlns="http://www.w3.org/2000/svg">
<path d="M15 12.375V8.00002C14.9983 6.50868 14.4052 5.0789 13.3506 4.02437C12.2961 2.96983 10.8663 2.37667 9.375 2.37502H6.35625V1.38377C6.3562 1.13658 6.28286 0.894956 6.1455 0.689444C6.00815 0.483931 5.81294 0.323757 5.58457 0.229169C5.35619 0.134582 5.1049 0.109828 4.86246 0.158038C4.62002 0.206247 4.39731 0.325255 4.2225 0.500017L0.547499 4.17439C0.19599 4.52601 -0.00147629 5.00283 -0.00147629 5.50002C-0.00147629 5.9972 0.19599 6.47403 0.547499 6.82564L4.2225 10.5C4.39731 10.6748 4.62002 10.7938 4.86246 10.842C5.1049 10.8902 5.35619 10.8655 5.58457 10.7709C5.81294 10.6763 6.00815 10.5161 6.1455 10.3106C6.28286 10.1051 6.3562 9.86345 6.35625 9.61627V8.62502H10C10.9943 8.62601 11.9475 9.02142 12.6506 9.72446C13.3536 10.4275 13.749 11.3808 13.75 12.375C13.75 12.5408 13.8158 12.6997 13.9331 12.817C14.0503 12.9342 14.2092 13 14.375 13C14.5408 13 14.6997 12.9342 14.8169 12.817C14.9342 12.6997 15 12.5408 15 12.375ZM5.10625 3.00002C5.10625 3.16578 5.1721 3.32475 5.28931 3.44196C5.40652 3.55917 5.56549 3.62502 5.73125 3.62502H9.375C10.5349 3.62634 11.6469 4.0877 12.4671 4.90789C13.2873 5.72807 13.7487 6.8401 13.75 8.00002V9.07127C13.2815 8.53811 12.7047 8.11101 12.058 7.81851C11.4114 7.526 10.7097 7.3748 10 7.37502H5.73125C5.56549 7.37502 5.40652 7.44087 5.28931 7.55808C5.1721 7.67529 5.10625 7.83426 5.10625 8.00002V9.61627L1.43187 5.94189C1.3147 5.82469 1.24888 5.66574 1.24888 5.50002C1.24888 5.33429 1.3147 5.17535 1.43187 5.05814L5.10625 1.38377V3.00002Z" fill="#DFDFDF"/>
</svg>
