<svg width="6" height="12" viewBox="0 0 6 12" fill="none" xmlns="http://www.w3.org/2000/svg">
<path d="M5.26613 4.18289L1.42682 0.248982C1.2701 0.0893542 1.0581 -0.000244141 0.837119 -0.000244141C0.616141 -0.000244141 0.404141 0.0893542 0.247421 0.248982C0.169022 0.328657 0.106795 0.423449 0.0643291 0.52789C0.0218636 0.63233 0 0.744353 0 0.857495C0 0.970637 0.0218636 1.08266 0.0643291 1.1871C0.106795 1.29154 0.169022 1.38633 0.247421 1.46601L4.0951 5.39134C4.1735 5.47102 4.23572 5.56581 4.27819 5.67025C4.32066 5.77469 4.34252 5.88671 4.34252 5.99985C4.34252 6.113 4.32066 6.22502 4.27819 6.32946C4.23572 6.4339 4.1735 6.52869 4.0951 6.60837L0.247421 10.5337C0.089914 10.694 0.000986942 10.9117 0.000202616 11.1392C-0.000581709 11.3666 0.0868417 11.5851 0.243239 11.7464C0.399637 11.9078 0.612198 11.9989 0.834162 11.9998C1.05613 12.0006 1.26931 11.911 1.42682 11.7507L5.26613 7.81682C5.73605 7.33472 6 6.68122 6 5.99985C6 5.31849 5.73605 4.66498 5.26613 4.18289Z" fill="white"/>
</svg>
