<svg width="42" height="42" viewBox="0 0 42 42" fill="none" xmlns="http://www.w3.org/2000/svg">
<path d="M30.0865 19.3314V26.3218C30.0853 27.3208 29.6879 28.2785 28.9815 28.9849C28.2752 29.6913 27.3174 30.0886 26.3185 30.0898H25.5649C25.365 30.0898 25.1733 30.0104 25.032 29.8691C24.8907 29.7278 24.8113 29.5361 24.8113 29.3362C24.8113 29.1364 24.8907 28.9447 25.032 28.8034C25.1733 28.662 25.365 28.5826 25.5649 28.5826H26.3185C26.9181 28.5826 27.4931 28.3444 27.9171 27.9205C28.3411 27.4965 28.5793 26.9214 28.5793 26.3218V19.3314C28.5793 18.9613 28.4885 18.5969 28.3148 18.2701C28.1411 17.9433 27.8898 17.6642 27.583 17.4572L22.3078 13.8979C21.935 13.6438 21.4944 13.5079 21.0432 13.5079C20.5921 13.5079 20.1515 13.6438 19.7787 13.8979L14.5035 17.4572C14.1967 17.6642 13.9454 17.9433 13.7717 18.2701C13.598 18.5969 13.5072 18.9613 13.5072 19.3314V26.3218C13.5072 26.9214 13.7454 27.4965 14.1694 27.9205C14.5934 28.3444 15.1684 28.5826 15.768 28.5826H16.5216C16.7215 28.5826 16.9132 28.662 17.0545 28.8034C17.1958 28.9447 17.2752 29.1364 17.2752 29.3362C17.2752 29.5361 17.1958 29.7278 17.0545 29.8691C16.9132 30.0104 16.7215 30.0898 16.5216 30.0898H15.768C14.769 30.0886 13.8113 29.6913 13.105 28.9849C12.3986 28.2785 12.0012 27.3208 12 26.3218V19.3314C11.9992 18.7147 12.15 18.1073 12.4391 17.5626C12.7282 17.018 13.1468 16.5527 13.6579 16.2077L18.9332 12.6477C19.5551 12.2256 20.2894 12 21.041 12C21.7926 12 22.5269 12.2256 23.1488 12.6477L28.424 16.2077C28.9357 16.5525 29.3549 17.0176 29.6447 17.5623C29.9346 18.1069 30.0863 18.7144 30.0865 19.3314ZM26.3185 23.3127C26.3204 24.0056 26.1849 24.6921 25.9197 25.3323C25.6545 25.9724 25.2649 26.5537 24.7736 27.0423L22.1247 29.6332C21.8347 29.9139 21.4469 30.0709 21.0432 30.0709C20.6396 30.0709 20.2518 29.9139 19.9618 29.6332L17.3189 27.0483C16.7043 26.4356 16.2503 25.6807 15.9973 24.8505C15.7442 24.0203 15.6999 23.1406 15.8682 22.2892C16.0365 21.4378 16.4123 20.641 16.9623 19.9696C17.5122 19.2982 18.2193 18.7729 19.0209 18.4402C19.8224 18.1074 20.6937 17.9776 21.5575 18.0622C22.4212 18.1468 23.2507 18.4432 23.9725 18.9251C24.6943 19.4071 25.286 20.0596 25.6952 20.825C26.1045 21.5903 26.3185 22.4448 26.3185 23.3127ZM24.8113 23.3127C24.8113 22.6931 24.6585 22.083 24.3664 21.5365C24.0743 20.99 23.652 20.524 23.1368 20.1797C22.6216 19.8355 22.0294 19.6236 21.4128 19.5628C20.7961 19.502 20.174 19.5943 19.6015 19.8313C19.0291 20.0684 18.5239 20.443 18.1307 20.922C17.7376 21.4009 17.4687 21.9694 17.3477 22.5772C17.2268 23.1849 17.2575 23.813 17.4373 24.406C17.6172 24.999 17.9404 25.5385 18.3785 25.9767L21.0161 28.5555L23.714 25.9706C24.0634 25.622 24.3402 25.2077 24.5286 24.7514C24.7169 24.2952 24.813 23.8062 24.8113 23.3127ZM23.3041 23.3074C23.3041 23.7546 23.1715 24.1917 22.923 24.5634C22.6746 24.9352 22.3215 25.225 21.9084 25.3961C21.4953 25.5672 21.0407 25.612 20.6022 25.5248C20.1636 25.4375 19.7608 25.2222 19.4446 24.906C19.1284 24.5899 18.9131 24.187 18.8259 23.7485C18.7386 23.3099 18.7834 22.8553 18.9545 22.4422C19.1256 22.0291 19.4154 21.676 19.7872 21.4276C20.159 21.1792 20.5961 21.0466 21.0432 21.0466C21.6429 21.0466 22.2179 21.2848 22.6419 21.7088C23.0659 22.1328 23.3041 22.7078 23.3041 23.3074Z" fill="#777E7A"/>
<rect x="0.5" y="0.5" width="41" height="41" rx="9.5" stroke="#777E7A"/>
</svg>
