<svg width="13" height="16" viewBox="0 0 13 16" fill="none" xmlns="http://www.w3.org/2000/svg">
<path d="M11.05 5.616V4.66667C11.05 3.42899 10.5706 2.242 9.71734 1.36684C8.86405 0.491665 7.70674 0 6.5 0C5.29326 0 4.13595 0.491665 3.28266 1.36684C2.42937 2.242 1.95 3.42899 1.95 4.66667V5.616C1.37108 5.87514 0.87834 6.30168 0.532024 6.84347C0.185709 7.38527 0.000830944 8.01882 0 8.66667V12.6667C0.00103211 13.5504 0.343773 14.3976 0.953043 15.0225C1.56231 15.6474 2.38836 15.9989 3.25 16H9.75C10.6116 15.9989 11.4377 15.6474 12.047 15.0225C12.6562 14.3976 12.999 13.5504 13 12.6667V8.66667C12.9992 8.01882 12.8143 7.38527 12.468 6.84347C12.1217 6.30168 11.6289 5.87514 11.05 5.616ZM3.25 4.66667C3.25 3.78261 3.59241 2.93477 4.2019 2.30964C4.8114 1.68452 5.63805 1.33333 6.5 1.33333C7.36195 1.33333 8.1886 1.68452 8.7981 2.30964C9.40759 2.93477 9.75 3.78261 9.75 4.66667V5.33333H3.25V4.66667ZM11.7 12.6667C11.7 13.1971 11.4946 13.7058 11.1289 14.0809C10.7632 14.456 10.2672 14.6667 9.75 14.6667H3.25C2.73283 14.6667 2.23684 14.456 1.87114 14.0809C1.50545 13.7058 1.3 13.1971 1.3 12.6667V8.66667C1.3 8.13623 1.50545 7.62753 1.87114 7.25245C2.23684 6.87738 2.73283 6.66667 3.25 6.66667H9.75C10.2672 6.66667 10.7632 6.87738 11.1289 7.25245C11.4946 7.62753 11.7 8.13623 11.7 8.66667V12.6667Z" fill="#777E7A"/>
<path d="M6.66667 9.33334C6.48986 9.33334 6.32029 9.40358 6.19526 9.52861C6.07024 9.65363 6 9.8232 6 10V11.3333C6 11.5102 6.07024 11.6797 6.19526 11.8048C6.32029 11.9298 6.48986 12 6.66667 12C6.84348 12 7.01305 11.9298 7.13807 11.8048C7.2631 11.6797 7.33334 11.5102 7.33334 11.3333V10C7.33334 9.8232 7.2631 9.65363 7.13807 9.52861C7.01305 9.40358 6.84348 9.33334 6.66667 9.33334Z" fill="#777E7A"/>
</svg>
