<svg width="14" height="13" viewBox="0 0 14 13" fill="none" xmlns="http://www.w3.org/2000/svg">
<path d="M11.0833 0H2.91667C2.1434 0.000938279 1.40208 0.312521 0.855295 0.866403C0.308514 1.42028 0.00092625 2.17124 0 2.95455L0 10.0455C0.00092625 10.8288 0.308514 11.5797 0.855295 12.1336C1.40208 12.6875 2.1434 12.9991 2.91667 13H11.0833C11.8566 12.9991 12.5979 12.6875 13.1447 12.1336C13.6915 11.5797 13.9991 10.8288 14 10.0455V2.95455C13.9991 2.17124 13.6915 1.42028 13.1447 0.866403C12.5979 0.312521 11.8566 0.000938279 11.0833 0ZM2.91667 1.18182H11.0833C11.4326 1.18251 11.7737 1.28908 12.0627 1.48779C12.3517 1.68651 12.5754 1.96829 12.705 2.29686L8.23783 6.82264C7.90908 7.15432 7.46399 7.34055 7 7.34055C6.53601 7.34055 6.09092 7.15432 5.76217 6.82264L1.295 2.29686C1.42459 1.96829 1.64827 1.68651 1.93728 1.48779C2.22628 1.28908 2.56738 1.18251 2.91667 1.18182ZM11.0833 11.8182H2.91667C2.45254 11.8182 2.00742 11.6314 1.67923 11.299C1.35104 10.9665 1.16667 10.5156 1.16667 10.0455V3.84091L4.93733 7.65818C5.48487 8.21142 6.22665 8.52211 7 8.52211C7.77335 8.52211 8.51513 8.21142 9.06267 7.65818L12.8333 3.84091V10.0455C12.8333 10.5156 12.649 10.9665 12.3208 11.299C11.9926 11.6314 11.5475 11.8182 11.0833 11.8182Z" fill="#777E7A"/>
</svg>
