<svg width="21" height="16" viewBox="0 0 21 16" fill="none" xmlns="http://www.w3.org/2000/svg">
<path d="M20.3585 5.79048C19.0019 3.62804 15.916 0 10.5 0C5.08401 0 1.99815 3.62804 0.641527 5.79048C0.222145 6.45437 0 7.21947 0 8C0 8.78053 0.222145 9.54564 0.641527 10.2095C1.99815 12.372 5.08401 16 10.5 16C15.916 16 19.0019 12.372 20.3585 10.2095C20.7779 9.54564 21 8.78053 21 8C21 7.21947 20.7779 6.45437 20.3585 5.79048ZM18.8671 9.31322C17.7021 11.1675 15.0649 14.2879 10.5 14.2879C5.93507 14.2879 3.29792 11.1675 2.13285 9.31322C1.88369 8.91861 1.75171 8.46388 1.75171 8C1.75171 7.53612 1.88369 7.0814 2.13285 6.68678C3.29792 4.83253 5.93507 1.71215 10.5 1.71215C15.0649 1.71215 17.7021 4.82911 18.8671 6.68678C19.1163 7.0814 19.2483 7.53612 19.2483 8C19.2483 8.46388 19.1163 8.91861 18.8671 9.31322Z" fill="#777E7A"/>
<path d="M10.5007 3.42856C9.57767 3.42856 8.67542 3.69667 7.90799 4.19898C7.14056 4.7013 6.54242 5.41526 6.18922 6.25058C5.83601 7.0859 5.74359 8.00506 5.92366 8.89183C6.10372 9.7786 6.54818 10.5931 7.20082 11.2325C7.85347 11.8718 8.68499 12.3072 9.59023 12.4836C10.4955 12.66 11.4338 12.5694 12.2865 12.2234C13.1392 11.8774 13.8681 11.2915 14.3808 10.5397C14.8936 9.78797 15.1673 8.90413 15.1673 7.99999C15.1658 6.78801 14.6737 5.6261 13.7988 4.7691C12.924 3.91211 11.7379 3.43001 10.5007 3.42856ZM10.5007 10.7428C9.94687 10.7428 9.40551 10.582 8.94506 10.2806C8.4846 9.9792 8.12572 9.55082 7.91379 9.04963C7.70186 8.54844 7.64642 7.99694 7.75445 7.46488C7.86249 6.93282 8.12917 6.44409 8.52075 6.06049C8.91234 5.6769 9.41125 5.41567 9.9544 5.30983C10.4975 5.204 11.0605 5.25832 11.5722 5.46592C12.0838 5.67352 12.5211 6.02508 12.8288 6.47614C13.1364 6.9272 13.3007 7.4575 13.3007 7.99999C13.3007 8.72744 13.0057 9.42509 12.4806 9.93948C11.9555 10.4539 11.2433 10.7428 10.5007 10.7428Z" fill="#777E7A"/>
</svg>
