<svg width="14" height="16" viewBox="0 0 14 16" fill="none" xmlns="http://www.w3.org/2000/svg">
<path d="M9.1267 1.35349L9.47487 0.994641L9.1267 1.35349C9.68771 1.89782 10 2.63283 10 3.39592C10 4.15901 9.68771 4.89401 9.1267 5.43835C8.56517 5.98318 7.80044 6.29184 7 6.29184C6.19956 6.29184 5.43483 5.98318 4.8733 5.43835C4.31229 4.89401 4 4.15901 4 3.39592C4 2.63283 4.31229 1.89782 4.8733 1.35349C5.43483 0.808659 6.19956 0.5 7 0.5C7.80044 0.5 8.56517 0.808659 9.1267 1.35349ZM7 8.9898C8.87507 8.9898 10.5473 9.35924 11.7321 9.93402C12.9511 10.5254 13.5 11.2468 13.5 11.8857V13.2273L7 15.471L0.5 13.2273V11.8857C0.5 11.2468 1.04889 10.5254 2.26793 9.93402C3.45273 9.35924 5.12493 8.9898 7 8.9898Z" stroke="#777E7A"/>
</svg>
