<svg width="16" height="16" viewBox="0 0 16 16" fill="none" xmlns="http://www.w3.org/2000/svg">
<path d="M8 1.44109C10.136 1.44109 10.3893 1.44909 11.2327 1.48776C12.1047 1.52776 13.0027 1.72642 13.638 2.36176C14.2793 3.00309 14.472 3.89242 14.512 4.76709C14.5507 5.61042 14.5587 5.86376 14.5587 7.99976C14.5587 10.1358 14.5507 10.3891 14.512 11.2324C14.4727 12.0998 14.2693 13.0064 13.638 13.6378C12.9967 14.2791 12.108 14.4718 11.2327 14.5118C10.3893 14.5504 10.136 14.5584 8 14.5584C5.864 14.5584 5.61067 14.5504 4.76733 14.5118C3.90667 14.4724 2.988 14.2644 2.362 13.6378C1.724 12.9998 1.528 12.1018 1.488 11.2324C1.44933 10.3891 1.44133 10.1358 1.44133 7.99976C1.44133 5.86376 1.44933 5.61042 1.488 4.76709C1.52733 3.90309 1.73267 2.99109 2.362 2.36176C3.002 1.72176 3.89467 1.52776 4.76733 1.48776C5.61067 1.44909 5.864 1.44109 8 1.44109ZM8 -0.000244141C5.82733 -0.000244141 5.55467 0.00908919 4.70133 0.0477559C3.46467 0.104423 2.23667 0.448423 1.34267 1.34242C0.445333 2.23976 0.104667 3.46509 0.048 4.70109C0.00933333 5.55442 0 5.82709 0 7.99976C0 10.1724 0.00933333 10.4451 0.048 11.2984C0.104667 12.5338 0.45 13.7651 1.34267 14.6571C2.23933 15.5538 3.46667 15.8951 4.70133 15.9518C5.55467 15.9904 5.82733 15.9998 8 15.9998C10.1727 15.9998 10.4453 15.9904 11.2987 15.9518C12.5347 15.8951 13.764 15.5504 14.6573 14.6571C15.5553 13.7591 15.8953 12.5344 15.952 11.2984C15.9907 10.4451 16 10.1724 16 7.99976C16 5.82709 15.9907 5.55442 15.952 4.70109C15.8953 3.46442 15.5507 2.23576 14.6573 1.34242C13.762 0.447089 12.5313 0.103756 11.2987 0.0477559C10.4453 0.00908919 10.1727 -0.000244141 8 -0.000244141Z" fill="#777E7A"/>
<path d="M7.99985 3.89191C5.73118 3.89191 3.89185 5.73124 3.89185 7.99991C3.89185 10.2686 5.73118 12.1079 7.99985 12.1079C10.2685 12.1079 12.1078 10.2686 12.1078 7.99991C12.1078 5.73124 10.2685 3.89191 7.99985 3.89191ZM7.99985 10.6666C6.52718 10.6666 5.33318 9.47257 5.33318 7.99991C5.33318 6.52724 6.52718 5.33324 7.99985 5.33324C9.47251 5.33324 10.6665 6.52724 10.6665 7.99991C10.6665 9.47257 9.47251 10.6666 7.99985 10.6666Z" fill="#777E7A"/>
<path d="M12.2705 4.68904C12.8007 4.68904 13.2305 4.25924 13.2305 3.72904C13.2305 3.19885 12.8007 2.76904 12.2705 2.76904C11.7404 2.76904 11.3105 3.19885 11.3105 3.72904C11.3105 4.25924 11.7404 4.68904 12.2705 4.68904Z" fill="#777E7A"/>
</svg>
