<svg width="64" height="64" viewBox="0 0 64 64" fill="none" xmlns="http://www.w3.org/2000/svg">
<circle cx="32" cy="32" r="32" fill="white" fill-opacity="0.6"/>
<circle cx="31.8571" cy="31.8571" r="22.8571" fill="#C66735"/>
<g clip-path="url(#clip0_78_1519)">
<path opacity="0.978" fill-rule="evenodd" clip-rule="evenodd" d="M31.4141 22C31.8047 22 32.1953 22 32.5859 22C33.1864 22.0895 33.7594 22.2783 34.3047 22.5664C35.0504 23.0842 35.7795 23.6245 36.4922 24.1875C36.5247 23.7975 36.5442 23.4069 36.5508 23.0156C36.6186 22.7525 36.7814 22.5767 37.0391 22.4883C37.3973 22.3984 37.7033 22.483 37.957 22.7422C38.0068 22.8288 38.0459 22.9199 38.0742 23.0156C38.1123 24.0727 38.0992 25.1274 38.0352 26.1797C37.7814 26.5898 37.4234 26.7135 36.9609 26.5508C35.8472 25.7269 34.7404 24.8936 33.6406 24.0508C32.4363 23.4076 31.2645 23.4597 30.125 24.207C28.3132 25.6152 26.4903 27.0085 24.6562 28.3867C23.9671 29.0209 23.6091 29.8086 23.582 30.75C23.5448 33.0944 23.5579 35.4382 23.6211 37.7812C23.9137 39.2197 24.7796 40.0856 26.2188 40.3789C30.0729 40.405 33.9271 40.405 37.7812 40.3789C38.9169 40.1673 39.7177 39.5359 40.1836 38.4844C40.3318 38.1078 40.41 37.7171 40.418 37.3125C40.444 35.125 40.444 32.9375 40.418 30.75C40.4088 30.0975 40.2265 29.4986 39.8711 28.9531C39.6093 28.6276 39.3228 28.3281 39.0117 28.0547C38.7694 27.5214 38.9061 27.1243 39.4219 26.8633C39.6042 26.8372 39.7864 26.8372 39.9688 26.8633C40.7844 27.3931 41.3638 28.1157 41.707 29.0312C41.8302 29.3943 41.9279 29.7589 42 30.125C42 32.7161 42 35.3073 42 37.8984C41.5573 40.1901 40.1901 41.5573 37.8984 42C33.9661 42 30.0339 42 26.1016 42C23.8277 41.5621 22.4605 40.2079 22 37.9375C22 35.3333 22 32.7292 22 30.125C22.1872 28.9109 22.7471 27.9018 23.6797 27.0977C25.6198 25.6263 27.5599 24.1549 29.5 22.6836C30.0961 22.3266 30.7341 22.0987 31.4141 22Z" fill="white"/>
<path opacity="0.958" fill-rule="evenodd" clip-rule="evenodd" d="M30.3788 30.9648C31.1422 31.0586 31.4742 31.4883 31.3749 32.2539C31.1599 32.8207 30.7497 33.0485 30.1445 32.9375C29.5777 32.7224 29.3499 32.3123 29.4609 31.707C29.6152 31.2689 29.9212 31.0215 30.3788 30.9648Z" fill="white"/>
<path opacity="0.957" fill-rule="evenodd" clip-rule="evenodd" d="M33.2695 31.0039C34.1736 30.938 34.5838 31.3547 34.4999 32.2539C34.2849 32.8207 33.8747 33.0486 33.2695 32.9375C32.7027 32.7225 32.4749 32.3123 32.5859 31.7071C32.6907 31.3484 32.9186 31.114 33.2695 31.0039Z" fill="white"/>
<path opacity="0.957" fill-rule="evenodd" clip-rule="evenodd" d="M30.1445 34.1289C31.0486 34.063 31.4588 34.4797 31.3749 35.3789C31.1599 35.9457 30.7497 36.1736 30.1445 36.0625C29.5777 35.8475 29.3499 35.4373 29.4609 34.8321C29.5657 34.4734 29.7936 34.239 30.1445 34.1289Z" fill="white"/>
<path opacity="0.957" fill-rule="evenodd" clip-rule="evenodd" d="M33.2695 34.1289C34.1736 34.063 34.5838 34.4797 34.4999 35.3789C34.2849 35.9457 33.8747 36.1736 33.2695 36.0625C32.7027 35.8475 32.4749 35.4373 32.5859 34.8321C32.6907 34.4734 32.9186 34.239 33.2695 34.1289Z" fill="white"/>
</g>
<defs>
<clipPath id="clip0_78_1519">
<rect width="20" height="20" fill="white" transform="translate(22 22)"/>
</clipPath>
</defs>
</svg>
