<svg width="42" height="60" viewBox="0 0 42 60" fill="none" xmlns="http://www.w3.org/2000/svg">
<path opacity="0.994" fill-rule="evenodd" clip-rule="evenodd" d="M26.6306 50.5784C24.6428 53.3851 22.7921 56.2967 21.0788 59.3133C19.549 56.7965 18.019 54.2796 16.4892 51.7628C16.2011 51.3305 15.8803 50.9356 15.5269 50.5784C12.7625 46.1096 10.0236 41.6187 7.3101 37.1058C5.71635 34.3631 4.23585 31.5501 2.86861 28.667C1.54371 26.025 0.729432 23.2367 0.425781 20.3022C0.983337 11.283 5.37554 4.96621 13.6022 1.35178C21.7007 -1.39104 28.9552 0.0401158 35.3656 5.64523C41.8518 12.3642 43.209 19.9888 39.4369 28.5189C37.8605 31.8699 36.1332 35.127 34.2552 38.2902C31.712 42.3905 29.1706 46.4864 26.6306 50.5784ZM19.6723 10.753C24.4501 10.4277 27.7813 12.4511 29.6656 16.823C30.9396 21.8982 29.2863 25.6734 24.706 28.1488C20.0621 29.7706 16.2868 28.6107 13.3802 24.6696C10.894 19.7371 11.807 15.5669 16.1191 12.1594C17.2388 11.4744 18.4232 11.0055 19.6723 10.753Z" fill="#E74C3C"/>
</svg>
