<svg width="12" height="14" viewBox="0 0 12 14" fill="none" xmlns="http://www.w3.org/2000/svg">
<path d="M6 3.50049C5.53851 3.50049 5.08738 3.63734 4.70367 3.89373C4.31995 4.15012 4.02088 4.51453 3.84428 4.94089C3.66768 5.36725 3.62147 5.83641 3.7115 6.28903C3.80153 6.74165 4.02376 7.15742 4.35008 7.48374C4.67641 7.81006 5.09217 8.03229 5.54479 8.12232C5.99741 8.21235 6.46657 8.16615 6.89293 7.98954C7.31929 7.81294 7.6837 7.51387 7.94009 7.13015C8.19648 6.74644 8.33333 6.29531 8.33333 5.83382C8.33333 5.21498 8.0875 4.62149 7.64991 4.18391C7.21233 3.74632 6.61884 3.50049 6 3.50049ZM6 7.00049C5.76925 7.00049 5.54369 6.93206 5.35183 6.80387C5.15998 6.67567 5.01044 6.49347 4.92214 6.28029C4.83384 6.06711 4.81073 5.83253 4.85575 5.60622C4.90077 5.37991 5.01188 5.17203 5.17504 5.00886C5.3382 4.8457 5.54608 4.73459 5.77239 4.68957C5.9987 4.64456 6.23328 4.66766 6.44646 4.75596C6.65964 4.84426 6.84185 4.9938 6.97005 5.18566C7.09824 5.37751 7.16667 5.60308 7.16667 5.83382C7.16667 6.14324 7.04375 6.43999 6.82496 6.65878C6.60616 6.87757 6.30942 7.00049 6 7.00049Z" fill="#18201B"/>
<path d="M6 14.0004C5.5088 14.0029 5.02415 13.8877 4.58662 13.6645C4.14909 13.4412 3.77143 13.1163 3.48525 12.7171C1.26217 9.65052 0.134583 7.34518 0.134583 5.86469C0.134583 4.30908 0.752544 2.81719 1.85252 1.71721C2.9525 0.617229 4.44439 -0.000732422 6 -0.000732422C7.5556 -0.000732422 9.0475 0.617229 10.1475 1.71721C11.2475 2.81719 11.8654 4.30908 11.8654 5.86469C11.8654 7.34518 10.7378 9.65052 8.51475 12.7171C8.22857 13.1163 7.8509 13.4412 7.41338 13.6645C6.97585 13.8877 6.4912 14.0029 6 14.0004ZM6 1.27268C4.78224 1.27407 3.61476 1.75844 2.75367 2.61953C1.89259 3.48061 1.40822 4.64809 1.40683 5.86585C1.40683 7.03835 2.51108 9.2066 4.51542 11.971C4.68557 12.2054 4.9088 12.3961 5.16683 12.5277C5.42487 12.6592 5.71038 12.7278 6 12.7278C6.28962 12.7278 6.57513 12.6592 6.83317 12.5277C7.0912 12.3961 7.31443 12.2054 7.48458 11.971C9.48892 9.2066 10.5932 7.03835 10.5932 5.86585C10.5918 4.64809 10.1074 3.48061 9.24632 2.61953C8.38524 1.75844 7.21776 1.27407 6 1.27268Z" fill="#18201B"/>
</svg>
