<svg width="42" height="30" viewBox="0 0 42 30" fill="none" xmlns="http://www.w3.org/2000/svg">
<path d="M42 18.75C42 24.9656 36.9656 30 30.75 30L30 30C28.3406 30 27 28.6594 27 27C27 25.3406 28.3406 24 30 24L30.75 24C33.6469 24 36 21.6469 36 18.75L36 18L30 18C26.6906 18 24 15.3094 24 12L24 6C24 2.69063 26.6906 2.47631e-06 30 2.76562e-06L36 3.29016e-06C39.3094 3.57948e-06 42 2.69063 42 6L42 9L42 12L42 18.75ZM18 18.75C18 24.9656 12.9656 30 6.75 30L6 30C4.34062 30 3 28.6594 3 27C3 25.3406 4.34062 24 6 24L6.75 24C9.64687 24 12 21.6469 12 18.75L12 18L6 18C2.69062 18 -2.5304e-06 15.3094 -2.24109e-06 12L-1.71655e-06 6C-1.42724e-06 2.69063 2.69062 3.78162e-07 6 6.67477e-07L12 1.19201e-06C15.3094 1.48133e-06 18 2.69063 18 6L18 9L18 12L18 18.75Z" fill="#FCE8E5"/>
</svg>
