<svg width="14" height="12" viewBox="0 0 14 12" fill="none" xmlns="http://www.w3.org/2000/svg">
<path d="M7.70155 0.42204C7.57273 0.164127 7.3005 0 7.00155 0C6.70259 0 6.4328 0.164127 6.30155 0.42204L4.7387 3.52404L1.24842 4.02111C0.956754 4.06331 0.713698 4.26026 0.623768 4.5299C0.533837 4.79954 0.606754 5.09731 0.815782 5.29661L3.34842 7.71396L2.7505 11.1301C2.70189 11.4115 2.82342 11.6976 3.06405 11.864C3.30467 12.0305 3.62307 12.0516 3.88557 11.918L7.00398 10.3119L10.1224 11.918C10.3849 12.0516 10.7033 12.0328 10.9439 11.864C11.1845 11.6952 11.3061 11.4115 11.2574 11.1301L10.6571 7.71396L13.1897 5.29661C13.3988 5.09731 13.4741 4.79954 13.3818 4.5299C13.2894 4.26026 13.0488 4.06331 12.7571 4.02111L9.26439 3.52404L7.70155 0.42204Z" fill="#FF6400"/>
</svg>
