<svg width="20" height="15" viewBox="0 0 20 15" fill="none" xmlns="http://www.w3.org/2000/svg">
<path d="M17.9525 3.7338C17.9642 3.8961 17.9642 4.05918 17.9642 4.22302C17.9642 9.22832 13.8358 14.9998 6.28917 14.9998V14.9967C4.06 14.9998 1.87667 14.4105 0 13.299C0.324167 13.3352 0.65 13.3529 0.976667 13.3536C2.825 13.3552 4.62 12.7829 6.0725 11.729C4.31667 11.6983 2.77667 10.6414 2.23917 9.09832C2.85417 9.20755 3.4875 9.18524 4.09167 9.03371C2.17667 8.67679 0.8 7.12374 0.8 5.32069C0.8 5.30454 0.8 5.28839 0.8 5.273C1.37083 5.56684 2.00917 5.72915 2.6625 5.74684C0.859167 4.63532 0.3025 2.42151 1.39167 0.690775C3.475 3.05689 6.54917 4.49532 9.84833 4.6484C9.5175 3.33304 9.97 1.9546 11.035 1.02923C12.6875 -0.40536 15.2867 -0.331515 16.8408 1.19384C17.76 1.02692 18.6408 0.71539 19.4467 0.274629C19.14 1.15154 18.4992 1.89614 17.6425 2.36998C18.4567 2.27998 19.2508 2.07921 20 1.77306C19.4492 2.53382 18.7558 3.19765 17.9525 3.7338Z" fill="#777E7A"/>
</svg>
