<svg width="24" height="24" viewBox="0 0 24 24" fill="none" xmlns="http://www.w3.org/2000/svg">
<g clip-path="url(#clip0_78_1646)">
<path opacity="0.947" fill-rule="evenodd" clip-rule="evenodd" d="M23.9766 4.42969C23.9766 7.32033 23.9766 10.2109 23.9766 13.1016C23.8305 13.5366 23.5336 13.8257 23.0859 13.9688C15.6797 14 8.27344 14 0.867188 13.9688C0.419506 13.8257 0.122631 13.5366 -0.0234375 13.1016C-0.0234375 10.2109 -0.0234375 7.32033 -0.0234375 4.42969C0.150693 3.91959 0.51007 3.63053 1.05469 3.5625C8.33592 3.53125 15.6172 3.53125 22.8984 3.5625C23.4431 3.63053 23.8024 3.91959 23.9766 4.42969ZM1.14844 4.38281C8.41669 4.35958 15.6823 4.38302 22.9453 4.45313C23.0312 4.47656 23.0859 4.53125 23.1094 4.61719C23.1406 7.39842 23.1406 10.1797 23.1094 12.9609C23.0547 13.0156 23 13.0703 22.9453 13.125C15.6328 13.1563 8.32031 13.1563 1.00781 13.125C0.953123 13.0703 0.898439 13.0156 0.84375 12.9609C0.812498 10.1797 0.812498 7.39842 0.84375 4.61719C0.918877 4.49836 1.02044 4.42023 1.14844 4.38281Z" fill="#777E7A"/>
<path opacity="0.933" fill-rule="evenodd" clip-rule="evenodd" d="M10.2415 6.35157C11.3978 6.34374 12.5541 6.35157 13.7102 6.37501C13.9723 6.4876 14.0583 6.68293 13.968 6.96094C13.929 7.06252 13.8587 7.13283 13.7571 7.17188C12.5696 7.20315 11.3821 7.20315 10.1946 7.17188C9.97638 7.03608 9.90607 6.8408 9.98365 6.58594C10.0496 6.48076 10.1355 6.40266 10.2415 6.35157Z" fill="#777E7A"/>
<path opacity="0.946" fill-rule="evenodd" clip-rule="evenodd" d="M1.80441 9.96094C8.58567 9.95312 15.3669 9.96094 22.1482 9.98438C22.3162 10.0624 22.3943 10.1952 22.3825 10.3828C22.3981 10.594 22.3044 10.7268 22.1013 10.7813C15.3513 10.8125 8.60128 10.8125 1.85128 10.7813C1.64816 10.7268 1.55441 10.594 1.57003 10.3828C1.56426 10.1909 1.64238 10.0502 1.80441 9.96094Z" fill="#777E7A"/>
<path opacity="0.945" fill-rule="evenodd" clip-rule="evenodd" d="M1.80389 11.5547C8.58515 11.5469 15.3664 11.5547 22.1476 11.5781C22.3156 11.6561 22.3938 11.7889 22.382 11.9766C22.3938 12.1642 22.3156 12.297 22.1476 12.375C15.3664 12.4063 8.58515 12.4063 1.80389 12.375C1.63588 12.297 1.55776 12.1642 1.56951 11.9766C1.56374 11.7846 1.64186 11.644 1.80389 11.5547Z" fill="#777E7A"/>
<path opacity="0.924" fill-rule="evenodd" clip-rule="evenodd" d="M11.8354 14.7422C12.2888 14.7417 12.4451 14.9605 12.3041 15.3984C11.9952 15.5901 11.7609 15.8479 11.601 16.1719C11.6535 16.3655 11.7629 16.5218 11.9291 16.6406C12.4781 16.8459 12.8765 17.2131 13.1245 17.7422C13.279 18.6668 12.9118 19.2918 12.0229 19.6172C11.6491 19.5793 11.5006 19.3761 11.5776 19.0078C11.7824 18.8308 11.9933 18.659 12.2104 18.4922C12.3181 18.3867 12.3572 18.2618 12.3276 18.1172C12.2439 17.9554 12.1267 17.8225 11.976 17.7188C11.465 17.4832 11.0822 17.116 10.8276 16.6172C10.6612 15.9758 10.8409 15.4523 11.3666 15.0469C11.518 14.9325 11.6742 14.831 11.8354 14.7422Z" fill="#777E7A"/>
<path opacity="0.924" fill-rule="evenodd" clip-rule="evenodd" d="M7.42991 15.5391C7.75082 15.5005 7.93832 15.6411 7.99241 15.9609C7.95791 16.0566 7.91886 16.1504 7.87522 16.2422C7.59397 16.3984 7.37521 16.6172 7.21897 16.8984C7.22699 17.1249 7.32852 17.3046 7.52366 17.4375C8.07261 17.6428 8.47105 18.0099 8.71897 18.5391C8.85186 18.9769 8.78933 19.3831 8.53147 19.7578C8.27329 20.0584 7.96077 20.2771 7.59397 20.4141C7.23332 20.3648 7.09269 20.1617 7.1721 19.8047C7.36185 19.6305 7.56501 19.4742 7.78147 19.3359C7.89674 19.2155 7.94361 19.0748 7.9221 18.9141C7.83843 18.7523 7.72124 18.6194 7.57054 18.5156C7.11172 18.2754 6.74455 17.9394 6.46897 17.5078C6.27561 17.0196 6.3381 16.5665 6.65647 16.1484C6.8961 15.916 7.15391 15.7128 7.42991 15.5391Z" fill="#777E7A"/>
<path opacity="0.924" fill-rule="evenodd" clip-rule="evenodd" d="M16.2416 15.5391C16.568 15.4913 16.7399 15.632 16.7573 15.961C16.7536 16.0453 16.7302 16.1235 16.6869 16.1954C16.4854 16.35 16.2979 16.5218 16.1244 16.711C16.0361 16.8241 16.0048 16.9492 16.0307 17.086C16.1147 17.217 16.2163 17.3342 16.3354 17.4375C16.8226 17.6595 17.2055 17.9954 17.4838 18.4454C17.7185 19.1877 17.5075 19.7737 16.851 20.2032C16.5495 20.4923 16.2605 20.4844 15.9838 20.1797C15.9526 20.0547 15.9526 19.9298 15.9838 19.8047C16.2338 19.6242 16.4682 19.4211 16.6869 19.1954C16.7058 19.1311 16.7292 19.0686 16.7573 19.0079C16.6945 18.8275 16.5851 18.6791 16.4291 18.5626C15.8935 18.3222 15.4951 17.9393 15.2338 17.4141C15.0499 16.7672 15.2296 16.2438 15.7729 15.8438C15.9242 15.7294 16.0804 15.6279 16.2416 15.5391Z" fill="#777E7A"/>
</g>
<defs>
<clipPath id="clip0_78_1646">
<rect width="24" height="24" fill="white"/>
</clipPath>
</defs>
</svg>
