<svg width="26" height="26" viewBox="0 0 26 26" fill="none" xmlns="http://www.w3.org/2000/svg">
<path opacity="0.949" fill-rule="evenodd" clip-rule="evenodd" d="M12.7719 0.990267C13.0548 0.935225 13.2833 1.01986 13.4575 1.24417C13.5082 1.49586 13.5505 1.74976 13.5844 2.00589C16.7837 4.13024 19.9829 6.25461 23.1821 8.37894C23.4059 8.56226 23.4905 8.79925 23.436 9.08988C23.3039 10.6176 22.466 11.4047 20.9223 11.4512C20.1542 11.4521 19.5025 11.1813 18.9673 10.6387C17.6449 11.7217 16.3246 11.7217 15.0063 10.6387C14.6046 11.0226 14.1307 11.2765 13.5844 11.4004C13.5337 13.1266 13.5168 14.8532 13.5337 16.5801C15.0942 16.5559 16.6514 16.5813 18.2055 16.6563C18.5248 16.9444 18.5417 17.2491 18.2563 17.5703C18.1757 17.6141 18.0911 17.648 18.0024 17.6719C17.461 17.6973 16.9194 17.7058 16.3774 17.6973C16.3859 19.9995 16.3774 22.3015 16.352 24.6035C16.1353 24.9781 15.8391 25.0543 15.4634 24.8321C15.4024 24.7862 15.36 24.727 15.3364 24.6543C15.311 23.0971 15.3025 21.5398 15.311 19.9825C13.7537 19.9825 12.1964 19.9825 10.6391 19.9825C10.6476 21.5398 10.6391 23.0971 10.6137 24.6543C10.4184 24.9533 10.1561 25.0295 9.82664 24.8828C9.73127 24.8045 9.6551 24.7114 9.59812 24.6035C9.57273 22.3015 9.56425 19.9995 9.57273 17.6973C9.03079 17.7058 8.48911 17.6973 7.94773 17.6719C7.52787 17.5305 7.40092 17.2512 7.56687 16.834C7.62613 16.7748 7.68534 16.7155 7.74461 16.6563C9.29871 16.5813 10.856 16.5559 12.4165 16.5801C12.4165 14.8366 12.4165 13.0931 12.4165 11.3496C11.8904 11.2469 11.4334 11.01 11.0454 10.6387C9.94003 11.5832 8.75515 11.6933 7.4907 10.9688C7.34953 10.8768 7.22257 10.7667 7.10984 10.6387C5.98742 11.6368 4.77715 11.7469 3.47898 10.9688C2.7248 10.3824 2.41165 9.61216 2.53953 8.65824C2.59649 8.55038 2.67266 8.45729 2.76804 8.37894C5.96726 6.25461 9.16648 4.13024 12.3657 2.00589C12.3997 1.74976 12.442 1.49586 12.4927 1.24417C12.5805 1.14759 12.6736 1.06296 12.7719 0.990267ZM12.9243 4.49417C13.0206 4.58399 13.0799 4.70248 13.102 4.84964C13.5207 6.41441 13.9354 7.98015 14.3462 9.54691C14.2703 9.79238 14.118 9.9786 13.8891 10.1055C13.1049 10.4965 12.4025 10.3864 11.7817 9.77542C11.7123 9.68046 11.6531 9.5789 11.604 9.47074C12.0601 7.81527 12.5003 6.15645 12.9243 4.49417ZM10.2837 4.74808C8.86778 6.49414 7.47978 8.26306 6.11961 10.0547C5.31102 10.548 4.55775 10.4718 3.85984 9.8262C3.72734 9.63176 3.63423 9.42016 3.58054 9.19144C5.80908 7.69664 8.04345 6.21556 10.2837 4.74808ZM15.6665 4.74808C17.9067 6.21556 20.1411 7.69664 22.3696 9.19144C22.1968 9.97286 21.7059 10.3707 20.8969 10.3848C20.1713 10.3103 19.672 9.93787 19.3989 9.26761C19.2983 9.15808 19.1798 9.07342 19.0434 9.0137C17.9262 7.58355 16.8006 6.16168 15.6665 4.74808ZM11.7055 4.79886C11.2966 6.45179 10.848 8.0937 10.3598 9.72464C9.66485 10.4254 8.89465 10.5186 8.04929 10.0039C7.90142 9.90959 7.82525 9.78263 7.82078 9.62308C9.09229 7.9929 10.3872 6.38481 11.7055 4.79886ZM14.2446 4.79886C15.5677 6.41101 16.8795 8.03601 18.1802 9.67386C18.214 9.72464 18.214 9.77542 18.1802 9.8262C17.5614 10.3898 16.8759 10.483 16.1235 10.1055C15.775 9.8746 15.5296 9.56148 15.3872 9.16605C14.9903 7.7137 14.6094 6.25801 14.2446 4.79886ZM10.6391 17.6973C12.1964 17.6973 13.7537 17.6973 15.311 17.6973C15.311 18.0866 15.311 18.4759 15.311 18.8653C13.7537 18.8653 12.1964 18.8653 10.6391 18.8653C10.6391 18.4759 10.6391 18.0866 10.6391 17.6973Z" fill="#777E7A"/>
<path opacity="0.943" fill-rule="evenodd" clip-rule="evenodd" d="M0.8382 14.1426C1.15892 14.0955 1.38744 14.214 1.52375 14.4981C2.03403 16.5393 2.5757 18.5705 3.14875 20.5918C3.22895 20.6701 3.32205 20.7293 3.42804 20.7696C5.06997 20.7865 6.71192 20.8034 8.35383 20.8203C8.60509 20.9075 8.74053 21.0853 8.76008 21.3535C8.71986 21.6561 8.5506 21.8338 8.25226 21.8867C7.96499 21.9121 7.67722 21.9206 7.38898 21.9121C7.47861 22.7341 7.58017 23.5551 7.69367 24.375C7.59546 24.9319 7.29077 25.0843 6.77961 24.8321C6.71862 24.7862 6.67627 24.727 6.65265 24.6543C6.50072 23.7437 6.37376 22.8296 6.27179 21.9121C5.69604 21.9037 5.12048 21.9121 4.54523 21.9375C4.14766 22.8592 3.74987 23.7817 3.35187 24.7051C3.0658 25.024 2.76111 25.0409 2.43781 24.7559C2.36144 24.5762 2.34451 24.39 2.38703 24.1973C2.69657 23.4175 3.02665 22.6473 3.37726 21.8867C2.58089 21.7467 2.09846 21.2812 1.93 20.4903C1.45604 18.6283 0.982079 16.7663 0.508122 14.9043C0.427241 14.559 0.537266 14.3051 0.8382 14.1426Z" fill="#777E7A"/>
<path opacity="0.942" fill-rule="evenodd" clip-rule="evenodd" d="M24.7552 14.1427C25.19 14.0882 25.427 14.2744 25.4662 14.7013C24.9998 16.6345 24.5174 18.5641 24.0189 20.4903C23.8411 21.2522 23.3756 21.743 22.6224 21.963C22.9186 22.657 23.2149 23.351 23.5111 24.045C23.7253 24.7445 23.4798 25.0238 22.7748 24.8829C22.7155 24.8236 22.6563 24.7644 22.597 24.7052C22.1909 23.7996 21.8101 22.8855 21.4544 21.963C20.862 21.963 20.2696 21.963 19.6771 21.963C19.571 22.863 19.444 23.7601 19.2962 24.6544C18.9951 25.0359 18.6735 25.0528 18.3314 24.7052C18.2803 24.6019 18.2549 24.4919 18.2552 24.3751C18.364 23.5715 18.4656 22.7675 18.5599 21.963C18.2717 21.9714 17.9839 21.9629 17.6966 21.9376C17.2299 21.7902 17.103 21.494 17.3158 21.0489C17.396 20.9707 17.4891 20.9114 17.5951 20.8712C18.1377 20.8592 18.6794 20.8338 19.2201 20.795C20.2195 20.8388 21.2183 20.8558 22.2162 20.8458C22.4443 20.8713 22.6389 20.8035 22.8001 20.6427C23.3564 18.6546 23.8812 16.6572 24.3744 14.6505C24.4173 14.4098 24.5443 14.2405 24.7552 14.1427Z" fill="#777E7A"/>
</svg>
