<svg width="24" height="24" viewBox="0 0 24 24" fill="none" xmlns="http://www.w3.org/2000/svg">
<g clip-path="url(#clip0_78_1667)">
<path opacity="0.937" fill-rule="evenodd" clip-rule="evenodd" d="M3.16434 -0.0234375C9.03932 -0.0234375 14.9144 -0.0234375 20.7893 -0.0234375C21.6167 0.202441 22.1402 0.733692 22.3597 1.57031C22.4137 5.03808 22.4371 8.50683 22.43 11.9766C22.4371 15.4463 22.4137 18.915 22.3597 22.3828C22.1402 23.2194 21.6167 23.7507 20.7893 23.9766C14.9144 23.9766 9.03932 23.9766 3.16434 23.9766C2.33694 23.7507 1.8135 23.2194 1.59403 22.3828C1.54 18.915 1.51656 15.4463 1.52372 11.9766C1.51656 8.50683 1.54 5.03808 1.59403 1.57031C1.8135 0.733692 2.33694 0.202441 3.16434 -0.0234375ZM3.30497 0.914062C9.08625 0.906248 14.8675 0.914062 20.6487 0.9375C21.0517 1.07482 21.3095 1.34825 21.4222 1.75781C21.4534 8.5703 21.4534 15.3828 21.4222 22.1953C21.305 22.625 21.0315 22.8984 20.6018 23.0156C14.8362 23.0469 9.07059 23.0469 3.30497 23.0156C2.92215 22.8828 2.66434 22.625 2.53153 22.2422C2.50809 16.6328 2.50028 11.0235 2.50809 5.41406C8.32059 5.42189 14.1331 5.41406 19.9456 5.39062C20.2113 5.226 20.2816 4.99941 20.1565 4.71094C20.0798 4.60265 19.9782 4.53233 19.8518 4.5C14.0706 4.47656 8.28937 4.46875 2.50809 4.47656C2.50028 3.55455 2.50809 2.63268 2.53153 1.71094C2.67305 1.32729 2.93086 1.06167 3.30497 0.914062ZM8.27372 13.4766C9.83737 13.4962 10.9702 14.1993 11.6722 15.5859C12.2921 17.4292 11.7999 18.8901 10.1956 19.9688C8.53359 20.753 7.07268 20.4795 5.81278 19.1484C4.89239 17.882 4.79864 16.5539 5.53153 15.1641C6.18534 14.1771 7.0994 13.6146 8.27372 13.4766Z" fill="#777E7A"/>
<path opacity="0.903" fill-rule="evenodd" clip-rule="evenodd" d="M7.10157 2.27349C7.43317 2.2576 7.76129 2.28104 8.08595 2.3438C8.37409 2.59579 8.3897 2.86141 8.13282 3.14068C7.73256 3.277 7.32629 3.29262 6.91407 3.18755C6.60156 2.9063 6.60156 2.62505 6.91407 2.3438C6.98711 2.33396 7.04959 2.31052 7.10157 2.27349Z" fill="#777E7A"/>
<path opacity="0.906" fill-rule="evenodd" clip-rule="evenodd" d="M10.6157 2.27344C11.5064 2.26563 12.3971 2.27344 13.2875 2.29687C13.7168 2.41315 13.834 2.67096 13.6391 3.07031C13.5434 3.16894 13.4262 3.22362 13.2875 3.23437C12.4125 3.26562 11.5376 3.26562 10.6625 3.23437C10.2333 3.11809 10.1161 2.86028 10.311 2.46094C10.4053 2.37899 10.5069 2.31649 10.6157 2.27344Z" fill="#777E7A"/>
<path opacity="0.902" fill-rule="evenodd" clip-rule="evenodd" d="M16.0547 2.27349C16.3863 2.2576 16.7144 2.28104 17.0391 2.3438C17.3516 2.62505 17.3516 2.9063 17.0391 3.18755C16.6488 3.2794 16.2582 3.2794 15.8672 3.18755C15.5547 2.9063 15.5547 2.62505 15.8672 2.3438C15.9402 2.33396 16.0027 2.31052 16.0547 2.27349Z" fill="#777E7A"/>
<path opacity="0.924" fill-rule="evenodd" clip-rule="evenodd" d="M8.97716 6.91397C9.47127 6.86893 9.68221 7.08764 9.60997 7.57022C9.30946 8.18691 8.99694 8.79629 8.67247 9.39835C8.42249 9.58585 8.17246 9.58585 7.92247 9.39835C7.79896 9.21783 7.7833 9.03033 7.8756 8.83585C8.15319 8.32758 8.41883 7.81196 8.67247 7.28897C8.7418 7.13297 8.84333 7.008 8.97716 6.91397Z" fill="#777E7A"/>
<path opacity="0.926" fill-rule="evenodd" clip-rule="evenodd" d="M14.5546 6.91397C14.7177 6.89916 14.874 6.9226 15.0234 6.98428C15.4327 7.66228 15.7921 8.36541 16.1015 9.09366C15.9901 9.53208 15.7246 9.65705 15.3046 9.46866C14.9389 8.85441 14.6029 8.2216 14.2968 7.57022C14.2041 7.27163 14.29 7.05286 14.5546 6.91397Z" fill="#777E7A"/>
<path opacity="0.94" fill-rule="evenodd" clip-rule="evenodd" d="M11.9297 7.10156C12.1621 7.10714 12.3261 7.21655 12.4219 7.42969C12.4532 8.33592 12.4532 9.2422 12.4219 10.1484C12.125 10.5859 11.8281 10.5859 11.5313 10.1484C11.5 9.2422 11.5 8.33592 11.5313 7.42969C11.6187 7.2555 11.7515 7.14609 11.9297 7.10156Z" fill="#777E7A"/>
<path opacity="0.941" fill-rule="evenodd" clip-rule="evenodd" d="M8.17943 12.539C10.2285 12.5121 11.6895 13.4184 12.5622 15.2578C13.2628 17.2555 12.8331 18.9664 11.2732 20.3906C9.68 21.5272 8.00811 21.6522 6.25756 20.7656C4.42596 19.5377 3.7619 17.8424 4.26537 15.6797C4.92434 13.8251 6.22906 12.7782 8.17943 12.539ZM8.27318 13.4765C7.09887 13.6145 6.18481 14.177 5.531 15.164C4.79811 16.5539 4.89186 17.882 5.81225 19.1484C7.07215 20.4795 8.53306 20.753 10.1951 19.9687C11.7994 18.8901 12.2916 17.4292 11.6716 15.5859C10.9696 14.1993 9.83684 13.4961 8.27318 13.4765Z" fill="#777E7A"/>
<path opacity="0.936" fill-rule="evenodd" clip-rule="evenodd" d="M13.1021 12.7734C13.5811 12.8212 14.0186 12.9853 14.4146 13.2656C16.0627 14.5065 16.6643 16.1393 16.2193 18.1641C15.7517 19.6863 14.7595 20.6863 13.2427 21.1641C12.8256 21.038 12.7084 20.7724 12.8911 20.3672C13.5487 20.0932 14.1268 19.7025 14.6255 19.1953C15.6815 17.7642 15.7128 16.311 14.7193 14.8359C14.2645 14.2718 13.6942 13.8734 13.0083 13.6406C12.8271 13.4691 12.7724 13.2581 12.8443 13.0078C12.9254 12.9187 13.0113 12.8405 13.1021 12.7734Z" fill="#777E7A"/>
<path opacity="0.936" fill-rule="evenodd" clip-rule="evenodd" d="M16.5705 12.7734C17.542 12.9549 18.331 13.4393 18.9377 14.2266C19.9137 15.5833 20.1168 17.0521 19.5471 18.6328C18.992 19.9069 18.0545 20.7507 16.7346 21.1641C16.3348 21.052 16.2098 20.802 16.3596 20.4141C16.5754 20.2396 16.8176 20.1068 17.0861 20.0156C18.6331 19.0379 19.1878 17.6551 18.7502 15.8672C18.5018 15.1746 18.0878 14.6043 17.508 14.1562C17.1335 13.9261 16.7507 13.7152 16.3596 13.5234C16.2187 13.208 16.289 12.958 16.5705 12.7734Z" fill="#777E7A"/>
</g>
<defs>
<clipPath id="clip0_78_1667">
<rect width="24" height="24" fill="white"/>
</clipPath>
</defs>
</svg>
