<svg width="22" height="22" viewBox="0 0 22 22" fill="none" xmlns="http://www.w3.org/2000/svg">
<g clip-path="url(#clip0_78_1608)">
<path opacity="0.974" fill-rule="evenodd" clip-rule="evenodd" d="M21.9785 6.29488C21.9785 11.3652 21.9785 16.4355 21.9785 21.5058C21.8937 21.6545 21.7647 21.7476 21.5918 21.7851C14.5163 21.8138 7.44077 21.8138 0.365234 21.7851C0.192303 21.7476 0.063397 21.6545 -0.0214844 21.5058C-0.0214844 16.4355 -0.0214844 11.3652 -0.0214844 6.29488C0.040022 6.21165 0.111637 6.13289 0.193359 6.05855C3.68075 4.13585 7.16121 2.20226 10.6348 0.25777C10.8999 0.110824 11.1577 0.125147 11.4082 0.300738C14.8531 2.23091 18.3049 4.15018 21.7637 6.05855C21.8454 6.13289 21.917 6.21165 21.9785 6.29488ZM10.8926 1.3105C11.0183 1.30878 11.1328 1.34459 11.2363 1.41793C14.459 3.21545 17.6816 5.01299 20.9043 6.8105C20.9473 11.4654 20.9616 16.1203 20.9473 20.7753C20.317 20.7753 19.6869 20.7753 19.0566 20.7753C19.0779 16.8903 19.0564 13.0088 18.9922 9.13082C18.9277 9.06636 18.8633 9.00191 18.7988 8.93746C13.5996 8.9088 8.40039 8.9088 3.20117 8.93746C3.07943 9.00191 2.98633 9.09502 2.92188 9.21675C2.90039 13.0696 2.89323 16.9225 2.90039 20.7753C2.27018 20.7753 1.63998 20.7753 1.00977 20.7753C0.995444 16.1203 1.00977 11.4654 1.05273 6.8105C4.34229 4.98687 7.62223 3.15354 10.8926 1.3105ZM3.93164 9.94722C8.62954 9.94722 13.3275 9.94722 18.0254 9.94722C18.0254 10.5774 18.0254 11.2076 18.0254 11.8378C13.3275 11.8378 8.62954 11.8378 3.93164 11.8378C3.93164 11.2076 3.93164 10.5774 3.93164 9.94722ZM3.93164 12.8691C8.62954 12.8691 13.3275 12.8691 18.0254 12.8691C18.0254 13.4993 18.0254 14.1295 18.0254 14.7597C13.3275 14.7597 8.62954 14.7597 3.93164 14.7597C3.93164 14.1295 3.93164 13.4993 3.93164 12.8691ZM3.93164 15.791C8.62954 15.791 13.3275 15.791 18.0254 15.791C18.0254 16.4212 18.0254 17.0514 18.0254 17.6816C13.3275 17.6816 8.62954 17.6816 3.93164 17.6816C3.93164 17.0514 3.93164 16.4212 3.93164 15.791ZM3.93164 18.7128C8.62954 18.7128 13.3275 18.7128 18.0254 18.7128C18.0254 19.4003 18.0254 20.0878 18.0254 20.7753C13.3275 20.7753 8.62954 20.7753 3.93164 20.7753C3.93164 20.0878 3.93164 19.4003 3.93164 18.7128Z" fill="#777E7A"/>
</g>
<defs>
<clipPath id="clip0_78_1608">
<rect width="22" height="22" fill="white"/>
</clipPath>
</defs>
</svg>
