<svg width="28" height="28" viewBox="0 0 28 28" fill="none" xmlns="http://www.w3.org/2000/svg">
<g clip-path="url(#clip0_78_1703)">
<path opacity="0.938" fill-rule="evenodd" clip-rule="evenodd" d="M27.9727 12.5508C27.9727 13.4987 27.9727 14.4467 27.9727 15.3946C27.5909 16.343 26.88 16.7805 25.8398 16.7071C26.1605 19.0651 25.1397 20.2865 22.7773 20.3711C22.2975 21.55 21.4225 22.0696 20.1523 21.9297C19.036 21.6381 18.4253 20.9181 18.3203 19.7696C18.293 17.4545 18.2838 15.1395 18.293 12.8243C15.4127 12.8243 12.5326 12.8243 9.65234 12.8243C9.65234 13.5899 9.65234 14.3555 9.65234 15.1211C12.1863 15.112 14.7201 15.1211 17.2539 15.1485C17.5293 15.3133 17.5931 15.5411 17.4453 15.8321C17.3813 15.9083 17.2992 15.9539 17.1992 15.9688C14.6836 15.9961 12.168 16.0053 9.65234 15.9961C9.67542 17.4014 9.64808 18.8051 9.57031 20.2071C9.16147 21.5013 8.27739 22.0755 6.91797 21.9297C6.05221 21.7295 5.46891 21.2099 5.16797 20.3711C2.80561 20.2865 1.78478 19.0651 2.10547 16.7071C1.06533 16.7805 0.354396 16.343 -0.0273438 15.3946C-0.0273438 14.4467 -0.0273438 13.4987 -0.0273438 12.5508C0.343588 11.581 1.05453 11.1435 2.10547 11.2383C1.78478 8.88026 2.80561 7.65887 5.16797 7.57427C5.7476 6.2289 6.75019 5.74584 8.17578 6.12505C8.91516 6.42681 9.38 6.96461 9.57031 7.73833C9.64808 9.1403 9.67542 10.544 9.65234 11.9493C12.5326 11.9493 15.4127 11.9493 18.293 11.9493C18.2699 10.544 18.2972 9.1403 18.375 7.73833C18.7838 6.44409 19.6679 5.86988 21.0273 6.01567C21.8931 6.21594 22.4764 6.73547 22.7773 7.57427C25.1397 7.65887 26.1605 8.88026 25.8398 11.2383C26.8908 11.1435 27.6017 11.581 27.9727 12.5508ZM7.02734 6.86333C8.03059 6.78217 8.6048 7.23788 8.75 8.23052C8.78648 12.0586 8.78648 15.8868 8.75 19.7149C8.56981 20.803 7.9409 21.2314 6.86328 21C6.33478 20.7816 6.034 20.3897 5.96094 19.8243C5.94273 16.9623 5.92446 14.1003 5.90625 11.2383C5.61094 10.8744 5.33752 10.8927 5.08594 11.293C5.05859 14.0091 5.04948 16.7252 5.05859 19.4415C4.12279 19.5526 3.45742 19.188 3.0625 18.3477C2.9994 16.8927 2.97205 15.4343 2.98047 13.9727C2.97205 12.5111 2.9994 11.0527 3.0625 9.5977C3.45742 8.75738 4.12279 8.39277 5.05859 8.50395C5.0495 8.90541 5.05861 9.30644 5.08594 9.70708C5.30433 10.0988 5.5778 10.1353 5.90625 9.81645C5.92446 9.25137 5.94273 8.68623 5.96094 8.12114C6.07173 7.49103 6.4272 7.0718 7.02734 6.86333ZM20.2617 6.86333C21.2165 6.77074 21.7907 7.19003 21.9844 8.12114C22.0209 12.0222 22.0209 15.9232 21.9844 19.8243C21.7917 20.7639 21.2175 21.174 20.2617 21.0547C19.6029 20.8514 19.2474 20.4048 19.1953 19.7149C19.1588 15.8868 19.1588 12.0586 19.1953 8.23052C19.2582 7.53954 19.6137 7.08377 20.2617 6.86333ZM22.8867 8.50395C23.8225 8.39277 24.4879 8.75738 24.8828 9.5977C24.9459 11.0527 24.9733 12.5111 24.9648 13.9727C24.9733 15.4343 24.9459 16.8927 24.8828 18.3477C24.4879 19.188 23.8225 19.5526 22.8867 19.4415C22.8867 15.7956 22.8867 12.1498 22.8867 8.50395ZM1.55859 12.1133C1.74088 12.1133 1.92318 12.1133 2.10547 12.1133C2.10547 13.3529 2.10547 14.5925 2.10547 15.8321C1.66634 15.8844 1.29264 15.7568 0.984375 15.4493C0.888688 15.2991 0.834001 15.135 0.820312 14.9571C0.770766 14.2071 0.788993 13.4597 0.875 12.7149C1.01376 12.4024 1.24162 12.2018 1.55859 12.1133ZM25.8398 12.1133C26.2863 12.0445 26.66 12.1721 26.9609 12.4961C27.0566 12.6463 27.1113 12.8104 27.125 12.9883C27.1615 13.6446 27.1615 14.3008 27.125 14.9571C27.1006 15.3435 26.9091 15.6078 26.5508 15.75C26.3183 15.8154 26.0813 15.8427 25.8398 15.8321C25.8398 14.5925 25.8398 13.3529 25.8398 12.1133Z" fill="#777E7A"/>
</g>
<defs>
<clipPath id="clip0_78_1703">
<rect width="28" height="28" fill="white"/>
</clipPath>
</defs>
</svg>
