<svg width="26" height="26" viewBox="0 0 26 26" fill="none" xmlns="http://www.w3.org/2000/svg">
<g clip-path="url(#clip0_78_1580)">
<path opacity="0.948" fill-rule="evenodd" clip-rule="evenodd" d="M25.9746 5.35736C25.9746 9.85998 25.9746 14.3626 25.9746 18.8652C25.6637 19.935 24.9527 20.5275 23.8418 20.6425C23.8502 20.9477 23.8417 21.2524 23.8164 21.5566C23.7114 21.9832 23.4491 22.2625 23.0293 22.3945C22.0137 22.4283 20.998 22.4283 19.9824 22.3945C19.6232 22.2893 19.3778 22.0607 19.2461 21.7089C19.1846 21.3732 19.1593 21.0347 19.1699 20.6933C15.0397 20.6933 10.9095 20.6933 6.7793 20.6933C6.78996 21.0347 6.76457 21.3732 6.70312 21.7089C6.5714 22.0607 6.32597 22.2893 5.9668 22.3945C4.95117 22.4283 3.93555 22.4283 2.91992 22.3945C2.50018 22.2625 2.23781 21.9832 2.13281 21.5566C2.10745 21.2524 2.09898 20.9477 2.10742 20.6425C0.99647 20.5275 0.285532 19.935 -0.0253906 18.8652C-0.0253906 14.3626 -0.0253906 9.85998 -0.0253906 5.35736C0.235465 4.35396 0.878693 3.75305 1.9043 3.55463C7.37176 3.52077 12.8392 3.52077 18.3066 3.55463C18.6574 3.84877 18.6405 4.1196 18.2559 4.36713C12.8392 4.38405 7.42254 4.40099 2.00586 4.41791C1.46933 4.53132 1.1054 4.84447 0.914062 5.35736C0.829832 9.7894 0.812901 14.2243 0.863281 18.6621C1.06971 19.3593 1.5352 19.7402 2.25977 19.8046C9.40301 19.8385 16.5462 19.8385 23.6895 19.8046C24.414 19.7402 24.8795 19.3593 25.0859 18.6621C25.1363 14.2243 25.1194 9.7894 25.0352 5.35736C24.8438 4.84447 24.4799 4.53132 23.9434 4.41791C22.4199 4.40099 20.8965 4.38405 19.373 4.36713C19.1534 4.30815 19.0349 4.16427 19.0176 3.93549C19.0508 3.77508 19.1355 3.64813 19.2715 3.55463C20.9492 3.50567 22.625 3.5226 24.2988 3.60541C25.1727 3.88973 25.7313 4.47372 25.9746 5.35736ZM22.3184 6.37299C23.1128 6.38005 23.426 6.76934 23.2578 7.54096C22.9007 8.04197 22.4691 8.11814 21.9629 7.76947C21.5668 7.17213 21.6853 6.70662 22.3184 6.37299ZM22.3184 10.3847C23.0188 10.3657 23.3489 10.7042 23.3086 11.4003C23.0669 11.9487 22.6691 12.1094 22.1152 11.8828C21.6807 11.5524 21.6046 11.1546 21.8867 10.6894C22.0046 10.5424 22.1485 10.4408 22.3184 10.3847ZM2.9707 20.6933C3.93555 20.6933 4.90039 20.6933 5.86523 20.6933C5.87366 20.9478 5.86518 21.2017 5.83984 21.455C5.81445 21.4804 5.78906 21.5058 5.76367 21.5312C4.88347 21.5651 4.00325 21.5651 3.12305 21.5312C3.08073 21.4889 3.03841 21.4465 2.99609 21.4042C2.97074 21.1679 2.96228 20.9309 2.9707 20.6933ZM20.084 20.6933C21.0488 20.6933 22.0137 20.6933 22.9785 20.6933C22.9869 20.9309 22.9785 21.1679 22.9531 21.4042C22.9108 21.4465 22.8685 21.4889 22.8262 21.5312C21.946 21.5651 21.0657 21.5651 20.1855 21.5312C20.1602 21.5058 20.1348 21.4804 20.1094 21.455C20.084 21.2017 20.0756 20.9478 20.084 20.6933Z" fill="#777E7A"/>
<path opacity="0.949" fill-rule="evenodd" clip-rule="evenodd" d="M2.81836 5.50977C8.26892 5.50129 13.7194 5.50977 19.1699 5.53516C19.5508 5.64521 19.7962 5.89063 19.9063 6.27149C19.9401 10.1478 19.9401 14.0241 19.9063 17.9004C19.7962 18.2813 19.5508 18.5267 19.1699 18.6367C15.1921 18.6706 11.2142 18.6706 7.23633 18.6367C6.96775 18.4585 6.91697 18.23 7.08399 17.9512C7.15569 17.8849 7.24034 17.8425 7.33789 17.8242C11.2142 17.8073 15.0905 17.7904 18.9668 17.7734C18.9922 17.7481 19.0176 17.7227 19.043 17.6973C19.0768 13.9564 19.0768 10.2155 19.043 6.47462C19.0176 6.44923 18.9922 6.42384 18.9668 6.39844C13.6517 6.36457 8.33661 6.36457 3.02149 6.39844C2.96224 6.42384 2.91992 6.46614 2.89453 6.5254C2.86068 10.2324 2.86068 13.9395 2.89453 17.6465C2.91353 17.693 2.93893 17.7354 2.9707 17.7734C4.03711 17.7904 5.10352 17.8073 6.16992 17.8242C6.47294 17.9077 6.58298 18.1023 6.5 18.4082C6.46014 18.4989 6.40093 18.5751 6.32227 18.6367C5.13739 18.6706 3.95247 18.6706 2.76758 18.6367C2.39004 18.5006 2.1446 18.2382 2.03125 17.8496C1.9974 14.0072 1.9974 10.1647 2.03125 6.32227C2.1676 5.92364 2.42997 5.65277 2.81836 5.50977Z" fill="#777E7A"/>
<path opacity="0.933" fill-rule="evenodd" clip-rule="evenodd" d="M22.1665 5.5098C23.5792 5.45836 24.2479 6.13543 24.1724 7.54105C23.8823 8.51164 23.2307 8.94328 22.2173 8.83598C21.1329 8.5125 20.7013 7.79308 20.9224 6.67777C21.1499 6.08622 21.5646 5.69688 22.1665 5.5098ZM22.3188 6.37309C21.6858 6.70672 21.5673 7.17223 21.9634 7.76957C22.4696 8.11823 22.9012 8.04206 23.2583 7.54105C23.4265 6.76943 23.1133 6.38014 22.3188 6.37309Z" fill="#777E7A"/>
<path opacity="0.911" fill-rule="evenodd" clip-rule="evenodd" d="M13.4322 8.963C13.995 8.924 14.1728 9.16099 13.9654 9.67393C12.4842 11.1551 11.0032 12.6362 9.52202 14.1173C9.12877 14.2931 8.89183 14.1746 8.81109 13.7618C8.8052 13.6326 8.8475 13.5226 8.93804 13.4317C10.4308 11.9305 11.9288 10.441 13.4322 8.963Z" fill="#777E7A"/>
<path opacity="0.937" fill-rule="evenodd" clip-rule="evenodd" d="M10.4343 9.26758C10.8664 9.28449 11.0272 9.50452 10.9167 9.92773C10.1635 10.681 9.4102 11.4343 8.65696 12.1875C8.09791 12.3223 7.90322 12.1107 8.07298 11.5527C8.84059 10.7596 9.6277 9.99786 10.4343 9.26758Z" fill="#777E7A"/>
<path opacity="0.933" fill-rule="evenodd" clip-rule="evenodd" d="M22.1149 9.52149C23.5531 9.44471 24.2386 10.1218 24.1715 11.5527C23.7914 12.6527 23.0381 13.0504 21.9117 12.7461C20.9682 12.2836 20.655 11.5473 20.9723 10.5371C21.2151 10.0397 21.596 9.70115 22.1149 9.52149ZM22.318 10.3848C22.1481 10.4409 22.0043 10.5424 21.8864 10.6895C21.6042 11.1547 21.6804 11.5524 22.1149 11.8828C22.6687 12.1095 23.0665 11.9487 23.3082 11.4004C23.3485 10.7043 23.0184 10.3658 22.318 10.3848Z" fill="#777E7A"/>
<path opacity="0.908" fill-rule="evenodd" clip-rule="evenodd" d="M13.7871 11.4512C14.2966 11.4988 14.4405 11.7527 14.2187 12.2129C13.2793 13.1523 12.3398 14.0918 11.4004 15.0312C11.0184 15.2226 10.7645 15.1126 10.6387 14.7012C10.6668 14.594 10.7092 14.4925 10.7656 14.3965C11.752 13.3846 12.7591 12.4028 13.7871 11.4512Z" fill="#777E7A"/>
<path opacity="0.935" fill-rule="evenodd" clip-rule="evenodd" d="M21.0999 13.8379C22.0649 13.8294 23.0298 13.8379 23.9944 13.8633C24.2141 13.9222 24.3326 14.0662 24.3499 14.2949C24.3212 14.4634 24.2365 14.5903 24.096 14.6758C23.0465 14.7097 21.9971 14.7097 20.9476 14.6758C20.7186 14.47 20.6848 14.233 20.846 13.9649C20.9382 13.9264 21.0228 13.8841 21.0999 13.8379Z" fill="#777E7A"/>
<path opacity="0.868" fill-rule="evenodd" clip-rule="evenodd" d="M8.2012 14.2441C8.67935 14.27 8.84013 14.5069 8.68362 14.9551C8.47668 15.2634 8.2143 15.3312 7.89651 15.1582C7.67444 14.7543 7.77601 14.4496 8.2012 14.2441Z" fill="#777E7A"/>
<path opacity="0.937" fill-rule="evenodd" clip-rule="evenodd" d="M21.0997 15.5137C22.0478 15.5052 22.9957 15.5137 23.9435 15.5391C24.3169 15.6775 24.41 15.923 24.2228 16.2754C24.1847 16.3072 24.1423 16.3326 24.0958 16.3516C23.0463 16.3854 21.9969 16.3854 20.9474 16.3516C20.7556 16.2015 20.6964 16.0069 20.7697 15.7676C20.8511 15.6389 20.961 15.5542 21.0997 15.5137Z" fill="#777E7A"/>
<path opacity="0.895" fill-rule="evenodd" clip-rule="evenodd" d="M21.0986 17.1895C22.0467 17.181 22.9945 17.1895 23.9423 17.2149C24.3158 17.3533 24.4088 17.5988 24.2216 17.9512C24.1379 18.013 24.0448 18.0553 23.9423 18.0781C23.0113 18.112 22.0803 18.112 21.1494 18.0781C20.7359 17.9659 20.6343 17.7204 20.8447 17.3418C20.9282 17.2811 21.0128 17.2303 21.0986 17.1895Z" fill="#777E7A"/>
</g>
<defs>
<clipPath id="clip0_78_1580">
<rect width="26" height="26" fill="white"/>
</clipPath>
</defs>
</svg>
