<svg width="14" height="12" viewBox="0 0 14 12" fill="none" xmlns="http://www.w3.org/2000/svg">
<path d="M11.0833 0.081543H2.91667C1.30842 0.081543 0 1.35486 0 2.91998V10.8676C0 11.1815 0.261333 11.4353 0.583333 11.4353C0.905333 11.4353 1.16667 11.1815 1.16667 10.8676V9.73221H12.8333V10.8676C12.8333 11.1815 13.0941 11.4353 13.4167 11.4353C13.7392 11.4353 14 11.1815 14 10.8676V2.91998C14 1.35486 12.6916 0.081543 11.0833 0.081543ZM2.91667 1.21692H11.0833C12.0482 1.21692 12.8333 1.98102 12.8333 2.91998V6.32609H11.6667C11.6667 5.07378 10.6202 4.05535 9.33333 4.05535H8.75C8.0535 4.05535 7.42817 4.35395 7 4.8257C6.57183 4.35338 5.9465 4.05535 5.25 4.05535H4.66667C3.37983 4.05535 2.33333 5.07378 2.33333 6.32609H1.16667V2.91998C1.16667 1.98102 1.95183 1.21692 2.91667 1.21692ZM7.58333 6.32609C7.58333 5.69994 8.10658 5.19072 8.75 5.19072H9.33333C9.97675 5.19072 10.5 5.69994 10.5 6.32609H7.58333ZM3.5 6.32609C3.5 5.69994 4.02325 5.19072 4.66667 5.19072H5.25C5.89342 5.19072 6.41667 5.69994 6.41667 6.32609H3.5ZM1.16667 8.59684V7.46147H12.8333V8.59684H1.16667Z" fill="black"/>
</svg>
