<svg width="13" height="12" viewBox="0 0 13 12" fill="none" xmlns="http://www.w3.org/2000/svg">
<path d="M11.5 11.6784H1.5C0.673 11.6784 0 11.0234 0 10.2186V0.486832C0 0.218236 0.224 0.000244141 0.5 0.000244141C0.776 0.000244141 1 0.218236 1 0.486832V10.2186C1 10.4867 1.2245 10.7052 1.5 10.7052H11.5C11.776 10.7052 12 10.9232 12 11.1918C12 11.4604 11.776 11.6784 11.5 11.6784ZM12.003 8.27662L12.0105 5.8539C12.0115 5.46755 11.8515 5.08947 11.571 4.81747L10.5605 3.83407C9.9935 3.28228 9.0055 3.28228 8.439 3.83407L7.4995 4.74789L5.56 2.8609C4.9935 2.30911 4.0055 2.30911 3.439 2.8609L2.439 3.83407C2.1555 4.10948 1.9995 4.47637 1.9995 4.86613V8.27224C1.9995 9.07706 2.6725 9.73201 3.4995 9.73201H10.5025C11.3275 9.73201 12.001 9.07901 12.003 8.27662ZM4.8535 3.54893L7.1465 5.77994C7.342 5.9702 7.658 5.9702 7.8535 5.77994L9.1465 4.52211C9.335 4.33818 9.6645 4.33818 9.8535 4.52211L10.864 5.5055C10.9585 5.59747 11.0105 5.72009 11.01 5.85098L11.0025 8.2737C11.002 8.54084 10.7775 8.75883 10.5025 8.75883H3.5C3.2245 8.75883 3 8.54035 3 8.27224V4.86613C3 4.73815 3.0535 4.61261 3.1465 4.52211L4.1465 3.54893C4.2405 3.45697 4.366 3.40636 4.5 3.40636C4.634 3.40636 4.759 3.45697 4.8535 3.54893Z" fill="#18201B"/>
</svg>
