<svg width="18" height="30" viewBox="0 0 18 30" fill="none" xmlns="http://www.w3.org/2000/svg">
<path opacity="0.954" fill-rule="evenodd" clip-rule="evenodd" d="M1.90922 0C6.34476 0 10.7802 0 15.2158 0C16.2801 0.32222 16.9068 1.03576 17.0961 2.14062C17.1347 10.0667 17.1347 17.9928 17.0961 25.9189C16.943 26.9398 16.3838 27.6341 15.4183 28.0017C15.4108 28.3727 15.3722 28.7391 15.3026 29.1009C15.1634 29.327 14.9802 29.5006 14.753 29.6216C13.7887 29.6216 12.8245 29.6216 11.8602 29.6216C11.6108 29.4974 11.4276 29.3045 11.3106 29.043C11.2324 28.7207 11.2035 28.3929 11.2238 28.0595C9.44959 28.0595 7.67542 28.0595 5.90119 28.0595C6.00313 28.6064 5.86816 29.0789 5.49621 29.477C5.3912 29.5207 5.29482 29.5689 5.20693 29.6216C4.26199 29.6216 3.317 29.6216 2.37206 29.6216C2.1448 29.5006 1.96163 29.327 1.82244 29.1009C1.75278 28.7391 1.71419 28.3727 1.70673 28.0017C0.767283 27.6408 0.208002 26.9659 0.0289418 25.9767C-0.00964727 18.0121 -0.00964727 10.0474 0.0289418 2.08277C0.244566 1.00934 0.871306 0.315088 1.90922 0ZM2.42991 0.925675C6.51833 0.91603 10.6067 0.925675 14.6951 0.954602C15.5006 1.02734 15.9731 1.46125 16.1125 2.25633C16.1415 5.05258 16.1511 7.84891 16.1415 10.6453C11.0888 10.6453 6.03617 10.6453 0.983544 10.6453C0.973882 7.82959 0.983544 5.014 1.01247 2.19848C1.18737 1.43507 1.65986 1.0108 2.42991 0.925675ZM3.00846 3.64484C3.14343 3.64484 3.27847 3.64484 3.41344 3.64484C3.41344 5.09121 3.41344 6.53758 3.41344 7.98394C3.27847 7.98394 3.14343 7.98394 3.00846 7.98394C3.00846 6.53758 3.00846 5.09121 3.00846 3.64484ZM0.983544 11.6288C6.03617 11.6288 11.0888 11.6288 16.1415 11.6288C16.1511 16.3729 16.1415 21.117 16.1125 25.861C15.9474 26.6239 15.4749 27.0385 14.6951 27.1049C10.6067 27.1435 6.51833 27.1435 2.42991 27.1049C1.65009 27.0385 1.17759 26.6239 1.01247 25.861C0.983544 21.117 0.973882 16.3729 0.983544 11.6288ZM3.00846 14.2901C3.14343 14.2901 3.27847 14.2901 3.41344 14.2901C3.41344 16.2186 3.41344 18.1471 3.41344 20.0756C3.27847 20.0756 3.14343 20.0756 3.00846 20.0756C3.00846 18.1471 3.00846 16.2186 3.00846 14.2901ZM2.71918 28.0595C3.45203 28.0595 4.18482 28.0595 4.91766 28.0595C4.91766 28.2717 4.91766 28.4838 4.91766 28.6959C4.18482 28.6959 3.45203 28.6959 2.71918 28.6959C2.71918 28.4838 2.71918 28.2717 2.71918 28.0595ZM12.2073 28.0595C12.9402 28.0595 13.673 28.0595 14.4058 28.0595C14.4058 28.2717 14.4058 28.4838 14.4058 28.6959C13.692 28.7056 12.9785 28.6959 12.2652 28.667C12.2099 28.4706 12.1906 28.2681 12.2073 28.0595Z" fill="#777E7A"/>
<path opacity="0.943" fill-rule="evenodd" clip-rule="evenodd" d="M2.48727 2.66132C2.98904 2.6517 3.49047 2.66133 3.99149 2.69025C4.17824 2.78067 4.30361 2.92531 4.36754 3.12416C4.40613 4.89837 4.40613 6.67256 4.36754 8.44679C4.30552 8.68243 4.16089 8.84639 3.93363 8.93855C3.4708 8.97714 3.00796 8.97714 2.54512 8.93855C2.28067 8.84755 2.11676 8.66432 2.05336 8.38893C2.01477 6.67256 2.01477 4.95623 2.05336 3.23987C2.10143 2.96844 2.24607 2.7756 2.48727 2.66132ZM3.00796 3.64485C3.00796 5.09122 3.00796 6.53759 3.00796 7.98395C3.14293 7.98395 3.27797 7.98395 3.41294 7.98395C3.41294 6.53759 3.41294 5.09122 3.41294 3.64485C3.27797 3.64485 3.14293 3.64485 3.00796 3.64485Z" fill="#777E7A"/>
<path opacity="0.94" fill-rule="evenodd" clip-rule="evenodd" d="M2.60298 13.3066C3.00842 13.297 3.4134 13.3066 3.81792 13.3355C4.09331 13.3989 4.27654 13.5628 4.36754 13.8273C4.40613 16.0643 4.40613 18.3013 4.36754 20.5384C4.28226 20.778 4.11836 20.9419 3.87578 21.0302C3.45153 21.0688 3.02722 21.0688 2.60298 21.0302C2.30404 20.9627 2.12087 20.7795 2.05336 20.4806C2.01477 18.2821 2.01477 16.0836 2.05336 13.8851C2.13146 13.5854 2.31469 13.3926 2.60298 13.3066ZM3.00796 14.2901C3.00796 16.2186 3.00796 18.1471 3.00796 20.0756C3.14293 20.0756 3.27797 20.0756 3.41294 20.0756C3.41294 18.1471 3.41294 16.2186 3.41294 14.2901C3.27797 14.2901 3.14293 14.2901 3.00796 14.2901Z" fill="#777E7A"/>
</svg>
