<svg width="137" height="38" viewBox="0 0 137 38" fill="none" xmlns="http://www.w3.org/2000/svg">
<path d="M59.7273 7.125C59.6477 6.84848 59.536 6.60417 59.392 6.39205C59.2481 6.17614 59.072 5.99432 58.8636 5.84659C58.6591 5.69508 58.4242 5.57955 58.1591 5.5C57.8977 5.42045 57.608 5.38068 57.2898 5.38068C56.6951 5.38068 56.1723 5.52841 55.7216 5.82386C55.2746 6.11932 54.9261 6.54924 54.6761 7.11364C54.4261 7.67424 54.3011 8.35985 54.3011 9.17045C54.3011 9.98106 54.4242 10.6705 54.6705 11.2386C54.9167 11.8068 55.2652 12.2405 55.7159 12.5398C56.1667 12.8352 56.6989 12.983 57.3125 12.983C57.8693 12.983 58.3447 12.8845 58.7386 12.6875C59.1364 12.4867 59.4394 12.2045 59.6477 11.8409C59.8598 11.4773 59.9659 11.0473 59.9659 10.5511L60.4659 10.625H57.4659V8.77273H62.3352V10.2386C62.3352 11.2614 62.1193 12.1402 61.6875 12.875C61.2557 13.6061 60.661 14.1705 59.9034 14.5682C59.1458 14.9621 58.2784 15.1591 57.3011 15.1591C56.2102 15.1591 55.2519 14.9186 54.4261 14.4375C53.6004 13.9527 52.9564 13.2652 52.4943 12.375C52.036 11.4811 51.8068 10.4205 51.8068 9.19318C51.8068 8.25 51.9432 7.40909 52.2159 6.67045C52.4924 5.92803 52.8788 5.29924 53.375 4.78409C53.8712 4.26894 54.4489 3.87689 55.108 3.60795C55.767 3.33901 56.4811 3.20455 57.25 3.20455C57.9091 3.20455 58.5227 3.30114 59.0909 3.49432C59.6591 3.68371 60.1629 3.95265 60.6023 4.30114C61.0455 4.64962 61.4072 5.06439 61.6875 5.54545C61.9678 6.02273 62.1477 6.54924 62.2273 7.125H59.7273ZM66.5582 3.36364V15H64.1378V3.36364H66.5582ZM72.4403 15.1705C71.5578 15.1705 70.7945 14.983 70.1506 14.608C69.5104 14.2292 69.0161 13.7027 68.6676 13.0284C68.3191 12.3504 68.1449 11.5644 68.1449 10.6705C68.1449 9.76894 68.3191 8.98106 68.6676 8.30682C69.0161 7.62879 69.5104 7.10227 70.1506 6.72727C70.7945 6.34848 71.5578 6.15909 72.4403 6.15909C73.3229 6.15909 74.0843 6.34848 74.7244 6.72727C75.3684 7.10227 75.8646 7.62879 76.2131 8.30682C76.5616 8.98106 76.7358 9.76894 76.7358 10.6705C76.7358 11.5644 76.5616 12.3504 76.2131 13.0284C75.8646 13.7027 75.3684 14.2292 74.7244 14.608C74.0843 14.983 73.3229 15.1705 72.4403 15.1705ZM72.4517 13.2955C72.8532 13.2955 73.1884 13.1818 73.4574 12.9545C73.7263 12.7235 73.929 12.4091 74.0653 12.0114C74.2055 11.6136 74.2756 11.161 74.2756 10.6534C74.2756 10.1458 74.2055 9.69318 74.0653 9.29545C73.929 8.89773 73.7263 8.58333 73.4574 8.35227C73.1884 8.12121 72.8532 8.00568 72.4517 8.00568C72.0464 8.00568 71.7055 8.12121 71.429 8.35227C71.1563 8.58333 70.9498 8.89773 70.8097 9.29545C70.6733 9.69318 70.6051 10.1458 70.6051 10.6534C70.6051 11.161 70.6733 11.6136 70.8097 12.0114C70.9498 12.4091 71.1563 12.7235 71.429 12.9545C71.7055 13.1818 72.0464 13.2955 72.4517 13.2955ZM78.3551 15V3.36364H80.7756V7.73864H80.8494C80.9555 7.50379 81.1089 7.26515 81.3097 7.02273C81.5142 6.77652 81.7794 6.57197 82.1051 6.40909C82.4347 6.24242 82.8438 6.15909 83.3324 6.15909C83.9688 6.15909 84.5559 6.32576 85.0938 6.65909C85.6316 6.98864 86.0616 7.48674 86.3835 8.15341C86.7055 8.81629 86.8665 9.64773 86.8665 10.6477C86.8665 11.6212 86.7093 12.4432 86.3949 13.1136C86.0843 13.7803 85.66 14.286 85.1222 14.6307C84.5881 14.9716 83.9896 15.142 83.3267 15.142C82.857 15.142 82.4574 15.0644 82.1278 14.9091C81.8021 14.7538 81.535 14.5587 81.3267 14.3239C81.1184 14.0852 80.9593 13.8447 80.8494 13.6023H80.7415V15H78.3551ZM80.7244 10.6364C80.7244 11.1553 80.7964 11.608 80.9403 11.9943C81.0843 12.3807 81.2926 12.6818 81.5653 12.8977C81.8381 13.1098 82.1695 13.2159 82.5597 13.2159C82.9536 13.2159 83.2869 13.108 83.5597 12.892C83.8324 12.6723 84.0388 12.3693 84.179 11.983C84.3229 11.5928 84.3949 11.1439 84.3949 10.6364C84.3949 10.1326 84.3248 9.68939 84.1847 9.30682C84.0445 8.92424 83.8381 8.625 83.5653 8.40909C83.2926 8.19318 82.9574 8.08523 82.5597 8.08523C82.1657 8.08523 81.8324 8.18939 81.5597 8.39773C81.2907 8.60606 81.0843 8.90151 80.9403 9.28409C80.7964 9.66667 80.7244 10.1174 80.7244 10.6364ZM90.9702 15.1648C90.4134 15.1648 89.9171 15.0682 89.4815 14.875C89.0459 14.678 88.7012 14.3883 88.4474 14.0057C88.1974 13.6193 88.0724 13.1383 88.0724 12.5625C88.0724 12.0777 88.1615 11.6705 88.3395 11.3409C88.5175 11.0114 88.7599 10.7462 89.0668 10.5455C89.3736 10.3447 89.7221 10.1932 90.1122 10.0909C90.5062 9.98864 90.919 9.91667 91.3509 9.875C91.8584 9.82197 92.2675 9.77273 92.5781 9.72727C92.8887 9.67803 93.1141 9.60606 93.2543 9.51136C93.3944 9.41667 93.4645 9.27652 93.4645 9.09091V9.05682C93.4645 8.69697 93.3509 8.41856 93.1236 8.22159C92.9001 8.02462 92.5819 7.92614 92.169 7.92614C91.7334 7.92614 91.3868 8.02273 91.1293 8.21591C90.8717 8.4053 90.7012 8.64394 90.6179 8.93182L88.3793 8.75C88.4929 8.2197 88.7164 7.76136 89.0497 7.375C89.383 6.98485 89.813 6.68561 90.3395 6.47727C90.8698 6.26515 91.4834 6.15909 92.1804 6.15909C92.6652 6.15909 93.1293 6.21591 93.5724 6.32955C94.0194 6.44318 94.4152 6.61932 94.7599 6.85795C95.1084 7.09659 95.383 7.40341 95.5838 7.77841C95.7846 8.14962 95.8849 8.5947 95.8849 9.11364V15H93.5895V13.7898H93.5213C93.3812 14.0625 93.1937 14.303 92.9588 14.5114C92.724 14.7159 92.4418 14.8769 92.1122 14.9943C91.7827 15.108 91.402 15.1648 90.9702 15.1648ZM91.6634 13.4943C92.0194 13.4943 92.3338 13.4242 92.6065 13.2841C92.8793 13.1402 93.0933 12.947 93.2486 12.7045C93.4039 12.4621 93.4815 12.1875 93.4815 11.8807V10.9545C93.4058 11.0038 93.3016 11.0492 93.169 11.0909C93.0402 11.1288 92.8944 11.1648 92.7315 11.1989C92.5687 11.2292 92.4058 11.2576 92.2429 11.2841C92.08 11.3068 91.9323 11.3277 91.7997 11.3466C91.5156 11.3883 91.2675 11.4545 91.0554 11.5455C90.8433 11.6364 90.6785 11.7595 90.5611 11.9148C90.4437 12.0663 90.3849 12.2557 90.3849 12.483C90.3849 12.8125 90.5043 13.0644 90.7429 13.2386C90.9853 13.4091 91.2921 13.4943 91.6634 13.4943ZM100.183 3.36364V15H97.7628V3.36364H100.183ZM52.0114 34V22.3636H59.8523V24.392H54.4716V27.1648H59.4489V29.1932H54.4716V31.9716H59.875V34H52.0114ZM69.0241 27.7614L66.8082 27.8977C66.7704 27.7083 66.6889 27.5379 66.5639 27.3864C66.4389 27.2311 66.2741 27.108 66.0696 27.017C65.8688 26.9223 65.6283 26.875 65.348 26.875C64.973 26.875 64.6567 26.9545 64.3991 27.1136C64.1416 27.2689 64.0128 27.4773 64.0128 27.7386C64.0128 27.947 64.0961 28.1231 64.2628 28.267C64.4295 28.411 64.7154 28.5265 65.1207 28.6136L66.7003 28.9318C67.5488 29.1061 68.1813 29.3864 68.598 29.7727C69.0147 30.1591 69.223 30.6667 69.223 31.2955C69.223 31.8674 69.0545 32.3693 68.7173 32.8011C68.384 33.233 67.9257 33.5701 67.3423 33.8125C66.7628 34.0511 66.0942 34.1705 65.3366 34.1705C64.1813 34.1705 63.2609 33.9299 62.5753 33.4489C61.8935 32.964 61.4938 32.3049 61.3764 31.4716L63.7571 31.3466C63.8291 31.6989 64.0033 31.9678 64.2798 32.1534C64.5563 32.3352 64.9105 32.4261 65.3423 32.4261C65.7666 32.4261 66.1075 32.3447 66.3651 32.1818C66.6264 32.0152 66.759 31.8011 66.7628 31.5398C66.759 31.3201 66.6662 31.1402 66.4844 31C66.3026 30.8561 66.0223 30.7462 65.6435 30.6705L64.1321 30.3693C63.2798 30.1989 62.6454 29.9034 62.2287 29.483C61.8158 29.0625 61.6094 28.5265 61.6094 27.875C61.6094 27.3144 61.7609 26.8314 62.0639 26.4261C62.3707 26.0208 62.8007 25.7083 63.3537 25.4886C63.9105 25.2689 64.562 25.1591 65.3082 25.1591C66.4105 25.1591 67.2779 25.392 67.9105 25.858C68.5469 26.3239 68.9181 26.9583 69.0241 27.7614ZM75.3892 25.2727V27.0909H70.1335V25.2727H75.3892ZM71.3267 23.1818H73.7472V31.3182C73.7472 31.5417 73.7813 31.7159 73.8494 31.8409C73.9176 31.9621 74.0123 32.0473 74.1335 32.0966C74.2585 32.1458 74.4025 32.1705 74.5653 32.1705C74.679 32.1705 74.7926 32.161 74.9062 32.142C75.0199 32.1193 75.107 32.1023 75.1676 32.0909L75.5483 33.892C75.4271 33.9299 75.2566 33.9735 75.0369 34.0227C74.8172 34.0758 74.5502 34.108 74.2358 34.1193C73.6525 34.142 73.1411 34.0644 72.7017 33.8864C72.2661 33.7083 71.9271 33.4318 71.6847 33.0568C71.4422 32.6818 71.3229 32.2083 71.3267 31.6364V23.1818ZM79.4545 34.1648C78.8977 34.1648 78.4015 34.0682 77.9659 33.875C77.5303 33.678 77.1856 33.3883 76.9318 33.0057C76.6818 32.6193 76.5568 32.1383 76.5568 31.5625C76.5568 31.0777 76.6458 30.6705 76.8239 30.3409C77.0019 30.0114 77.2443 29.7462 77.5511 29.5455C77.858 29.3447 78.2064 29.1932 78.5966 29.0909C78.9905 28.9886 79.4034 28.9167 79.8352 28.875C80.3428 28.822 80.7519 28.7727 81.0625 28.7273C81.3731 28.678 81.5985 28.6061 81.7386 28.5114C81.8788 28.4167 81.9489 28.2765 81.9489 28.0909V28.0568C81.9489 27.697 81.8352 27.4186 81.608 27.2216C81.3845 27.0246 81.0663 26.9261 80.6534 26.9261C80.2178 26.9261 79.8712 27.0227 79.6136 27.2159C79.3561 27.4053 79.1856 27.6439 79.1023 27.9318L76.8636 27.75C76.9773 27.2197 77.2008 26.7614 77.5341 26.375C77.8674 25.9848 78.2973 25.6856 78.8239 25.4773C79.3542 25.2652 79.9678 25.1591 80.6648 25.1591C81.1496 25.1591 81.6136 25.2159 82.0568 25.3295C82.5038 25.4432 82.8996 25.6193 83.2443 25.858C83.5928 26.0966 83.8674 26.4034 84.0682 26.7784C84.2689 27.1496 84.3693 27.5947 84.3693 28.1136V34H82.0739V32.7898H82.0057C81.8655 33.0625 81.678 33.303 81.4432 33.5114C81.2083 33.7159 80.9261 33.8769 80.5966 33.9943C80.267 34.108 79.8864 34.1648 79.4545 34.1648ZM80.1477 32.4943C80.5038 32.4943 80.8182 32.4242 81.0909 32.2841C81.3636 32.1402 81.5777 31.947 81.733 31.7045C81.8883 31.4621 81.9659 31.1875 81.9659 30.8807V29.9545C81.8902 30.0038 81.786 30.0492 81.6534 30.0909C81.5246 30.1288 81.3788 30.1648 81.2159 30.1989C81.053 30.2292 80.8902 30.2576 80.7273 30.2841C80.5644 30.3068 80.4167 30.3277 80.2841 30.3466C80 30.3883 79.7519 30.4545 79.5398 30.5455C79.3277 30.6364 79.1629 30.7595 79.0455 30.9148C78.928 31.0663 78.8693 31.2557 78.8693 31.483C78.8693 31.8125 78.9886 32.0644 79.2273 32.2386C79.4697 32.4091 79.7765 32.4943 80.1477 32.4943ZM90.8892 25.2727V27.0909H85.6335V25.2727H90.8892ZM86.8267 23.1818H89.2472V31.3182C89.2472 31.5417 89.2813 31.7159 89.3494 31.8409C89.4176 31.9621 89.5123 32.0473 89.6335 32.0966C89.7585 32.1458 89.9025 32.1705 90.0653 32.1705C90.179 32.1705 90.2926 32.161 90.4062 32.142C90.5199 32.1193 90.607 32.1023 90.6676 32.0909L91.0483 33.892C90.9271 33.9299 90.7566 33.9735 90.5369 34.0227C90.3172 34.0758 90.0502 34.108 89.7358 34.1193C89.1525 34.142 88.6411 34.0644 88.2017 33.8864C87.7661 33.7083 87.4271 33.4318 87.1847 33.0568C86.9422 32.6818 86.8229 32.2083 86.8267 31.6364V23.1818ZM96.3494 34.1705C95.4517 34.1705 94.679 33.9886 94.0312 33.625C93.3873 33.2576 92.8911 32.7386 92.5426 32.0682C92.1941 31.3939 92.0199 30.5966 92.0199 29.6761C92.0199 28.7784 92.1941 27.9905 92.5426 27.3125C92.8911 26.6345 93.3816 26.1061 94.0142 25.7273C94.6506 25.3485 95.3968 25.1591 96.2528 25.1591C96.8286 25.1591 97.3646 25.2519 97.8608 25.4375C98.3608 25.6193 98.7964 25.8939 99.1676 26.2614C99.5426 26.6288 99.8343 27.0909 100.043 27.6477C100.251 28.2008 100.355 28.8485 100.355 29.5909V30.2557H92.9858V28.7557H98.0767C98.0767 28.4072 98.0009 28.0985 97.8494 27.8295C97.6979 27.5606 97.4877 27.3504 97.2188 27.1989C96.9536 27.0436 96.6449 26.9659 96.2926 26.9659C95.9252 26.9659 95.5994 27.0511 95.3153 27.2216C95.035 27.3883 94.8153 27.6136 94.6562 27.8977C94.4972 28.178 94.4157 28.4905 94.4119 28.8352V30.2614C94.4119 30.6932 94.4915 31.0663 94.6506 31.3807C94.8134 31.6951 95.0426 31.9375 95.3381 32.108C95.6335 32.2784 95.9839 32.3636 96.3892 32.3636C96.6581 32.3636 96.9044 32.3258 97.1278 32.25C97.3513 32.1742 97.5426 32.0606 97.7017 31.9091C97.8608 31.7576 97.982 31.572 98.0653 31.3523L100.304 31.5C100.19 32.0379 99.9574 32.5076 99.6051 32.9091C99.2566 33.3068 98.8059 33.6174 98.2528 33.8409C97.7036 34.0606 97.0691 34.1705 96.3494 34.1705ZM105.683 34V22.3636H108.143V27.1648H113.138V22.3636H115.592V34H113.138V29.1932H108.143V34H105.683ZM123.172 30.2841V25.2727H125.592V34H123.268V32.4148H123.178C122.981 32.9261 122.653 33.3371 122.195 33.6477C121.74 33.9583 121.185 34.1136 120.53 34.1136C119.946 34.1136 119.433 33.9811 118.99 33.7159C118.547 33.4508 118.2 33.0739 117.95 32.5852C117.704 32.0966 117.579 31.5114 117.575 30.8295V25.2727H119.996V30.3977C120 30.9129 120.138 31.3201 120.411 31.6193C120.683 31.9186 121.049 32.0682 121.507 32.0682C121.799 32.0682 122.071 32.0019 122.325 31.8693C122.579 31.733 122.784 31.5322 122.939 31.267C123.098 31.0019 123.176 30.6742 123.172 30.2841ZM127.574 34V22.3636H129.994V26.7386H130.068C130.174 26.5038 130.328 26.2652 130.528 26.0227C130.733 25.7765 130.998 25.572 131.324 25.4091C131.653 25.2424 132.063 25.1591 132.551 25.1591C133.188 25.1591 133.775 25.3258 134.312 25.6591C134.85 25.9886 135.28 26.4867 135.602 27.1534C135.924 27.8163 136.085 28.6477 136.085 29.6477C136.085 30.6212 135.928 31.4432 135.614 32.1136C135.303 32.7803 134.879 33.286 134.341 33.6307C133.807 33.9716 133.208 34.142 132.545 34.142C132.076 34.142 131.676 34.0644 131.347 33.9091C131.021 33.7538 130.754 33.5587 130.545 33.3239C130.337 33.0852 130.178 32.8447 130.068 32.6023H129.96V34H127.574ZM129.943 29.6364C129.943 30.1553 130.015 30.608 130.159 30.9943C130.303 31.3807 130.511 31.6818 130.784 31.8977C131.057 32.1098 131.388 32.2159 131.778 32.2159C132.172 32.2159 132.506 32.108 132.778 31.892C133.051 31.6723 133.258 31.3693 133.398 30.983C133.542 30.5928 133.614 30.1439 133.614 29.6364C133.614 29.1326 133.544 28.6894 133.403 28.3068C133.263 27.9242 133.057 27.625 132.784 27.4091C132.511 27.1932 132.176 27.0852 131.778 27.0852C131.384 27.0852 131.051 27.1894 130.778 27.3977C130.509 27.6061 130.303 27.9015 130.159 28.2841C130.015 28.6667 129.943 29.1174 129.943 29.6364Z" fill="#18201B"/>
<path d="M43 25.5836H33.2315V12.3347L21.5992 3.86406L9.96723 12.3347V25.5836H0V22.4633H6.83775V10.7496L21.5992 0L36.3609 10.7496V22.4633H43V25.5836Z" fill="#C66735"/>
<path d="M43 33.5757H25.2161V16.3943L21.5992 13.7606L17.9826 16.3943V33.5757H0V30.4553H14.8532V14.8094L21.5992 9.89658L28.3456 14.8094V30.4553H43V33.5757Z" fill="#375844"/>
</svg>
