<svg width="99" height="99" viewBox="0 0 99 99" fill="none" xmlns="http://www.w3.org/2000/svg">
<path d="M94.2851 57.7268C93.0635 54.3029 91.6708 50.9455 90.4275 47.5318C90.1713 46.83 89.8977 44.4202 89.3866 44.0607C88.6697 43.5569 86.6465 45.2591 86.165 45.6418C83.6962 47.6053 81.4402 49.7701 79.1637 51.9484C78.8991 52.2013 77.1459 53.5777 77.2159 53.9007C77.4817 55.1283 80.0465 55.4278 80.9191 55.693C84.7283 56.8503 89.917 58.5423 93.9381 58.6929" stroke="#C66735" stroke-width="4" stroke-miterlimit="1.5" stroke-linecap="round" stroke-linejoin="round"/>
<path d="M82.8736 48.4801C76.542 38.9751 63.9148 28.2099 52.043 26.884C46.657 26.2824 33.2228 29.9982 35.8726 38.0442C38.7761 46.8599 50.7699 37.9779 46.2003 30.8283C42.1597 24.5065 34.0405 23.9091 27.4029 25.8123C15.6724 29.1761 7.55656 37.1208 3.28843 48.457" stroke="#C66735" stroke-width="4" stroke-miterlimit="1.5" stroke-linecap="round" stroke-linejoin="round"/>
</svg>
