<svg width="143" height="58" viewBox="0 0 143 58" fill="none" xmlns="http://www.w3.org/2000/svg">
<path d="M10.4212 45.8346C13.3332 45.823 14.2191 46.1698 14.1936 47.0792C14.1669 48.0218 13.3383 48.2965 10.4212 48.2477C10.4212 47.4789 10.4212 46.7044 10.4212 45.8346Z" fill="#C66735"/>
<path d="M139.489 26.215C138.288 27.0665 137.058 26.9515 135.483 26.5965C135.596 26.0164 135.616 25.3784 135.887 24.79C136.002 24.5393 136.606 24.296 137.058 24.2166C138.108 24.032 138.894 24.7056 139.489 26.215Z" fill="#C66735"/>
<path d="M24.3921 53.0076C24.6772 52.2612 24.947 51.5537 25.2232 50.8263C26.7683 50.8735 27.999 50.9488 28.4496 51.8235C28.6277 52.1685 28.5043 52.7412 28.153 53.0076C27.2137 53.721 26.0046 53.4545 24.3921 53.0076Z" fill="#C66735"/>
<path d="M143 32.2841C142.23 33.0586 141.753 34.0905 140.004 33.7794C139.45 33.6809 138.724 33.0462 138.768 32.6945C138.836 32.169 139.34 31.3945 139.971 31.2273C141.405 30.8483 142.259 31.6163 143 32.2841Z" fill="#C66735"/>
<path d="M100.409 53.6092C101.691 52.8354 101.691 52.8288 103.635 52.9728C104.447 54.3639 104.175 55.2642 102.878 55.4827C101.694 55.6813 100.928 55.0995 100.409 53.6092Z" fill="#C66735"/>
<path d="M137.455 28.9954C138.279 28.0024 138.279 28.0024 140.284 27.6044C141.782 28.9243 141.928 29.4994 140.894 30.0017C139.824 30.5197 138.809 30.2226 137.455 28.9954Z" fill="#C66735"/>
<path d="M107.706 54.6047C105.783 53.764 105.224 53.0515 105.921 52.382C106.698 51.6372 107.956 51.7572 109.835 52.7552C109.891 53.6754 109.025 54.1694 107.706 54.6047Z" fill="#C66735"/>
<path d="M124.977 46.9899C126.186 46.5207 127.162 46.1409 128.108 45.7734C129.747 47.1033 129.986 47.824 129.078 48.3156C128.054 48.8692 126.864 48.5382 124.977 46.9899Z" fill="#C66735"/>
<path d="M0 35.0827C0.604552 33.9954 0.604552 33.9954 2.44748 33.4451C4.23441 34.6292 4.47877 35.1332 3.57258 35.7605C2.61548 36.4225 1.83402 36.2744 0 35.0827Z" fill="#C66735"/>
<path d="M36.4513 10.1967C35.8442 9.9129 35.0589 9.63403 34.4734 9.23268C34.196 9.04318 34.1349 8.58887 34.2583 8.30586C34.6236 7.46924 35.8327 7.38318 37.9493 8.00299C38.3973 8.91657 37.9518 9.61169 36.4513 10.1967Z" fill="#C66735"/>
<path d="M20.4758 16.9261C19.4882 17.3754 18.582 17.7883 17.7153 18.1822C15.9474 16.9683 15.7094 16.1374 16.7823 15.5805C17.8298 15.0385 18.7805 15.3306 20.4758 16.9261Z" fill="#C66735"/>
<path d="M71.29 55.5233C71.6973 57.1634 71.3842 57.7948 70.1611 57.9636C68.7432 58.1598 68.0242 57.5739 67.7365 56.009C68.6338 55.0979 69.9129 55.3288 71.29 55.5233Z" fill="#C66735"/>
<path d="M87.8496 56.8241C86.4394 57.501 85.3258 57.1369 84.0136 56.5643C84.3941 55.9958 84.7149 55.4 85.1934 54.8645C85.3601 54.6775 85.9138 54.5476 86.2918 54.546C87.5416 54.5385 88.0787 55.3263 87.8496 56.8241Z" fill="#C66735"/>
<path d="M73.2462 0.453491C74.2644 0.959933 75.4888 1.47134 74.8448 2.43954C74.6335 2.75565 73.5326 3.0519 72.9573 2.97577C72.2484 2.88226 71.2353 2.44781 71.1118 2.05805C70.8051 1.09647 72.1058 0.758846 73.2462 0.453491Z" fill="#C66735"/>
<path d="M42.6037 8.34474C41.2241 8.48708 39.8851 8.69313 39.2971 7.77541C39.0655 7.41378 39.3035 6.62764 39.7299 6.45386C40.4299 6.16919 41.6861 5.96562 42.3033 6.19319C43.6028 6.6715 43.0632 7.54453 42.6037 8.34474Z" fill="#C66735"/>
<path d="M59.9741 2.22606C61.2137 2.0167 62.2739 1.83712 63.3201 1.66003C64.0748 3.28114 63.8852 4.0466 62.8225 4.31306C61.6783 4.59938 60.8573 4.0706 59.9741 2.22606Z" fill="#C66735"/>
<path d="M76.4128 57.5069C75.0828 57.7154 73.7935 57.7568 73.25 56.8705C73.0502 56.5453 73.4855 55.8138 73.9691 55.6152C74.58 55.3636 75.7789 55.237 76.2919 55.4662C77.3699 55.9445 77.1051 56.7348 76.4128 57.5069Z" fill="#C66735"/>
<path d="M48.8452 56.8142C47.2759 57.0798 46.4779 56.4964 45.7054 55.8808C46.6078 54.5427 47.505 54.047 48.5716 54.2977C49.7387 54.5724 49.8418 55.3602 48.8452 56.8142Z" fill="#C66735"/>
<path d="M78.7381 8.45068C79.4317 9.05395 80.0592 9.59928 80.6726 10.1322C78.7775 11.2444 77.6919 11.4322 76.8659 10.8687C75.9482 10.2439 76.4 9.54549 78.7381 8.45068Z" fill="#C66735"/>
<path d="M93.7259 55.3288C93.4942 56.3276 92.3704 56.6528 91.0595 56.8373C89.5398 55.6697 89.2827 54.9167 90.2233 54.4193C91.2326 53.8856 92.3704 54.1802 93.7259 55.3288Z" fill="#C66735"/>
<path d="M42.1455 53.6514C43.3317 54.0593 44.6337 54.3581 44.2557 55.3519C44.1284 55.6871 43.3088 56.1736 42.8837 56.1422C42.045 56.0801 40.8333 55.8352 40.5444 55.4322C39.9755 54.6411 41.1108 54.1413 42.1455 53.6514Z" fill="#C66735"/>
<path d="M138.302 36.2817C138.46 35.2209 139.545 34.9147 140.709 34.6639C142.348 35.7265 142.692 36.4381 141.833 36.9777C140.999 37.5015 139.93 37.2996 138.302 36.2817Z" fill="#C66735"/>
<path d="M9.86756 20.3304C10.7699 20.7583 11.6787 21.1878 12.5569 21.6032C11.3974 22.9537 10.2125 23.3848 9.13701 22.9702C8.06536 22.5573 8.23845 21.7314 9.86756 20.3304Z" fill="#C66735"/>
<path d="M33.7963 52.895C32.8685 54.4251 31.8287 54.934 30.6629 54.4839C29.7618 54.1363 29.5174 53.2161 30.1512 52.5533C30.7889 51.8846 31.8312 51.9649 33.7963 52.895Z" fill="#C66735"/>
<path d="M60.0288 10.9233C60.8345 10.5898 61.7012 10.2314 62.6328 9.84583C63.5199 10.5922 64.5025 11.155 63.7974 12.0057C63.5696 12.2804 62.8454 12.5195 62.3363 12.5303C60.9783 12.5593 60.4908 11.8824 60.0288 10.9233Z" fill="#C66735"/>
<path d="M66.4472 11.6267C65.4685 10.9547 65.5805 10.2265 66.185 9.47347C68.453 9.34851 69.5451 9.62821 69.6761 10.3606C69.8225 11.1773 68.7814 11.5878 66.4472 11.6267Z" fill="#C66735"/>
<path d="M29.0834 10.8007C29.8037 10.1817 30.4236 9.64882 31.1809 8.99756C32.0374 9.47917 32.7514 9.7746 33.2172 10.1875C33.4552 10.3985 33.3967 10.8636 33.2134 11.1417C32.717 11.8964 31.359 11.8302 29.0834 10.8007Z" fill="#C66735"/>
<path d="M65.8401 1.64508C67.8167 1.04264 68.9418 1.07905 69.4814 1.73693C70.0223 2.39729 69.3452 3.00221 67.314 3.64602C65.9496 3.32411 65.695 2.61162 65.8401 1.64508Z" fill="#C66735"/>
<path d="M60.7135 55.4702C60.3801 56.2514 60.0835 56.9449 59.7933 57.6243C57.202 57.2602 56.2946 56.7479 56.6395 56.0007C56.9717 55.2816 57.9326 55.1161 60.7135 55.4702Z" fill="#C66735"/>
<path d="M54.5649 57.0624C52.3771 57.1799 51.2914 56.8853 51.1896 56.1621C51.0789 55.3751 52.0576 54.9911 54.2315 54.9705C55.4686 55.6035 55.0575 56.3309 54.5649 57.0624Z" fill="#C66735"/>
<path d="M113.016 50.5267C113.75 51.0795 114.489 51.6364 115.219 52.1867C113.38 53.3444 112.233 53.5695 111.418 53.0043C110.587 52.4275 111.076 51.5661 113.016 50.5267Z" fill="#C66735"/>
<path d="M1.00546 31.8695C0.875639 30.9675 1.21037 30.1879 2.55693 29.972C3.03548 29.895 4.07913 30.3518 4.26367 30.7002C4.49786 31.1429 4.40877 31.9224 3.94931 32.203C2.9222 32.8286 1.89638 32.284 1.00546 31.8695Z" fill="#C66735"/>
<path d="M136.415 39.2351C137.252 38.8297 138.099 38.4192 138.93 38.0154C140.651 39.3071 140.858 39.989 139.791 40.4516C138.775 40.8927 137.868 40.5972 136.415 39.2351Z" fill="#C66735"/>
<path d="M20.8258 15.377C20.052 14.4146 20.6782 13.8072 21.6328 13.2668C23.8817 13.6723 24.6224 14.1299 24.247 14.8549C23.8817 15.5632 23.0582 15.6989 20.8258 15.377Z" fill="#C66735"/>
<path d="M135.254 21.6769C136.447 22.5118 135.756 23.2119 135.31 23.9178C133.146 23.8342 132.117 23.4718 132.074 22.7833C132.025 22.041 133.042 21.6802 135.254 21.6769Z" fill="#C66735"/>
<path d="M38.3286 53.0754C38.8428 54.0858 38.9331 54.8852 37.8398 55.3776C37.4275 55.5638 36.1967 55.3991 35.8467 55.1227C35.3898 54.7611 35.0971 53.7722 35.3274 53.6795C36.1687 53.3411 37.2582 53.2641 38.3286 53.0754Z" fill="#C66735"/>
<path d="M94.7275 54.608C95.649 54.2166 96.5755 53.8227 97.4804 53.4387C99.1006 54.7942 99.2521 55.4943 98.1906 55.99C97.1317 56.4856 96.2268 56.1604 94.7275 54.608Z" fill="#C66735"/>
<path d="M2.77585 28.6082C2.93876 28.0653 3.12203 27.4546 3.28622 26.9027C4.76514 26.7033 5.87624 26.7579 6.38534 27.5672C6.5648 27.8527 6.42479 28.3831 6.10661 28.6107C5.21696 29.2487 4.11604 29.1362 2.77585 28.6082Z" fill="#C66735"/>
<path d="M2.92221 42.2673C3.14749 41.4025 3.13476 40.4393 4.86059 40.3838C5.38114 40.3673 6.27715 40.7512 6.39934 41.0541C6.59534 41.5407 6.59788 42.3268 6.13715 42.6065C5.02605 43.2826 3.9264 42.7083 2.92221 42.2673Z" fill="#C66735"/>
<path d="M16.4222 50.5523C15.7196 49.9829 15.1125 49.4914 14.5398 49.0263C16.1803 47.7784 17.1247 47.5682 17.9495 48.1682C18.7945 48.7814 18.4535 49.426 16.4222 50.5523Z" fill="#C66735"/>
<path d="M117.615 15.8718C116.58 15.8718 115.529 15.8718 114.498 15.8718C114.255 14.2515 114.777 13.5804 116.11 13.635C117.34 13.6847 117.79 14.2995 117.615 15.8718Z" fill="#C66735"/>
<path d="M15.9092 19.9928C14.242 20.2924 13.0278 20.5837 12.343 19.7802C12.0656 19.4541 12.2412 18.6845 12.6536 18.4611C13.2009 18.164 14.6136 17.9513 14.886 18.1491C15.4689 18.5736 15.5605 19.2853 15.9092 19.9928Z" fill="#C66735"/>
<path d="M9.26682 25.2286C8.30972 25.5017 7.34243 25.7789 6.39679 26.0487C5.16987 24.5848 5.1495 23.9501 6.18424 23.581C7.37171 23.1582 8.25881 23.591 9.26682 25.2286Z" fill="#C66735"/>
<path d="M5.7197 44.4767C6.65007 44.0215 7.4188 43.6459 8.22445 43.252C9.26937 43.7567 10.1361 44.1622 9.75174 44.9492C9.59774 45.2661 9.11282 45.6526 8.65463 45.7428C7.29917 46.0117 6.71116 45.2984 5.7197 44.4767Z" fill="#C66735"/>
<path d="M123.553 50.3935C122.253 50.1709 120.9 50.0285 121.032 49.0214C121.081 48.6491 121.808 48.1319 122.382 48.021C122.994 47.9026 124.12 48.0317 124.442 48.3238C125.278 49.0827 124.572 49.7712 123.553 50.3935Z" fill="#C66735"/>
<path d="M88.2136 11.4992C87.6918 10.6792 87.268 9.88641 88.5025 9.34852C88.9162 9.16812 90.0044 9.23598 90.3238 9.46355C90.8342 9.82683 91.3598 10.5037 91.1626 10.8968C90.7489 11.7202 89.4787 11.6499 88.2136 11.4992Z" fill="#C66735"/>
<path d="M28.7525 11.7392C28.3554 12.4119 28.0155 12.9904 27.691 13.5398C25.3352 13.2469 24.5028 12.7678 24.8553 12.0263C25.2257 11.2484 26.2121 11.1351 28.7525 11.7392Z" fill="#C66735"/>
<path d="M131.307 43.6881C132.118 43.9562 132.977 44.2409 133.807 44.5156C133.591 45.4151 133.211 46.097 131.958 46.2344C131.505 46.284 130.742 46.0482 130.492 45.79C129.784 45.0618 130.336 44.4105 131.307 43.6881Z" fill="#C66735"/>
<path d="M93.1888 10.3977C95.1182 9.80771 96.1402 9.85074 96.6201 10.4954C97.0897 11.1259 96.5373 11.6597 94.7135 12.3234C93.2817 12.0404 93.1938 11.2782 93.1888 10.3977Z" fill="#C66735"/>
<path d="M134.372 43.2974C133.906 42.5063 133.701 41.7649 134.91 41.3296C135.355 41.1699 136.43 41.2493 136.682 41.4744C137.124 41.8683 137.534 42.57 137.275 42.9416C136.776 43.6566 135.589 43.5341 134.372 43.2974Z" fill="#C66735"/>
<path d="M63.5186 57.8825C63.1152 57.2627 62.7155 56.6486 62.335 56.0636C64.3408 55.2808 65.2648 55.2783 65.8592 55.9378C66.4854 56.6321 65.8923 57.1774 63.5186 57.8825Z" fill="#C66735"/>
<path d="M81.8181 10.0014C83.8558 8.89915 84.7518 8.77089 85.448 9.3096C86.1683 9.86569 85.8769 10.3597 83.9767 11.5034C83.2958 11.03 82.6149 10.5558 81.8181 10.0014Z" fill="#C66735"/>
<path d="M49.8825 3.94813C51.0954 3.66098 52.2447 3.45741 52.8595 4.11942C53.1827 4.46698 52.876 5.16044 52.5654 5.61475C52.4127 5.83983 51.5014 6.06078 51.1183 5.96644C49.7591 5.63295 49.5923 4.88074 49.8825 3.94813Z" fill="#C66735"/>
<path d="M23.4426 51.2583C22.3862 51.5156 21.5017 51.7316 20.6464 51.9393C19.6575 50.6575 19.6918 49.9574 20.612 49.6305C21.5717 49.2913 22.3531 49.6876 23.4426 51.2583Z" fill="#C66735"/>
<path d="M2.7173 39.7201C2.06948 39.2666 1.41274 38.8065 0.775101 38.3596C2.34948 37.1961 3.45549 36.9785 4.22804 37.5768C4.97387 38.1552 4.65569 38.6567 2.7173 39.7201Z" fill="#C66735"/>
<path d="M89.5157 0C90.1482 0.429483 90.7973 0.869723 91.4362 1.30334C89.7906 2.41967 88.8729 2.61579 88.122 2.11017C87.3507 1.59132 87.7096 0.976473 89.5157 0Z" fill="#C66735"/>
<path d="M122.881 16.1523C122.532 16.9409 122.056 17.6435 120.666 17.5748C120.228 17.5533 119.499 17.1089 119.501 16.8615C119.508 16.3526 119.683 15.6119 120.212 15.3885C121.24 14.9524 122.135 15.4613 122.881 16.1523Z" fill="#C66735"/>
<path d="M125.073 19.3184C124.825 19.0313 124.233 18.6233 124.138 18.1723C123.993 17.4789 124.888 16.9252 125.762 16.9699C126.644 17.0146 127.725 17.6617 127.675 18.1144C127.609 18.7011 126.447 19.3623 125.073 19.3184Z" fill="#C66735"/>
<path d="M80.6115 57.496C79.7295 57.0873 78.4708 56.7852 78.9913 55.8816C79.1708 55.5712 80.0172 55.2096 80.5033 55.2402C81.1499 55.2816 82.1045 55.6027 82.2865 55.9469C82.7434 56.8092 81.6845 57.2031 80.6115 57.496Z" fill="#C66735"/>
<path d="M132.245 19.8174C131.735 20.3909 131.263 20.9197 130.845 21.3889C129.43 21.2623 128.605 20.8816 128.51 20.1493C128.47 19.8481 128.897 19.3946 129.317 19.2191C130.433 18.7508 131.178 19.3499 132.245 19.8174Z" fill="#C66735"/>
<path d="M118.173 49.4409C118.775 49.8671 119.417 50.3222 119.986 50.7244C119.282 51.6496 118.384 52.0228 117.146 51.7654C116.775 51.6885 116.393 51.3061 116.313 51.0281C116.084 50.2279 116.896 49.8224 118.173 49.4409Z" fill="#C66735"/>
<path d="M104.757 13.7525C103.767 13.0946 103.639 12.397 104.46 11.8757C104.851 11.6275 105.94 11.6299 106.523 11.7979C106.955 11.9221 107.353 12.5179 107.288 12.8654C107.118 13.779 105.85 13.6441 104.757 13.7525Z" fill="#C66735"/>
<path d="M55.746 5.00073C55.5398 4.27913 55.3617 3.65601 55.1873 3.04364C57.3879 2.67457 58.4595 2.82518 58.7153 3.46568C58.9966 4.16907 58.2826 4.58366 55.746 5.00073Z" fill="#C66735"/>
<path d="M47.2148 6.95193C46.1203 7.02227 44.9124 7.03137 44.5319 6.1691C44.397 5.86291 44.8386 5.2431 45.2828 5.0867C45.853 4.88644 46.9336 4.81114 47.3663 5.03374C48.2954 5.51122 48.149 6.21709 47.2148 6.95193Z" fill="#C66735"/>
<path d="M102.51 11.7276C101.562 12.2108 100.989 12.733 100.368 12.7595C99.6645 12.7893 98.631 12.6023 98.6743 11.8004C98.7074 11.1773 99.4875 10.4772 100.338 10.6228C101.014 10.7379 101.544 11.2153 102.51 11.7276Z" fill="#C66735"/>
<path d="M111.072 15.0145C110.347 14.6231 109.612 14.2275 108.899 13.8435C110.194 12.6172 111.148 12.3192 112.024 12.762C112.907 13.208 112.686 13.8328 111.072 15.0145Z" fill="#C66735"/>
<path d="M74.664 9.54797C74.58 10.4276 74.4782 11.2022 72.984 11.227C72.5067 11.2345 71.6642 10.9423 71.6056 10.7181C71.4771 10.2298 71.4669 9.53308 71.9085 9.21779C72.8173 8.56819 73.7413 9.13173 74.664 9.54797Z" fill="#C66735"/>
<path d="M96.8135 2.05807C95.7279 2.19626 94.8064 2.31294 93.8964 2.4288C93.3478 0.949192 93.5133 0.490746 94.5213 0.328552C95.5891 0.157256 96.1033 0.492401 96.8135 2.05807Z" fill="#C66735"/>
<path d="M80.2743 1.33234C80.3481 1.93726 79.6277 2.40232 78.5306 2.5248C77.5201 2.63817 77.1102 2.21861 76.8977 1.73121C76.666 1.20077 77.5366 0.554474 78.467 0.467584C79.3541 0.384832 80.2094 0.793627 80.2743 1.33234Z" fill="#C66735"/>
<path d="M83.7132 0.188721C84.8383 0.400566 85.8552 0.740676 85.6923 1.62033C85.6427 1.88845 84.9007 2.30303 84.4896 2.29558C83.8138 2.284 82.8019 2.09864 82.5512 1.78087C81.9988 1.08079 82.7854 0.560277 83.7132 0.188721Z" fill="#C66735"/>
<path d="M110.483 4.22609C110.268 3.9737 109.748 3.60628 109.654 3.19748C109.518 2.60415 110.456 2.14736 111.61 2.19536C112.414 2.22929 113.106 2.44527 113.094 3.09735C113.083 3.73454 112.066 4.27078 110.483 4.22609Z" fill="#C66735"/>
<path d="M106.845 3.33908C104.533 2.99732 103.783 2.64562 104.105 2.05312C104.679 0.993893 105.957 1.3911 107.464 1.50116C107.236 2.17725 107.041 2.75734 106.845 3.33908Z" fill="#C66735"/>
<path d="M100.191 2.97324C99.6887 2.52472 99.177 2.06793 98.6768 1.62272C100.326 0.689283 101.207 0.533709 101.84 0.995465C102.576 1.53253 102.089 2.17799 100.191 2.97324Z" fill="#C66735"/>
<path d="M120.366 6.72695C120.475 6.25112 120.464 5.75461 120.736 5.33672C120.882 5.11246 121.576 4.86255 121.916 4.91551C122.29 4.97426 122.715 5.34003 122.812 5.61807C123.051 6.29912 122.004 6.79646 120.366 6.72695Z" fill="#C66735"/>
<path d="M116.899 2.96167C117.376 3.60796 117.77 3.90752 117.787 4.21619C117.82 4.84593 116.891 5.45416 116.26 5.25142C115.819 5.10908 115.215 4.63657 115.312 4.4421C115.529 3.99938 116.132 3.63775 116.899 2.96167Z" fill="#C66735"/>
<path d="M125.782 8.32073C125.121 8.876 124.614 9.29969 124.125 9.70931C123.055 9.60587 122.884 9.13005 123.162 8.7138C123.584 8.07744 124.412 7.86146 125.782 8.32073Z" fill="#C66735"/>
</svg>
