<?xml version="1.0" ?><svg data-name="Layer 1" id="Layer_1" viewBox="0 0 512 512" xmlns="http://www.w3.org/2000/svg"><path d="M471.61,459.5H400.68V408.26A91.85,91.85,0,0,0,486.27,305c0-.23,0-.45-.09-.67a92.08,92.08,0,0,0-67.94-76.65,4.55,4.55,0,0,0-.66-.17,92.2,92.2,0,0,0-44.86,0,4.55,4.55,0,0,0-.66.17,91.9,91.9,0,0,0-44.82,27.13,5,5,0,0,0-.81.91,91.53,91.53,0,0,0-22.31,48.61c0,.22-.07.44-.09.67a91.85,91.85,0,0,0,85.6,103.24V459.5H173.54V327.33C249.83,324.42,311,261.44,311,184.45a144.18,144.18,0,0,0-1.11-17.86,5.34,5.34,0,0,0-.16-1.2A143.42,143.42,0,0,0,203.91,46a5.74,5.74,0,0,0-.91-.22,143.22,143.22,0,0,0-70,0,5.15,5.15,0,0,0-.88.22A143.21,143.21,0,0,0,62.21,88.34a5.84,5.84,0,0,0-1.1,1.23,142.52,142.52,0,0,0-34.85,76,5.66,5.66,0,0,0-.12.84A144,144,0,0,0,25,184.45c0,77,61.19,140,137.49,142.88V459.5H40.41a5.53,5.53,0,1,0,0,11.05h431.2a5.53,5.53,0,0,0,0-11.05ZM346.82,295.42v10.05a15.88,15.88,0,0,1-31.75.34,80.53,80.53,0,0,1,11-31A27,27,0,0,0,346.82,295.42Zm26.93-10.05a27,27,0,0,0,15.88,10.05v10.05a15.88,15.88,0,0,1-31.76,0V295.42A27,27,0,0,0,373.75,285.37Zm42.81,0a27,27,0,0,0,15.88,10.05v10.05a15.88,15.88,0,0,1-31.76,0V295.42A27,27,0,0,0,416.56,285.37Zm47.71-10.58a80.36,80.36,0,0,1,11,31,15.88,15.88,0,0,1-31.75-.34V295.42A27,27,0,0,0,464.27,274.79Zm-42.19,57A27,27,0,0,0,438,321.78a27,27,0,0,0,15.88,10.05V363a15.88,15.88,0,0,1-31.76,0Zm42.81,0a26.86,26.86,0,0,0,10.37-4.64,80.18,80.18,0,0,1-10.37,30.17Zm-139.48,0v25.53a80.17,80.17,0,0,1-10.36-30.17A26.75,26.75,0,0,0,325.41,331.83Zm11,31.15V331.83a27,27,0,0,0,15.88-10.05,27,27,0,0,0,15.88,10.05V363a15.88,15.88,0,0,1-31.76,0Zm42.81-31.15a27,27,0,0,0,15.88-10.05A27,27,0,0,0,411,331.83V363a15.88,15.88,0,0,1-31.76,0Zm21.41,57.51a27,27,0,0,0,15.88-10A26.94,26.94,0,0,0,431,389a80.28,80.28,0,0,1-30.32,8.21Zm53.16-128.21v7.93a15.88,15.88,0,0,1-31.76,0V240.42A81.14,81.14,0,0,1,453.84,261.13ZM411,237.38v31.68a15.88,15.88,0,1,1-31.76,0V237.38a80.59,80.59,0,0,1,31.76,0Zm-42.81,3v28.64a15.88,15.88,0,0,1-31.76,0v-7.93A81.21,81.21,0,0,1,368.22,240.42ZM359.31,389a27,27,0,0,0,14.44-9.7,27,27,0,0,0,15.88,10v7.86A80.23,80.23,0,0,1,359.31,389ZM275.82,108.44a131.27,131.27,0,0,1,23,58.81,28.57,28.57,0,0,1-57.13-.54V148a39.66,39.66,0,0,0,34.1-39.22Zm-68.19,97.5a39.69,39.69,0,0,0,28.57-19.08,39.69,39.69,0,0,0,28.57,19.08V258.3a28.57,28.57,0,0,1-57.14,0Zm68.19,52.36V205.94a39.64,39.64,0,0,0,23.85-12.67,131.24,131.24,0,0,1-23.92,67.29C275.79,259.81,275.82,259.06,275.82,258.3ZM230.68,151.41v15.3a28.57,28.57,0,1,1-57.14,0V148a39.67,39.67,0,0,0,28.57-19.07A39.65,39.65,0,0,0,230.68,148Zm-96.76,43.87a28.6,28.6,0,0,1-28.56-28.57V148a39.65,39.65,0,0,0,28.56-19.07A39.67,39.67,0,0,0,162.49,148v18.76A28.61,28.61,0,0,1,133.92,195.28Zm-68.18,0a28.6,28.6,0,0,1-28.56-28.12,131.17,131.17,0,0,1,23-58.74v.31A39.66,39.66,0,0,0,94.31,148v18.76A28.61,28.61,0,0,1,65.74,195.28Zm-5.52,10.66V258.3c0,.77,0,1.53.07,2.28a131.1,131.1,0,0,1-23.94-67.33A39.56,39.56,0,0,0,60.22,205.94Zm11,52.36V205.94a39.69,39.69,0,0,0,28.57-19.08,39.69,39.69,0,0,0,28.57,19.08V258.3a28.57,28.57,0,0,1-57.14,0Zm68.19-52.36A39.73,39.73,0,0,0,168,186.86a39.69,39.69,0,0,0,28.56,19.08V258.3a28.57,28.57,0,1,1-57.13,0Zm34.09,91.58a39.67,39.67,0,0,0,28.57-19.07,39.62,39.62,0,0,0,33.22,19.45,131,131,0,0,1-61.79,18.38ZM264.77,94.83v13.9a28.57,28.57,0,1,1-57.14,0V58.58A132.18,132.18,0,0,1,264.77,94.83ZM196.58,55.62v53.11a28.57,28.57,0,1,1-57.13,0V55.62a132.32,132.32,0,0,1,57.13,0Zm-68.18,3v50.15a28.57,28.57,0,0,1-57.14,0V94.82A132.16,132.16,0,0,1,128.4,58.58ZM100.69,297.9a39.64,39.64,0,0,0,33.23-19.45,39.67,39.67,0,0,0,28.57,19.07v18.76A131.1,131.1,0,0,1,100.69,297.9Z"/></svg>