<svg width="22" height="22" viewBox="0 0 22 22" fill="none" xmlns="http://www.w3.org/2000/svg">
<g clip-path="url(#clip0_78_1615)">
<path opacity="0.952" fill-rule="evenodd" clip-rule="evenodd" d="M4.4043 0.0214843C8.80146 0.0143229 13.1986 0.0214844 17.5957 0.0429687C18.3337 0.19365 18.8135 0.630498 19.0352 1.35352C19.0638 4.17513 19.0638 6.99673 19.0352 9.81836C18.8203 10.0475 18.6055 10.0475 18.3906 9.81836C18.3763 7.13999 18.362 4.46157 18.3477 1.7832C18.3188 1.23869 18.0395 0.902107 17.5098 0.773437C13.1699 0.74479 8.83008 0.74479 4.49024 0.773437C4.02021 0.885397 3.74091 1.17902 3.65234 1.6543C3.63802 4.37564 3.6237 7.09702 3.60938 9.81836C3.50018 10.0147 3.33546 10.0791 3.11524 10.0117C3.01958 9.959 2.95513 9.88019 2.92188 9.77539C2.89323 7.0397 2.89323 4.30405 2.92188 1.56836C3.0783 0.723276 3.57244 0.207652 4.4043 0.0214843Z" fill="#777E7A"/>
<path opacity="0.95" fill-rule="evenodd" clip-rule="evenodd" d="M21.9785 11.709C21.9785 11.9381 21.9785 12.1673 21.9785 12.3965C21.796 12.9582 21.4093 13.2805 20.8184 13.3633C20.5323 13.3848 20.2458 13.3919 19.959 13.3848C19.959 15.3327 19.959 17.2806 19.959 19.2285C20.2887 19.2214 20.6182 19.2285 20.9473 19.25C21.4665 19.3898 21.8102 19.7121 21.9785 20.2168C21.9785 20.446 21.9785 20.6752 21.9785 20.9043C21.8244 21.4235 21.4806 21.7458 20.9473 21.8711C14.3158 21.8998 7.68423 21.8998 1.05273 21.8711C0.490789 21.7459 0.132717 21.4093 -0.0214844 20.8613C-0.0214844 20.6322 -0.0214844 20.403 -0.0214844 20.1738C0.106923 19.7516 0.379059 19.458 0.794922 19.293C1.19247 19.2321 1.59351 19.2106 1.99805 19.2285C1.99805 17.2806 1.99805 15.3327 1.99805 13.3848C1.72553 13.3919 1.4534 13.3848 1.18164 13.3633C0.576043 13.2658 0.175003 12.9293 -0.0214844 12.3535C-0.0214844 12.1244 -0.0214844 11.8952 -0.0214844 11.666C0.150483 11.1434 0.508557 10.8211 1.05273 10.6992C7.65561 10.6706 14.2584 10.6706 20.8613 10.6992C21.4267 10.8302 21.7991 11.1667 21.9785 11.709ZM1.13867 11.4082C7.68427 11.401 14.2298 11.4082 20.7754 11.4297C21.1667 11.5749 21.3171 11.8542 21.2266 12.2676C21.1484 12.4754 20.998 12.5971 20.7754 12.6328C14.2584 12.6615 7.74155 12.6615 1.22461 12.6328C0.715228 12.4515 0.579163 12.1149 0.816406 11.6231C0.909644 11.5232 1.01707 11.4516 1.13867 11.4082ZM2.72852 13.3848C3.08659 13.3848 3.44466 13.3848 3.80273 13.3848C3.80273 15.3327 3.80273 17.2806 3.80273 19.2285C3.44466 19.2285 3.08659 19.2285 2.72852 19.2285C2.72852 17.2806 2.72852 15.3327 2.72852 13.3848ZM4.5332 13.3848C5.40689 13.3848 6.28061 13.3848 7.1543 13.3848C7.1543 15.3327 7.1543 17.2806 7.1543 19.2285C6.28061 19.2285 5.40689 19.2285 4.5332 19.2285C4.5332 17.2806 4.5332 15.3327 4.5332 13.3848ZM7.88477 13.3848C8.24282 13.3848 8.60093 13.3848 8.95898 13.3848C8.95898 15.3327 8.95898 17.2806 8.95898 19.2285C8.60093 19.2285 8.24282 19.2285 7.88477 19.2285C7.88477 17.2806 7.88477 15.3327 7.88477 13.3848ZM9.68945 13.3848C10.5488 13.3848 11.4082 13.3848 12.2676 13.3848C12.2676 15.3327 12.2676 17.2806 12.2676 19.2285C11.4082 19.2285 10.5488 19.2285 9.68945 19.2285C9.68945 17.2806 9.68945 15.3327 9.68945 13.3848ZM12.998 13.3848C13.3561 13.3848 13.7142 13.3848 14.0723 13.3848C14.0723 15.3327 14.0723 17.2806 14.0723 19.2285C13.7142 19.2285 13.3561 19.2285 12.998 19.2285C12.998 17.2806 12.998 15.3327 12.998 13.3848ZM14.8027 13.3848C15.6764 13.3848 16.5501 13.3848 17.4238 13.3848C17.4238 15.3327 17.4238 17.2806 17.4238 19.2285C16.5501 19.2285 15.6764 19.2285 14.8027 19.2285C14.8027 17.2806 14.8027 15.3327 14.8027 13.3848ZM18.1543 13.3848C18.5124 13.3848 18.8705 13.3848 19.2285 13.3848C19.2285 15.3327 19.2285 17.2806 19.2285 19.2285C18.8705 19.2285 18.5124 19.2285 18.1543 19.2285C18.1543 17.2806 18.1543 15.3327 18.1543 13.3848ZM1.26758 19.916C7.57685 19.9208 13.8861 19.9208 20.1953 19.916C20.5869 19.8649 20.9164 19.9795 21.1836 20.2598C21.3467 20.6562 21.2393 20.9499 20.8613 21.1406C14.2871 21.1693 7.71289 21.1693 1.13867 21.1406C0.778998 20.9727 0.642928 20.6934 0.730469 20.3027C0.84706 20.0776 1.0261 19.9487 1.26758 19.916Z" fill="#777E7A"/>
</g>
<defs>
<clipPath id="clip0_78_1615">
<rect width="22" height="22" fill="white"/>
</clipPath>
</defs>
</svg>
