<svg width="24" height="24" viewBox="0 0 24 24" fill="none" xmlns="http://www.w3.org/2000/svg">
<g clip-path="url(#clip0_78_1723)">
<path opacity="0.958" fill-rule="evenodd" clip-rule="evenodd" d="M11.7422 -0.0234375C11.8984 -0.0234375 12.0547 -0.0234375 12.2109 -0.0234375C12.2875 0.0455471 12.3579 0.123672 12.4219 0.210938C12.4532 0.773438 12.4532 1.33594 12.4219 1.89844C12.2462 2.18167 12.004 2.25198 11.6953 2.10938C11.6227 2.05247 11.5681 1.98216 11.5313 1.89844C11.5 1.33594 11.5 0.773438 11.5313 0.210938C11.5953 0.123672 11.6656 0.0455471 11.7422 -0.0234375Z" fill="#777E7A"/>
<path opacity="0.923" fill-rule="evenodd" clip-rule="evenodd" d="M9.16361 1.0078C9.34047 0.996705 9.51236 1.02014 9.67923 1.07811C9.90775 1.40221 10.1187 1.73815 10.312 2.08593C10.5527 2.41681 10.5293 2.72149 10.2417 2.99999C10.0472 3.09228 9.85975 3.07665 9.67923 2.95311C9.39119 2.52546 9.13337 2.08015 8.9058 1.61718C8.83881 1.34531 8.92473 1.14218 9.16361 1.0078Z" fill="#777E7A"/>
<path opacity="0.923" fill-rule="evenodd" clip-rule="evenodd" d="M14.4149 1.00781C14.8833 0.952827 15.0942 1.15595 15.0477 1.61718C14.8259 2.04512 14.5915 2.46699 14.3446 2.88281C14.0617 3.14398 13.7961 3.12836 13.5477 2.83593C13.4782 2.68582 13.4626 2.52957 13.5009 2.36718C13.704 2.00781 13.9071 1.64843 14.1102 1.28906C14.1827 1.15571 14.2842 1.06196 14.4149 1.00781Z" fill="#777E7A"/>
<path opacity="0.949" fill-rule="evenodd" clip-rule="evenodd" d="M7.61767 23.9765C7.35203 23.9765 7.08644 23.9765 6.8208 23.9765C5.36163 23.5647 3.89289 23.1663 2.41455 22.7812C1.48487 22.5077 1.08643 21.8905 1.21923 20.9297C1.95578 18.1084 2.72141 15.2959 3.51611 12.4922C3.97572 11.5091 4.70228 10.8059 5.6958 10.3828C6.17486 9.14876 6.69048 7.93001 7.24267 6.72654C7.11344 6.52456 7.07434 6.30584 7.12548 6.07029C7.24455 5.60956 7.38517 5.15642 7.54736 4.71092C7.72605 4.50772 7.95259 4.41397 8.22705 4.42967C9.10886 4.62669 9.98388 4.85323 10.852 5.10935C11.1326 5.28059 11.2733 5.53057 11.2739 5.85935C11.196 6.36645 11.0632 6.85864 10.8755 7.33592C10.7273 7.45212 10.6179 7.59275 10.5474 7.75779C10.4332 9.03078 10.2691 10.2964 10.0552 11.5547C10.8393 12.5545 11.0971 13.6795 10.8286 14.9297C10.0881 17.698 9.33813 20.4636 8.57861 23.2265C8.34363 23.5953 8.02333 23.8453 7.61767 23.9765ZM8.3208 5.46092C8.95975 5.62456 9.60039 5.78079 10.2427 5.92967C10.203 6.18223 10.1483 6.43221 10.0786 6.67967C9.81864 6.70526 9.66241 6.84589 9.60986 7.10154C9.57086 7.47575 9.54742 7.85075 9.53955 8.22654C8.91377 8.24215 8.28878 8.2265 7.66455 8.17967C7.9248 7.65921 8.15917 7.12793 8.36767 6.58592C8.34053 6.41042 8.26239 6.26196 8.1333 6.1406C8.20694 5.91626 8.26942 5.68971 8.3208 5.46092ZM7.24267 9.21092C7.96141 9.21092 8.68019 9.21092 9.39892 9.21092C9.32561 9.87265 9.22403 10.5289 9.09423 11.1797C8.56164 11.1189 8.35853 11.3532 8.48486 11.8828C8.53956 11.9375 8.59422 11.9922 8.64892 12.0469C8.86295 12.1238 9.08167 12.1863 9.30517 12.2344C9.75138 12.7837 9.97009 13.4165 9.96142 14.1328C8.14145 13.6778 6.32894 13.1934 4.52392 12.6797C4.92198 11.9297 5.53136 11.4531 6.35205 11.25C6.39109 11.2109 6.43019 11.1718 6.46923 11.1328C6.7278 10.491 6.98561 9.85034 7.24267 9.21092ZM4.1958 13.664C6.02908 14.1263 7.8572 14.6106 9.68017 15.1172C9.7203 15.2409 9.71252 15.3659 9.65673 15.4922C9.14233 17.3466 8.65014 19.206 8.18017 21.0703C6.31909 20.5933 4.4597 20.1089 2.60205 19.6172C3.12616 17.63 3.65741 15.6456 4.1958 13.664ZM5.97705 16.5703C6.69447 16.5455 7.01481 16.8893 6.93798 17.6015C6.68205 18.1296 6.28361 18.278 5.74267 18.0469C5.33819 17.7246 5.26788 17.3418 5.53173 16.8984C5.66416 16.7589 5.81261 16.6496 5.97705 16.5703ZM2.3208 20.5547C4.18814 21.041 6.0475 21.5488 7.89892 22.0781C7.83358 22.269 7.77892 22.4643 7.73486 22.664C7.56353 22.972 7.30572 23.0736 6.96142 22.9687C5.43438 22.5831 3.91873 22.1612 2.41455 21.7031C2.19982 21.5419 2.12951 21.331 2.20361 21.0703C2.25752 20.901 2.29658 20.7291 2.3208 20.5547Z" fill="#777E7A"/>
<path opacity="0.949" fill-rule="evenodd" clip-rule="evenodd" d="M17.1328 23.9765C16.8672 23.9765 16.6016 23.9765 16.3359 23.9765C15.9303 23.8453 15.61 23.5953 15.375 23.2265C14.6031 20.467 13.8531 17.7014 13.125 14.9296C12.8565 13.6795 13.1144 12.5545 13.8984 11.5546C13.6845 10.2964 13.5204 9.03076 13.4062 7.75777C13.3357 7.59272 13.2263 7.4521 13.0781 7.3359C12.8904 6.85861 12.7576 6.36643 12.6797 5.85933C12.6803 5.53055 12.821 5.28057 13.1016 5.10933C13.9697 4.85321 14.8447 4.62667 15.7266 4.42965C16.086 4.42549 16.3439 4.58174 16.5 4.8984C16.6021 5.29111 16.7115 5.68172 16.8281 6.07027C16.8793 6.30582 16.8402 6.52454 16.7109 6.72652C17.2631 7.92999 17.7787 9.14874 18.2578 10.3828C19.2513 10.8059 19.9779 11.509 20.4375 12.4921C21.2322 15.2959 21.9978 18.1084 22.7344 20.9296C22.8495 21.8791 22.4511 22.4963 21.5391 22.7812C20.0607 23.1663 18.592 23.5647 17.1328 23.9765ZM15.4922 5.4609C15.5683 5.45433 15.623 5.4856 15.6562 5.55465C15.7 5.75307 15.7547 5.9484 15.8203 6.14058C15.6573 6.28608 15.587 6.46576 15.6094 6.67965C15.8231 7.18524 16.0497 7.68521 16.2891 8.17965C15.6648 8.22647 15.0398 8.24213 14.4141 8.22652C14.4062 7.85072 14.3828 7.47572 14.3438 7.10152C14.2912 6.84586 14.135 6.70524 13.875 6.67965C13.8053 6.43219 13.7506 6.18221 13.7109 5.92965C14.3171 5.80163 14.9108 5.64535 15.4922 5.4609ZM14.5547 9.2109C15.2736 9.20307 15.9923 9.2109 16.7109 9.23433C16.9748 9.86377 17.2326 10.4966 17.4844 11.1328C17.6475 11.2853 17.8429 11.3713 18.0703 11.3906C18.6526 11.6838 19.1057 12.1135 19.4297 12.6796C17.6247 13.1934 15.8122 13.6778 13.9922 14.1328C13.9835 13.4165 14.2022 12.7837 14.6484 12.2343C14.8719 12.1863 15.0907 12.1238 15.3047 12.0468C15.6165 11.7676 15.6165 11.4863 15.3047 11.2031C15.1566 11.1299 15.0082 11.1221 14.8594 11.1796C14.7296 10.529 14.628 9.87272 14.5547 9.2109ZM19.5703 13.664C19.6474 13.654 19.7177 13.6696 19.7812 13.7109C20.2974 15.6663 20.8209 17.6195 21.3516 19.5703C19.5025 20.1068 17.6431 20.6068 15.7734 21.0703C15.2678 19.1156 14.7522 17.1625 14.2266 15.2109C14.2422 15.1796 14.2578 15.1484 14.2734 15.1171C16.0468 14.6403 17.8124 14.1559 19.5703 13.664ZM17.5547 16.5703C18.3907 16.5853 18.6953 16.9915 18.4688 17.789C18.1316 18.1974 17.7332 18.2678 17.2734 18C16.8265 17.4117 16.9202 16.9351 17.5547 16.5703ZM21.5391 20.5546C21.7177 20.8165 21.788 21.1134 21.75 21.4453C21.6613 21.6121 21.5285 21.7292 21.3516 21.7968C19.9005 22.1948 18.4474 22.5854 16.9922 22.9687C16.6479 23.0736 16.3901 22.972 16.2188 22.664C16.1747 22.4642 16.12 22.269 16.0547 22.0781C17.8836 21.5624 19.7117 21.0545 21.5391 20.5546Z" fill="#777E7A"/>
<path opacity="0.896" fill-rule="evenodd" clip-rule="evenodd" d="M7.47653 10.7578C7.96773 10.7877 8.14745 11.0378 8.01559 11.5078C7.85443 11.7225 7.6435 11.7929 7.38278 11.7188C7.11986 11.5651 7.03393 11.3386 7.12497 11.0391C7.22204 10.9168 7.33923 10.823 7.47653 10.7578Z" fill="#777E7A"/>
<path opacity="0.896" fill-rule="evenodd" clip-rule="evenodd" d="M16.3358 10.7578C16.7763 10.7944 16.9404 11.0288 16.828 11.4609C16.6523 11.7442 16.4101 11.8145 16.1014 11.6719C15.8632 11.4613 15.8241 11.2191 15.9842 10.9453C16.0899 10.8516 16.2071 10.7891 16.3358 10.7578Z" fill="#777E7A"/>
<path opacity="0.944" fill-rule="evenodd" clip-rule="evenodd" d="M5.83538 15.5859C7.30332 15.5616 7.99862 16.2804 7.92132 17.7422C7.60834 18.7703 6.91304 19.2313 5.83538 19.125C4.69871 18.7818 4.23779 18.0239 4.45257 16.8515C4.69885 16.1911 5.15978 15.7692 5.83538 15.5859ZM5.97601 16.5703C5.81157 16.6496 5.66312 16.7589 5.5307 16.8984C5.26684 17.3418 5.33715 17.7246 5.74163 18.0469C6.28257 18.278 6.68101 18.1296 6.93695 17.6015C7.01377 16.8893 6.69343 16.5455 5.97601 16.5703Z" fill="#777E7A"/>
<path opacity="0.945" fill-rule="evenodd" clip-rule="evenodd" d="M17.4601 15.5859C18.5845 15.5005 19.2799 16.0005 19.546 17.0859C19.6188 18.1514 19.1422 18.8311 18.1163 19.1249C17.0387 19.2312 16.3434 18.7702 16.0304 17.7421C15.9119 16.6178 16.3885 15.8991 17.4601 15.5859ZM17.5538 16.5703C16.9194 16.9351 16.8256 17.4117 17.2726 17.9999C17.7323 18.2677 18.1308 18.1974 18.4679 17.789C18.6945 16.9915 18.3898 16.5853 17.5538 16.5703Z" fill="#777E7A"/>
</g>
<defs>
<clipPath id="clip0_78_1723">
<rect width="24" height="24" fill="white"/>
</clipPath>
</defs>
</svg>
