<svg width="24" height="24" viewBox="0 0 24 24" fill="none" xmlns="http://www.w3.org/2000/svg">
<g clip-path="url(#clip0_78_1624)">
<path opacity="0.962" fill-rule="evenodd" clip-rule="evenodd" d="M8.64844 0.351562C11.1172 0.34375 13.586 0.351563 16.0547 0.375C16.4375 0.507811 16.6953 0.765623 16.8281 1.14844C16.8594 1.86719 16.8594 2.58594 16.8281 3.30469C16.7825 3.45839 16.7122 3.59901 16.6172 3.72656C16.8462 4.06493 16.9087 4.43212 16.8047 4.82812C17.0699 4.85151 17.3355 4.85934 17.6016 4.85156C17.5937 3.50772 17.6016 2.16397 17.625 0.820312C17.7109 0.609375 17.8594 0.460937 18.0703 0.375C19.2578 0.34375 20.4453 0.34375 21.6328 0.375C21.8437 0.460937 21.9922 0.609375 22.0781 0.820312C22.1016 2.16397 22.1094 3.50772 22.1016 4.85156C22.8165 4.72055 23.3087 4.98619 23.5781 5.64844C23.6094 11.3672 23.6094 17.0859 23.5781 22.8047C23.4453 23.1875 23.1875 23.4453 22.8047 23.5781C17.586 23.6094 12.3672 23.6094 7.14844 23.5781C6.76561 23.4453 6.5078 23.1875 6.375 22.8047C6.35156 22.0705 6.34373 21.3361 6.35156 20.6016C4.21114 20.668 2.51583 19.8399 1.26562 18.1172C0.956067 17.5449 0.659194 16.9668 0.375 16.3828C0.34375 15.4453 0.34375 14.5078 0.375 13.5703C0.659194 12.9863 0.956067 12.4082 1.26562 11.8359C2.516 10.1131 4.21131 9.28505 6.35156 9.35156C6.34373 8.11711 6.35156 6.8827 6.375 5.64844C6.65859 4.97901 7.16639 4.70559 7.89844 4.82812C7.79442 4.43212 7.85691 4.06493 8.08594 3.72656C7.99092 3.59901 7.92061 3.45839 7.875 3.30469C7.84373 2.58594 7.84373 1.86719 7.875 1.14844C8.01652 0.764794 8.27433 0.499172 8.64844 0.351562ZM8.97656 1.10156C11.2266 1.09375 13.4766 1.10156 15.7266 1.125C15.9375 1.14844 16.0547 1.26562 16.0781 1.47656C16.1094 1.97656 16.1094 2.47656 16.0781 2.97656C16.0547 3.1875 15.9375 3.30469 15.7266 3.32812C13.4766 3.35938 11.2266 3.35938 8.97656 3.32812C8.83622 3.30911 8.73464 3.23879 8.67187 3.11719C8.62017 2.82395 8.59673 2.52707 8.60156 2.22656C8.60306 1.95146 8.61867 1.67803 8.64844 1.40625C8.70098 1.23999 8.81034 1.13843 8.97656 1.10156ZM18.3516 1.10156C19.3515 1.10156 20.3516 1.10156 21.3516 1.10156C21.3516 2.35156 21.3516 3.60156 21.3516 4.85156C21.1634 4.85934 20.9759 4.85151 20.7891 4.82812C20.3275 4.3587 19.8587 3.89776 19.3828 3.44531C19.1797 3.61719 18.9922 3.80469 18.8203 4.00781C19.0774 4.28838 19.3431 4.56182 19.6172 4.82812C19.1956 4.85156 18.7737 4.85934 18.3516 4.85156C18.3516 3.60156 18.3516 2.35156 18.3516 1.10156ZM8.97656 4.10156C11.2266 4.09375 13.4766 4.10156 15.7266 4.125C16.0475 4.21245 16.1334 4.40776 15.9844 4.71094C15.9071 4.76798 15.8212 4.80703 15.7266 4.82812C13.4766 4.85939 11.2266 4.85939 8.97656 4.82812C8.65561 4.74066 8.56969 4.54536 8.71875 4.24219C8.80669 4.19022 8.89261 4.14334 8.97656 4.10156ZM7.47656 5.60156C12.4766 5.59373 17.4766 5.60156 22.4766 5.625C22.6875 5.64844 22.8047 5.76562 22.8281 5.97656C22.8516 6.60136 22.8594 7.22639 22.8516 7.85156C17.6016 7.85156 12.3516 7.85156 7.10156 7.85156C7.09373 7.22639 7.10156 6.60136 7.125 5.97656C7.15687 5.76511 7.27406 5.64014 7.47656 5.60156ZM7.10156 8.60156C12.3516 8.60156 17.6016 8.60156 22.8516 8.60156C22.8594 13.2266 22.8516 17.8516 22.8281 22.4766C22.8047 22.6875 22.6875 22.8047 22.4766 22.8281C17.4765 22.8594 12.4766 22.8594 7.47656 22.8281C7.26562 22.8047 7.14844 22.6875 7.125 22.4766C7.10156 21.8205 7.09373 21.1642 7.10156 20.5078C8.48166 20.2086 9.60666 19.5055 10.4766 18.3984C10.8889 18.9515 11.3888 19.4047 11.9766 19.7578C12.0029 20.3694 11.9716 20.9788 11.8828 21.5859C11.8984 21.6015 11.9141 21.6172 11.9297 21.6328C12.2578 21.4687 12.5859 21.3047 12.9141 21.1406C13.472 20.9066 14.0189 20.9301 14.5547 21.2109C14.7119 21.9226 15.1493 22.2117 15.8672 22.0781C16.153 21.9315 16.4265 21.7674 16.6875 21.5859C17.2455 22.1378 17.8939 22.255 18.6328 21.9375C19.3335 21.6221 19.607 21.083 19.4531 20.3203C19.3432 19.8337 19.226 19.3493 19.1016 18.8672C20.5037 17.2581 20.9334 15.4144 20.3906 13.3359C19.6027 11.0863 18.0323 9.76598 15.6797 9.375C13.5416 9.17053 11.7994 9.89709 10.4531 11.5547C9.59737 10.4429 8.48016 9.73973 7.10156 9.44531C7.10156 9.16406 7.10156 8.88281 7.10156 8.60156ZM5.97656 10.1016C8.49145 10.2965 10.0774 11.609 10.7344 14.0391C11.0459 16.5338 10.0849 18.3385 7.85156 19.4531C5.65406 20.2221 3.77123 19.7455 2.20312 18.0234C1.94122 17.6718 1.71465 17.2968 1.52344 16.8984C1.75006 16.8636 1.97663 16.8323 2.20312 16.8047C3.35185 18.7417 5.03156 19.4527 7.24219 18.9375C8.80476 18.3677 9.75009 17.2662 10.0781 15.6328C10.272 13.4543 9.37359 11.9309 7.38281 11.0625C5.12503 10.4656 3.39849 11.1609 2.20312 13.1484C1.97663 13.1208 1.75006 13.0895 1.52344 13.0547C2.44178 11.213 3.92616 10.2286 5.97656 10.1016ZM14.9297 10.1016C17.4704 10.2756 19.0719 11.5881 19.7344 14.0391C19.9777 15.4245 19.6965 16.6902 18.8906 17.8359C18.8054 17.5427 18.7351 17.2458 18.6797 16.9453C18.855 16.5054 18.9877 16.0523 19.0781 15.5859C19.2658 13.8916 18.6798 12.54 17.3203 11.5312C16.0553 10.7684 14.7272 10.6434 13.3359 11.1562C12.4298 11.5467 11.7502 12.1795 11.2969 13.0547C11.1857 12.7934 11.0685 12.5355 10.9453 12.2812C11.926 10.916 13.2541 10.1894 14.9297 10.1016ZM5.92969 11.6016C7.7243 11.7321 8.84147 12.6696 9.28125 14.4141C9.42539 16.4569 8.51133 17.746 6.53906 18.2812C4.82578 18.4441 3.5992 17.7488 2.85938 16.1953C2.31962 14.3921 2.84305 12.9937 4.42969 12C4.90922 11.7642 5.40923 11.6314 5.92969 11.6016ZM14.9297 11.6016C16.7243 11.7321 17.8415 12.6696 18.2812 14.4141C18.3239 14.8239 18.3082 15.2302 18.2344 15.6328C17.7762 15.039 17.1747 14.8281 16.4297 15C15.9458 15.1403 15.4771 15.3201 15.0234 15.5391C14.4046 14.8934 13.7171 14.8074 12.9609 15.2812C12.5351 15.7348 12.2929 16.2738 12.2344 16.8984C11.5434 15.7852 11.4653 14.629 12 13.4297C12.6563 12.301 13.6329 11.6917 14.9297 11.6016ZM1.10156 13.8516C1.35156 13.8516 1.60156 13.8516 1.85156 13.8516C1.85156 14.6016 1.85156 15.3516 1.85156 16.1016C1.60156 16.1016 1.35156 16.1016 1.10156 16.1016C1.10156 15.3516 1.10156 14.6016 1.10156 13.8516ZM13.6641 15.7734C13.8536 15.748 14.0255 15.7871 14.1797 15.8906C14.0078 15.9688 13.836 16.0469 13.6641 16.125C13.7724 16.3721 13.8896 16.6142 14.0156 16.8516C14.8428 16.481 15.6787 16.1295 16.5234 15.7969C17.1094 15.6368 17.5079 15.8321 17.7187 16.3828C18.0502 17.8104 18.3706 19.2401 18.6797 20.6719C18.6892 20.8715 18.6111 21.0277 18.4453 21.1406C18.1424 21.3028 17.8299 21.334 17.5078 21.2344C17.4047 21.1297 17.3188 21.0125 17.25 20.8828C17.1139 19.7751 16.9967 18.6657 16.8984 17.5547C16.6326 17.5669 16.3669 17.5825 16.1016 17.6016C16.1835 18.6356 16.2929 19.6669 16.4297 20.6953C16.4246 20.7395 16.409 20.7785 16.3828 20.8125C16.1404 20.9571 15.906 21.1134 15.6797 21.2812C15.5089 21.3449 15.4073 21.2902 15.375 21.1172C15.3516 19.6954 15.3437 18.2735 15.3516 16.8516C15.1016 16.8516 14.8515 16.8516 14.6016 16.8516C14.6016 18.0078 14.6016 19.164 14.6016 20.3203C14.0227 20.1375 13.4446 20.1375 12.8672 20.3203C12.8516 20.2344 12.8359 20.1484 12.8203 20.0625C12.9086 18.9611 12.9946 17.8596 13.0781 16.7578C13.131 16.3393 13.3263 16.0112 13.6641 15.7734ZM11.2734 16.8984C11.5048 17.3125 11.7939 17.6875 12.1406 18.0234C12.1624 18.306 12.1468 18.5873 12.0937 18.8672C11.6623 18.5139 11.2795 18.1155 10.9453 17.6719C11.0742 17.4219 11.1836 17.1641 11.2734 16.8984Z" fill="#777E7A"/>
<path opacity="0.894" fill-rule="evenodd" clip-rule="evenodd" d="M19.3359 1.57031C19.9882 2.15209 20.621 2.76146 21.2344 3.39844C21.2657 3.42969 21.2657 3.46094 21.2344 3.49219C21.0703 3.65625 20.9063 3.82031 20.7422 3.98438C20.7109 4.01563 20.6797 4.01563 20.6484 3.98438C20.0469 3.38281 19.4453 2.78125 18.8438 2.17969C18.8125 2.14844 18.8125 2.11719 18.8438 2.08594C19.0174 1.9202 19.1814 1.74833 19.3359 1.57031Z" fill="#777E7A"/>
<path fill-rule="evenodd" clip-rule="evenodd" d="M10.4766 1.85156C12.1016 1.85156 13.7265 1.85156 15.3516 1.85156C15.3516 2.10156 15.3516 2.35156 15.3516 2.60156C13.7265 2.60156 12.1016 2.60156 10.4766 2.60156C10.4766 2.35156 10.4766 2.10156 10.4766 1.85156Z" fill="#777E7A"/>
<path fill-rule="evenodd" clip-rule="evenodd" d="M8.60156 6.35156C8.85155 6.35156 9.10158 6.35156 9.35156 6.35156C9.35156 6.60155 9.35156 6.85158 9.35156 7.10156C9.10158 7.10156 8.85155 7.10156 8.60156 7.10156C8.60156 6.85158 8.60156 6.60155 8.60156 6.35156Z" fill="#777E7A"/>
<path fill-rule="evenodd" clip-rule="evenodd" d="M10.1016 6.35156C10.3515 6.35156 10.6016 6.35156 10.8516 6.35156C10.8516 6.60155 10.8516 6.85158 10.8516 7.10156C10.6016 7.10156 10.3515 7.10156 10.1016 7.10156C10.1016 6.85158 10.1016 6.60155 10.1016 6.35156Z" fill="#777E7A"/>
<path fill-rule="evenodd" clip-rule="evenodd" d="M11.6016 6.35156C11.8515 6.35156 12.1016 6.35156 12.3516 6.35156C12.3516 6.60155 12.3516 6.85158 12.3516 7.10156C12.1016 7.10156 11.8515 7.10156 11.6016 7.10156C11.6016 6.85158 11.6016 6.60155 11.6016 6.35156Z" fill="#777E7A"/>
<path fill-rule="evenodd" clip-rule="evenodd" d="M14.6016 6.35156C15.3516 6.35156 16.1016 6.35156 16.8516 6.35156C16.8516 6.60155 16.8516 6.85158 16.8516 7.10156C16.1016 7.10156 15.3516 7.10156 14.6016 7.10156C14.6016 6.85158 14.6016 6.60155 14.6016 6.35156Z" fill="#777E7A"/>
<path fill-rule="evenodd" clip-rule="evenodd" d="M17.6016 6.35156C18.6015 6.35156 19.6016 6.35156 20.6016 6.35156C20.6016 6.60155 20.6016 6.85158 20.6016 7.10156C19.6016 7.10156 18.6015 7.10156 17.6016 7.10156C17.6016 6.85158 17.6016 6.60155 17.6016 6.35156Z" fill="#777E7A"/>
</g>
<defs>
<clipPath id="clip0_78_1624">
<rect width="24" height="24" fill="white"/>
</clipPath>
</defs>
</svg>
