<svg width="15" height="15" viewBox="0 0 15 15" fill="none" xmlns="http://www.w3.org/2000/svg">
<g clip-path="url(#clip0_2_1892)">
<path d="M0 3.05176e-05V15.0001H3.42773V14.9708C2.36389 14.925 1.45793 14.0289 1.2722 13.0079C1.18389 12.5224 1.20589 11.9738 1.25481 11.4844C1.38258 10.2067 1.66433 8.80437 2.66717 7.90639C3.13937 7.48358 4.03556 7.07424 4.6875 7.25949C5.0598 7.36528 5.38477 7.67243 5.71289 7.86763C6.2915 8.21184 7.0273 8.43851 7.70508 8.37397C8.20354 8.32651 8.73665 8.178 9.16992 7.92177C9.63926 7.64421 10.063 7.22278 10.6348 7.23681C12.7624 7.28893 13.5709 9.62264 13.7135 11.3965C13.7441 11.778 13.7935 12.1883 13.7486 12.5684C13.61 13.7422 12.8771 14.9431 11.543 14.9708V15.0001H15V3.05176e-05H7.85156V0.0293274C8.42786 0.0412249 9.03727 0.325033 9.49219 0.663008C11.3234 2.0235 11.5107 4.60516 9.90234 6.21098C9.60349 6.50937 9.26186 6.74954 8.87695 6.92307C8.45915 7.11139 7.9899 7.23564 7.5293 7.23637C5.89441 7.23901 4.37118 6.24854 3.90899 4.62894C3.34822 2.66375 4.72011 0.0752246 6.94336 0.0293274L6.29883 3.05176e-05H4.89258H0Z" fill="white"/>
<path d="M6.94294 0.0124933C6.38357 0.0886351 5.86238 0.255139 5.39021 0.571893C3.29009 1.98076 3.24318 5.12562 5.30231 6.59448C5.65678 6.84734 6.05246 7.02518 6.47419 7.13012C6.88502 7.23236 7.34094 7.27851 7.76325 7.22803C8.33114 7.16009 8.86001 6.99023 9.34528 6.68527C9.73227 6.44208 10.075 6.11023 10.3447 5.74223C12.1743 3.24605 10.0213 -0.406531 6.94294 0.0124933Z" fill="#777E7A"/>
<path d="M7.00176 0.920788C5.33187 1.16001 4.29816 2.88869 4.80534 4.48247C4.95224 4.94416 5.24998 5.32335 5.59551 5.6532C5.86487 5.91034 6.20755 6.1003 6.56231 6.21025C6.98837 6.34226 7.44165 6.35864 7.88067 6.29082C8.25209 6.23345 8.59615 6.08923 8.90606 5.87864C9.24297 5.64968 9.51728 5.35276 9.7353 5.00981C10.952 3.09602 9.17629 0.609268 7.00176 0.920788Z" fill="white"/>
<path d="M4.18945 7.24879C1.95307 7.54604 1.23047 9.98973 1.23047 11.9532C1.23047 12.9185 1.30378 13.7988 2.10938 14.4591C2.90314 15.1097 3.93574 15.0001 4.89258 15.0001H9.375C10.1434 15.0001 10.9916 15.1 11.748 14.9573C12.009 14.9081 12.2773 14.8235 12.5098 14.6942C13.9585 13.8884 13.8554 12.1698 13.6355 10.752C13.5473 10.1837 13.4166 9.60107 13.1614 9.08208C12.9344 8.6203 12.6777 8.18574 12.2754 7.85407C11.7839 7.44886 10.9061 7.07416 10.2539 7.25949C9.85415 7.37307 9.49491 7.71227 9.14062 7.92177C8.61296 8.23382 7.88077 8.44341 7.26562 8.3706C6.73263 8.3075 6.20555 8.14329 5.74219 7.86763C5.22873 7.56218 4.82543 7.16427 4.18945 7.24879Z" fill="#777E7A"/>
<path d="M4.24809 8.15712C2.55546 8.3968 2.13871 10.5589 2.13871 11.9825C2.13871 12.6565 2.12278 13.3289 2.72465 13.7766C3.39022 14.2717 4.40526 14.1212 5.18559 14.1212H9.31645C10.058 14.1212 10.8734 14.2112 11.6016 14.0564C13.2717 13.7014 12.9242 11.5455 12.6232 10.3126C12.5484 10.0062 12.4555 9.68452 12.308 9.40435C12.1211 9.04936 11.906 8.70389 11.5723 8.46811C11.3165 8.28738 10.8401 8.07864 10.5176 8.15689C10.0548 8.26916 9.61853 8.73123 9.16996 8.92309C8.36213 9.26856 7.48073 9.37916 6.62113 9.18682C6.0874 9.06738 5.59 8.84786 5.12699 8.56037C4.86095 8.39516 4.58184 8.10987 4.24809 8.15712Z" fill="white"/>
</g>
<defs>
<clipPath id="clip0_2_1892">
<rect width="15" height="15" fill="white"/>
</clipPath>
</defs>
</svg>
