<svg width="14" height="14" viewBox="0 0 14 14" fill="none" xmlns="http://www.w3.org/2000/svg">
<path d="M11.0833 1.1667H10.5V0.583365C10.5 0.428655 10.4385 0.280282 10.3291 0.170885C10.2197 0.0614888 10.0714 3.05176e-05 9.91667 3.05176e-05C9.76196 3.05176e-05 9.61358 0.0614888 9.50419 0.170885C9.39479 0.280282 9.33333 0.428655 9.33333 0.583365V1.1667H4.66667V0.583365C4.66667 0.428655 4.60521 0.280282 4.49581 0.170885C4.38642 0.0614888 4.23804 3.05176e-05 4.08333 3.05176e-05C3.92862 3.05176e-05 3.78025 0.0614888 3.67085 0.170885C3.56146 0.280282 3.5 0.428655 3.5 0.583365V1.1667H2.91667C2.1434 1.16763 1.40208 1.47521 0.855295 2.022C0.308514 2.56878 0.00092625 3.31011 0 4.08337L0 11.0834C0.00092625 11.8566 0.308514 12.598 0.855295 13.1448C1.40208 13.6915 2.1434 13.9991 2.91667 14.0001H11.0833C11.8566 13.9991 12.5979 13.6915 13.1447 13.1448C13.6915 12.598 13.9991 11.8566 14 11.0834V4.08337C13.9991 3.31011 13.6915 2.56878 13.1447 2.022C12.5979 1.47521 11.8566 1.16763 11.0833 1.1667ZM1.16667 4.08337C1.16667 3.61924 1.35104 3.17412 1.67923 2.84593C2.00742 2.51774 2.45254 2.33337 2.91667 2.33337H11.0833C11.5475 2.33337 11.9926 2.51774 12.3208 2.84593C12.649 3.17412 12.8333 3.61924 12.8333 4.08337V4.66671H1.16667V4.08337ZM11.0833 12.8334H2.91667C2.45254 12.8334 2.00742 12.649 1.67923 12.3208C1.35104 11.9926 1.16667 11.5475 1.16667 11.0834V5.83337H12.8333V11.0834C12.8333 11.5475 12.649 11.9926 12.3208 12.3208C11.9926 12.649 11.5475 12.8334 11.0833 12.8334Z" fill="#777E7A"/>
<path d="M7 9.62497C7.48325 9.62497 7.875 9.23322 7.875 8.74997C7.875 8.26672 7.48325 7.87497 7 7.87497C6.51675 7.87497 6.125 8.26672 6.125 8.74997C6.125 9.23322 6.51675 9.62497 7 9.62497Z" fill="#777E7A"/>
<path d="M4.08301 9.62497C4.56626 9.62497 4.95801 9.23322 4.95801 8.74997C4.95801 8.26672 4.56626 7.87497 4.08301 7.87497C3.59976 7.87497 3.20801 8.26672 3.20801 8.74997C3.20801 9.23322 3.59976 9.62497 4.08301 9.62497Z" fill="#777E7A"/>
<path d="M9.91699 9.62497C10.4002 9.62497 10.792 9.23322 10.792 8.74997C10.792 8.26672 10.4002 7.87497 9.91699 7.87497C9.43374 7.87497 9.04199 8.26672 9.04199 8.74997C9.04199 9.23322 9.43374 9.62497 9.91699 9.62497Z" fill="#777E7A"/>
</svg>
