<svg width="42" height="42" viewBox="0 0 42 42" fill="none" xmlns="http://www.w3.org/2000/svg">
<g clip-path="url(#clip0_41_4296)">
<path d="M26.25 13H15.75C14.7558 13.0012 13.8027 13.3967 13.0997 14.0997C12.3967 14.8027 12.0012 15.7558 12 16.75V25.75C12.0012 26.7442 12.3967 27.6973 13.0997 28.4003C13.8027 29.1033 14.7558 29.4988 15.75 29.5H26.25C27.2442 29.4988 28.1973 29.1033 28.9003 28.4003C29.6033 27.6973 29.9988 26.7442 30 25.75V16.75C29.9988 15.7558 29.6033 14.8027 28.9003 14.0997C28.1973 13.3967 27.2442 13.0012 26.25 13ZM15.75 14.5H26.25C26.6991 14.5009 27.1376 14.6361 27.5092 14.8884C27.8808 15.1406 28.1684 15.4982 28.335 15.9153L22.5915 21.6595C22.1688 22.0805 21.5966 22.3169 21 22.3169C20.4034 22.3169 19.8312 22.0805 19.4085 21.6595L13.665 15.9153C13.8316 15.4982 14.1192 15.1406 14.4908 14.8884C14.8624 14.6361 15.3009 14.5009 15.75 14.5ZM26.25 28H15.75C15.1533 28 14.581 27.7629 14.159 27.341C13.7371 26.919 13.5 26.3467 13.5 25.75V17.875L18.348 22.72C19.052 23.4222 20.0057 23.8165 21 23.8165C21.9943 23.8165 22.948 23.4222 23.652 22.72L28.5 17.875V25.75C28.5 26.3467 28.2629 26.919 27.841 27.341C27.419 27.7629 26.8467 28 26.25 28Z" fill="#777E7A"/>
</g>
<rect x="0.5" y="0.5" width="41" height="41" rx="9.5" stroke="#777E7A"/>
<defs>
<clipPath id="clip0_41_4296">
<rect width="18" height="18" fill="white" transform="translate(12 12)"/>
</clipPath>
</defs>
</svg>
