<svg width="42" height="42" viewBox="0 0 42 42" fill="none" xmlns="http://www.w3.org/2000/svg">
<g clip-path="url(#clip0_41_4294)">
<path d="M21.75 12.75C21.75 12.5511 21.829 12.3603 21.9697 12.2197C22.1103 12.079 22.3011 12 22.5 12C24.4884 12.0022 26.3948 12.7931 27.8009 14.1991C29.2069 15.6052 29.9978 17.5115 30 19.5C30 19.6989 29.921 19.8897 29.7803 20.0303C29.6397 20.171 29.4489 20.25 29.25 20.25C29.0511 20.25 28.8603 20.171 28.7197 20.0303C28.579 19.8897 28.5 19.6989 28.5 19.5C28.4982 17.9092 27.8655 16.3842 26.7407 15.2593C25.6158 14.1345 24.0907 13.5018 22.5 13.5C22.3011 13.5 22.1103 13.421 21.9697 13.2803C21.829 13.1397 21.75 12.9489 21.75 12.75ZM22.5 16.5C23.2956 16.5 24.0587 16.8161 24.6213 17.3787C25.1839 17.9413 25.5 18.7044 25.5 19.5C25.5 19.6989 25.579 19.8897 25.7197 20.0303C25.8603 20.171 26.0511 20.25 26.25 20.25C26.4489 20.25 26.6397 20.171 26.7803 20.0303C26.921 19.8897 27 19.6989 27 19.5C26.9988 18.3069 26.5243 17.163 25.6807 16.3193C24.837 15.4757 23.6931 15.0012 22.5 15C22.3011 15 22.1103 15.079 21.9697 15.2197C21.829 15.3603 21.75 15.5511 21.75 15.75C21.75 15.9489 21.829 16.1397 21.9697 16.2803C22.1103 16.421 22.3011 16.5 22.5 16.5ZM29.3197 24.5542C29.7544 24.9901 29.9984 25.5805 29.9984 26.196C29.9984 26.8115 29.7544 27.4019 29.3197 27.8377L28.6372 28.6245C22.4947 34.5052 7.54724 19.5615 13.3372 13.3995L14.1997 12.6495C14.6361 12.227 15.2212 11.9933 15.8285 11.9989C16.4358 12.0045 17.0165 12.249 17.445 12.6795C17.4682 12.7027 18.858 14.508 18.858 14.508C19.2704 14.9412 19.4999 15.5167 19.4989 16.1148C19.498 16.7129 19.2665 17.2876 18.8527 17.7195L17.9842 18.8115C18.4649 19.9793 19.1715 21.0407 20.0636 21.9346C20.9557 22.8285 22.0156 23.5373 23.1825 24.0203L24.2812 23.1465C24.7132 22.733 25.2878 22.5019 25.8857 22.501C26.4836 22.5002 27.0589 22.7297 27.492 23.142C27.492 23.142 29.2965 24.531 29.3197 24.5542ZM28.2877 25.6448C28.2877 25.6448 26.493 24.264 26.4697 24.2407C26.3152 24.0875 26.1065 24.0016 25.8889 24.0016C25.6713 24.0016 25.4625 24.0875 25.308 24.2407C25.2877 24.2617 23.775 25.467 23.775 25.467C23.673 25.5481 23.5517 25.6013 23.423 25.6213C23.2942 25.6413 23.1625 25.6274 23.0407 25.581C21.5291 25.0182 20.156 24.1371 19.0146 22.9973C17.8732 21.8576 16.99 20.4858 16.425 18.975C16.3749 18.8516 16.3586 18.7171 16.3777 18.5853C16.3968 18.4534 16.4506 18.3291 16.5337 18.225C16.5337 18.225 17.739 16.7115 17.7592 16.692C17.9124 16.5375 17.9984 16.3287 17.9984 16.1111C17.9984 15.8935 17.9124 15.6848 17.7592 15.5302C17.736 15.5077 16.3552 13.7115 16.3552 13.7115C16.1984 13.5709 15.9937 13.4956 15.7832 13.501C15.5726 13.5064 15.3721 13.5922 15.2227 13.7407L14.3602 14.4907C10.1287 19.5787 23.082 31.8135 27.5407 27.6L28.224 26.8125C28.3841 26.6642 28.4803 26.4594 28.4922 26.2415C28.5041 26.0236 28.4308 25.8096 28.2877 25.6448Z" fill="#777E7A"/>
</g>
<rect x="0.5" y="0.5" width="41" height="41" rx="9.5" stroke="#777E7A"/>
<defs>
<clipPath id="clip0_41_4294">
<rect width="18" height="18" fill="white" transform="translate(12 12)"/>
</clipPath>
</defs>
</svg>
