<svg width="13" height="10" viewBox="0 0 13 10" fill="none" xmlns="http://www.w3.org/2000/svg">
<path d="M0.387784 9.99976V7.23839C0.387784 6.4543 0.541193 5.65316 0.848011 4.83498C1.15483 4.0168 1.55966 3.24549 2.0625 2.52106C2.56534 1.79663 3.1108 1.19152 3.69886 0.705721L6.10227 2.12476C5.625 2.87476 5.23295 3.65885 4.92614 4.47703C4.62784 5.29521 4.47869 6.20714 4.47869 7.21282V9.99976H0.387784ZM6.84375 9.99976V7.23839C6.84375 6.4543 6.99716 5.65316 7.30398 4.83498C7.6108 4.0168 8.01563 3.24549 8.51847 2.52106C9.02131 1.79663 9.56676 1.19152 10.1548 0.705721L12.5582 2.12476C12.081 2.87476 11.6889 3.65885 11.3821 4.47703C11.0838 5.29521 10.9347 6.20714 10.9347 7.21282V9.99976H6.84375Z" fill="white"/>
</svg>
