<svg width="623" height="622" viewBox="0 0 623 622" fill="none" xmlns="http://www.w3.org/2000/svg">
<mask id="mask0_1_2514" style="mask-type:luminance" maskUnits="userSpaceOnUse" x="0" y="0" width="623" height="622">
<path d="M608 0H15C6.71573 0 0 6.71572 0 15V607C0 615.284 6.71574 622 15 622H608C616.284 622 623 615.284 623 607V15C623 6.71573 616.284 0 608 0Z" fill="white"/>
</mask>
<g mask="url(#mask0_1_2514)">
<path d="M212.665 330.962H188.168C179.884 330.962 173.168 337.678 173.168 345.962V532.651C173.168 540.935 179.884 547.651 188.168 547.651H212.665C220.95 547.651 227.665 540.935 227.665 532.651V345.962C227.665 337.678 220.95 330.962 212.665 330.962Z" fill="#B5C3C2"/>
<path d="M203.759 315.428H197.07C188.786 315.428 182.07 322.144 182.07 330.428V391.487C182.07 399.771 188.786 406.487 197.07 406.487H203.759C212.043 406.487 218.759 399.771 218.759 391.487V330.428C218.759 322.144 212.043 315.428 203.759 315.428Z" fill="#B5C3C2"/>
<path d="M210.592 345.907V315.748C210.592 310.128 206.037 305.573 200.417 305.573C194.798 305.573 190.242 310.128 190.242 315.748V345.907C190.242 351.526 194.798 356.082 200.417 356.082C206.037 356.082 210.592 351.526 210.592 345.907Z" fill="#B5C3C2"/>
<path d="M207.351 324.593C207.351 328.423 204.247 331.527 200.417 331.527C196.587 331.527 193.482 328.423 193.482 324.593V302.11C193.482 299.346 195.723 297.106 198.486 297.106H203.443C205.602 297.106 207.351 298.856 207.351 301.014V324.593Z" fill="#B5C3C2"/>
<path d="M199.503 315.786C199.503 316.201 199.166 316.538 198.75 316.538C198.335 316.538 197.998 316.201 197.998 315.786V282.66C197.998 282.36 198.241 282.117 198.541 282.117H199.078C199.313 282.117 199.503 282.307 199.503 282.541V315.786Z" fill="#B5C3C2"/>
<path d="M202.837 303.887C202.837 304.302 202.5 304.639 202.084 304.639C201.669 304.639 201.332 304.302 201.332 303.887V270.761C201.332 270.461 201.575 270.218 201.875 270.218H202.412C202.647 270.218 202.837 270.408 202.837 270.642V303.887Z" fill="#B5C3C2"/>
<path d="M227.967 330.408H172.868C172.231 330.408 171.715 330.924 171.715 331.561C171.715 332.198 172.231 332.714 172.868 332.714H227.967C228.604 332.714 229.12 332.198 229.12 331.561C229.12 330.924 228.604 330.408 227.967 330.408Z" fill="#B5C3C2"/>
<path d="M218.993 314.317H181.849C181.236 314.317 180.738 314.814 180.738 315.428C180.738 316.041 181.236 316.539 181.849 316.539H218.993C219.606 316.539 220.104 316.041 220.104 315.428C220.104 314.814 219.606 314.317 218.993 314.317Z" fill="#B5C3C2"/>
<path d="M210.592 304.639H189.61C189.139 304.639 188.758 305.021 188.758 305.491C188.758 305.962 189.139 306.343 189.61 306.343H210.592C211.063 306.343 211.444 305.962 211.444 305.491C211.444 305.021 211.063 304.639 210.592 304.639Z" fill="#B5C3C2"/>
<path opacity="0.29" d="M187.155 327.811V319.975C187.155 319.504 186.773 319.122 186.302 319.122C185.831 319.122 185.449 319.504 185.449 319.975V327.811C185.449 328.282 185.831 328.664 186.302 328.664C186.773 328.664 187.155 328.282 187.155 327.811Z" fill="#B5C3C2"/>
<path opacity="0.29" d="M191.874 327.811V319.975C191.874 319.504 191.492 319.122 191.021 319.122C190.55 319.122 190.168 319.504 190.168 319.975V327.811C190.168 328.282 190.55 328.664 191.021 328.664C191.492 328.664 191.874 328.282 191.874 327.811Z" fill="#B5C3C2"/>
<path opacity="0.29" d="M196.591 327.811V319.975C196.591 319.504 196.209 319.122 195.738 319.122C195.267 319.122 194.885 319.504 194.885 319.975V327.811C194.885 328.282 195.267 328.664 195.738 328.664C196.209 328.664 196.591 328.282 196.591 327.811Z" fill="#B5C3C2"/>
<path opacity="0.29" d="M201.311 327.811V319.975C201.311 319.504 200.93 319.122 200.458 319.122C199.987 319.122 199.605 319.504 199.605 319.975V327.811C199.605 328.282 199.987 328.664 200.458 328.664C200.93 328.664 201.311 328.282 201.311 327.811Z" fill="#B5C3C2"/>
<path opacity="0.29" d="M206.028 327.811V319.975C206.028 319.504 205.646 319.122 205.175 319.122C204.704 319.122 204.322 319.504 204.322 319.975V327.811C204.322 328.282 204.704 328.664 205.175 328.664C205.646 328.664 206.028 328.282 206.028 327.811Z" fill="#B5C3C2"/>
<path opacity="0.29" d="M210.749 327.811V319.975C210.749 319.504 210.367 319.122 209.896 319.122C209.425 319.122 209.043 319.504 209.043 319.975V327.811C209.043 328.282 209.425 328.664 209.896 328.664C210.367 328.664 210.749 328.282 210.749 327.811Z" fill="#B5C3C2"/>
<path opacity="0.29" d="M215.47 327.811V319.975C215.47 319.504 215.088 319.122 214.617 319.122C214.146 319.122 213.764 319.504 213.764 319.975V327.811C213.764 328.282 214.146 328.664 214.617 328.664C215.088 328.664 215.47 328.282 215.47 327.811Z" fill="#B5C3C2"/>
<path d="M182.074 348.861V341.662C182.074 340.524 181.152 339.601 180.014 339.601C178.876 339.601 177.953 340.524 177.953 341.662V348.861C177.953 349.999 178.876 350.922 180.014 350.922C181.152 350.922 182.074 349.999 182.074 348.861Z" fill="#B5C3C2"/>
<path opacity="0.29" d="M190.234 348.861V341.662C190.234 340.524 189.312 339.601 188.174 339.601C187.036 339.601 186.113 340.524 186.113 341.662V348.861C186.113 349.999 187.036 350.922 188.174 350.922C189.312 350.922 190.234 349.999 190.234 348.861Z" fill="#B5C3C2"/>
<path d="M198.398 348.861V341.662C198.398 340.524 197.476 339.601 196.338 339.601C195.2 339.601 194.277 340.524 194.277 341.662V348.861C194.277 349.999 195.2 350.922 196.338 350.922C197.476 350.922 198.398 349.999 198.398 348.861Z" fill="#B5C3C2"/>
<path d="M206.557 348.861V341.662C206.557 340.524 205.634 339.601 204.496 339.601C203.358 339.601 202.436 340.524 202.436 341.662V348.861C202.436 349.999 203.358 350.922 204.496 350.922C205.634 350.922 206.557 349.999 206.557 348.861Z" fill="#B5C3C2"/>
<path d="M214.721 348.861V341.662C214.721 340.524 213.798 339.601 212.66 339.601C211.522 339.601 210.6 340.524 210.6 341.662V348.861C210.6 349.999 211.522 350.922 212.66 350.922C213.798 350.922 214.721 349.999 214.721 348.861Z" fill="#B5C3C2"/>
<path d="M222.883 348.861V341.662C222.883 340.524 221.96 339.601 220.822 339.601C219.684 339.601 218.762 340.524 218.762 341.662V348.861C218.762 349.999 219.684 350.922 220.822 350.922C221.96 350.922 222.883 349.999 222.883 348.861Z" fill="#B5C3C2"/>
<path d="M182.074 366.506V359.308C182.074 358.17 181.152 357.247 180.014 357.247C178.876 357.247 177.953 358.17 177.953 359.308V366.506C177.953 367.645 178.876 368.567 180.014 368.567C181.152 368.567 182.074 367.645 182.074 366.506Z" fill="#B5C3C2"/>
<path d="M190.234 366.507V359.308C190.234 358.17 189.312 357.247 188.174 357.247C187.036 357.247 186.113 358.17 186.113 359.308V366.507C186.113 367.645 187.036 368.567 188.174 368.567C189.312 368.567 190.234 367.645 190.234 366.507Z" fill="#B5C3C2"/>
<path d="M198.398 366.507V359.308C198.398 358.17 197.476 357.247 196.338 357.247C195.2 357.247 194.277 358.17 194.277 359.308V366.507C194.277 367.645 195.2 368.567 196.338 368.567C197.476 368.567 198.398 367.645 198.398 366.507Z" fill="#B5C3C2"/>
<path opacity="0.29" d="M206.557 366.506V359.308C206.557 358.17 205.634 357.247 204.496 357.247C203.358 357.247 202.436 358.17 202.436 359.308V366.506C202.436 367.645 203.358 368.567 204.496 368.567C205.634 368.567 206.557 367.645 206.557 366.506Z" fill="#B5C3C2"/>
<path d="M214.721 366.507V359.308C214.721 358.17 213.798 357.247 212.66 357.247C211.522 357.247 210.6 358.17 210.6 359.308V366.507C210.6 367.645 211.522 368.567 212.66 368.567C213.798 368.567 214.721 367.645 214.721 366.507Z" fill="#B5C3C2"/>
<path d="M222.883 366.507V359.308C222.883 358.17 221.96 357.247 220.822 357.247C219.684 357.247 218.762 358.17 218.762 359.308V366.507C218.762 367.645 219.684 368.567 220.822 368.567C221.96 368.567 222.883 367.645 222.883 366.507Z" fill="#B5C3C2"/>
<path d="M182.074 384.151V376.953C182.074 375.815 181.152 374.892 180.014 374.892C178.876 374.892 177.953 375.815 177.953 376.953V384.151C177.953 385.29 178.876 386.212 180.014 386.212C181.152 386.212 182.074 385.29 182.074 384.151Z" fill="#B5C3C2"/>
<path d="M190.234 384.151V376.953C190.234 375.815 189.312 374.892 188.174 374.892C187.036 374.892 186.113 375.815 186.113 376.953V384.151C186.113 385.29 187.036 386.212 188.174 386.212C189.312 386.212 190.234 385.29 190.234 384.151Z" fill="#B5C3C2"/>
<path d="M198.398 384.151V376.953C198.398 375.815 197.476 374.892 196.338 374.892C195.2 374.892 194.277 375.815 194.277 376.953V384.151C194.277 385.29 195.2 386.212 196.338 386.212C197.476 386.212 198.398 385.29 198.398 384.151Z" fill="#B5C3C2"/>
<path d="M206.557 384.151V376.953C206.557 375.815 205.634 374.892 204.496 374.892C203.358 374.892 202.436 375.815 202.436 376.953V384.151C202.436 385.29 203.358 386.212 204.496 386.212C205.634 386.212 206.557 385.29 206.557 384.151Z" fill="#B5C3C2"/>
<path opacity="0.29" d="M214.721 384.151V376.953C214.721 375.815 213.798 374.892 212.66 374.892C211.522 374.892 210.6 375.815 210.6 376.953V384.151C210.6 385.29 211.522 386.212 212.66 386.212C213.798 386.212 214.721 385.29 214.721 384.151Z" fill="#B5C3C2"/>
<path opacity="0.29" d="M222.883 384.151V376.953C222.883 375.815 221.96 374.892 220.822 374.892C219.684 374.892 218.762 375.815 218.762 376.953V384.151C218.762 385.29 219.684 386.212 220.822 386.212C221.96 386.212 222.883 385.29 222.883 384.151Z" fill="#B5C3C2"/>
<path opacity="0.29" d="M182.074 401.797V394.598C182.074 393.46 181.152 392.538 180.014 392.538C178.876 392.538 177.953 393.46 177.953 394.598V401.797C177.953 402.935 178.876 403.858 180.014 403.858C181.152 403.858 182.074 402.935 182.074 401.797Z" fill="#B5C3C2"/>
<path d="M190.234 401.797V394.598C190.234 393.46 189.312 392.538 188.174 392.538C187.036 392.538 186.113 393.46 186.113 394.598V401.797C186.113 402.935 187.036 403.858 188.174 403.858C189.312 403.858 190.234 402.935 190.234 401.797Z" fill="#B5C3C2"/>
<path d="M198.398 401.797V394.598C198.398 393.46 197.476 392.538 196.338 392.538C195.2 392.538 194.277 393.46 194.277 394.598V401.797C194.277 402.935 195.2 403.858 196.338 403.858C197.476 403.858 198.398 402.935 198.398 401.797Z" fill="#B5C3C2"/>
<path d="M206.557 401.797V394.598C206.557 393.46 205.634 392.538 204.496 392.538C203.358 392.538 202.436 393.46 202.436 394.598V401.797C202.436 402.935 203.358 403.858 204.496 403.858C205.634 403.858 206.557 402.935 206.557 401.797Z" fill="#B5C3C2"/>
<path d="M214.721 401.797V394.598C214.721 393.46 213.798 392.538 212.66 392.538C211.522 392.538 210.6 393.46 210.6 394.598V401.797C210.6 402.935 211.522 403.858 212.66 403.858C213.798 403.858 214.721 402.935 214.721 401.797Z" fill="#B5C3C2"/>
<path d="M222.883 401.797V394.598C222.883 393.46 221.96 392.538 220.822 392.538C219.684 392.538 218.762 393.46 218.762 394.598V401.797C218.762 402.935 219.684 403.858 220.822 403.858C221.96 403.858 222.883 402.935 222.883 401.797Z" fill="#B5C3C2"/>
<path d="M182.074 419.442V412.243C182.074 411.105 181.152 410.183 180.014 410.183C178.876 410.183 177.953 411.105 177.953 412.243V419.442C177.953 420.58 178.876 421.503 180.014 421.503C181.152 421.503 182.074 420.58 182.074 419.442Z" fill="#B5C3C2"/>
<path opacity="0.29" d="M190.234 419.442V412.243C190.234 411.105 189.312 410.183 188.174 410.183C187.036 410.183 186.113 411.105 186.113 412.243V419.442C186.113 420.58 187.036 421.503 188.174 421.503C189.312 421.503 190.234 420.58 190.234 419.442Z" fill="#B5C3C2"/>
<path d="M198.398 419.442V412.243C198.398 411.105 197.476 410.183 196.338 410.183C195.2 410.183 194.277 411.105 194.277 412.243V419.442C194.277 420.58 195.2 421.503 196.338 421.503C197.476 421.503 198.398 420.58 198.398 419.442Z" fill="#B5C3C2"/>
<path opacity="0.29" d="M206.557 419.442V412.243C206.557 411.105 205.634 410.183 204.496 410.183C203.358 410.183 202.436 411.105 202.436 412.243V419.442C202.436 420.58 203.358 421.503 204.496 421.503C205.634 421.503 206.557 420.58 206.557 419.442Z" fill="#B5C3C2"/>
<path d="M214.721 419.442V412.243C214.721 411.105 213.798 410.183 212.66 410.183C211.522 410.183 210.6 411.105 210.6 412.243V419.442C210.6 420.58 211.522 421.503 212.66 421.503C213.798 421.503 214.721 420.58 214.721 419.442Z" fill="#B5C3C2"/>
<path d="M222.883 419.442V412.243C222.883 411.105 221.96 410.183 220.822 410.183C219.684 410.183 218.762 411.105 218.762 412.243V419.442C218.762 420.58 219.684 421.503 220.822 421.503C221.96 421.503 222.883 420.58 222.883 419.442Z" fill="#B5C3C2"/>
<path d="M182.074 437.088V429.889C182.074 428.751 181.152 427.828 180.014 427.828C178.876 427.828 177.953 428.751 177.953 429.889V437.088C177.953 438.226 178.876 439.148 180.014 439.148C181.152 439.148 182.074 438.226 182.074 437.088Z" fill="#B5C3C2"/>
<path d="M190.234 437.088V429.889C190.234 428.751 189.312 427.828 188.174 427.828C187.036 427.828 186.113 428.751 186.113 429.889V437.088C186.113 438.226 187.036 439.148 188.174 439.148C189.312 439.148 190.234 438.226 190.234 437.088Z" fill="#B5C3C2"/>
<path d="M198.398 437.088V429.889C198.398 428.751 197.476 427.828 196.338 427.828C195.2 427.828 194.277 428.751 194.277 429.889V437.088C194.277 438.226 195.2 439.148 196.338 439.148C197.476 439.148 198.398 438.226 198.398 437.088Z" fill="#B5C3C2"/>
<path d="M206.557 437.088V429.889C206.557 428.751 205.634 427.828 204.496 427.828C203.358 427.828 202.436 428.751 202.436 429.889V437.088C202.436 438.226 203.358 439.148 204.496 439.148C205.634 439.148 206.557 438.226 206.557 437.088Z" fill="#B5C3C2"/>
<path d="M214.721 437.088V429.889C214.721 428.751 213.798 427.828 212.66 427.828C211.522 427.828 210.6 428.751 210.6 429.889V437.088C210.6 438.226 211.522 439.148 212.66 439.148C213.798 439.148 214.721 438.226 214.721 437.088Z" fill="#B5C3C2"/>
<path opacity="0.29" d="M222.883 437.088V429.889C222.883 428.751 221.96 427.828 220.822 427.828C219.684 427.828 218.762 428.751 218.762 429.889V437.088C218.762 438.226 219.684 439.148 220.822 439.148C221.96 439.148 222.883 438.226 222.883 437.088Z" fill="#B5C3C2"/>
<path d="M182.074 454.733V447.534C182.074 446.396 181.152 445.473 180.014 445.473C178.876 445.473 177.953 446.396 177.953 447.534V454.733C177.953 455.871 178.876 456.793 180.014 456.793C181.152 456.793 182.074 455.871 182.074 454.733Z" fill="#B5C3C2"/>
<path opacity="0.29" d="M190.234 454.733V447.534C190.234 446.396 189.312 445.473 188.174 445.473C187.036 445.473 186.113 446.396 186.113 447.534V454.733C186.113 455.871 187.036 456.793 188.174 456.793C189.312 456.793 190.234 455.871 190.234 454.733Z" fill="#B5C3C2"/>
<path opacity="0.29" d="M198.398 454.733V447.534C198.398 446.396 197.476 445.473 196.338 445.473C195.2 445.473 194.277 446.396 194.277 447.534V454.733C194.277 455.871 195.2 456.793 196.338 456.793C197.476 456.793 198.398 455.871 198.398 454.733Z" fill="#B5C3C2"/>
<path d="M206.557 454.733V447.534C206.557 446.396 205.634 445.473 204.496 445.473C203.358 445.473 202.436 446.396 202.436 447.534V454.733C202.436 455.871 203.358 456.793 204.496 456.793C205.634 456.793 206.557 455.871 206.557 454.733Z" fill="#B5C3C2"/>
<path d="M214.721 454.733V447.534C214.721 446.396 213.798 445.473 212.66 445.473C211.522 445.473 210.6 446.396 210.6 447.534V454.733C210.6 455.871 211.522 456.793 212.66 456.793C213.798 456.793 214.721 455.871 214.721 454.733Z" fill="#B5C3C2"/>
<path d="M222.883 454.733V447.534C222.883 446.396 221.96 445.473 220.822 445.473C219.684 445.473 218.762 446.396 218.762 447.534V454.733C218.762 455.871 219.684 456.793 220.822 456.793C221.96 456.793 222.883 455.871 222.883 454.733Z" fill="#B5C3C2"/>
<path d="M182.074 472.378V465.179C182.074 464.041 181.152 463.119 180.014 463.119C178.876 463.119 177.953 464.041 177.953 465.179V472.378C177.953 473.516 178.876 474.439 180.014 474.439C181.152 474.439 182.074 473.516 182.074 472.378Z" fill="#B5C3C2"/>
<path d="M190.234 472.378V465.179C190.234 464.041 189.312 463.119 188.174 463.119C187.036 463.119 186.113 464.041 186.113 465.179V472.378C186.113 473.516 187.036 474.439 188.174 474.439C189.312 474.439 190.234 473.516 190.234 472.378Z" fill="#B5C3C2"/>
<path d="M198.398 472.378V465.179C198.398 464.041 197.476 463.119 196.338 463.119C195.2 463.119 194.277 464.041 194.277 465.179V472.378C194.277 473.516 195.2 474.439 196.338 474.439C197.476 474.439 198.398 473.516 198.398 472.378Z" fill="#B5C3C2"/>
<path d="M206.557 472.378V465.179C206.557 464.041 205.634 463.119 204.496 463.119C203.358 463.119 202.436 464.041 202.436 465.179V472.378C202.436 473.516 203.358 474.439 204.496 474.439C205.634 474.439 206.557 473.516 206.557 472.378Z" fill="#B5C3C2"/>
<path opacity="0.29" d="M214.721 472.378V465.179C214.721 464.041 213.798 463.119 212.66 463.119C211.522 463.119 210.6 464.041 210.6 465.179V472.378C210.6 473.516 211.522 474.439 212.66 474.439C213.798 474.439 214.721 473.516 214.721 472.378Z" fill="#B5C3C2"/>
<path d="M222.883 472.378V465.179C222.883 464.041 221.96 463.119 220.822 463.119C219.684 463.119 218.762 464.041 218.762 465.179V472.378C218.762 473.516 219.684 474.439 220.822 474.439C221.96 474.439 222.883 473.516 222.883 472.378Z" fill="#B5C3C2"/>
<path d="M182.074 490.024V482.825C182.074 481.687 181.152 480.764 180.014 480.764C178.876 480.764 177.953 481.687 177.953 482.825V490.024C177.953 491.162 178.876 492.084 180.014 492.084C181.152 492.084 182.074 491.162 182.074 490.024Z" fill="#B5C3C2"/>
<path opacity="0.29" d="M190.234 490.024V482.825C190.234 481.687 189.312 480.764 188.174 480.764C187.036 480.764 186.113 481.687 186.113 482.825V490.024C186.113 491.162 187.036 492.084 188.174 492.084C189.312 492.084 190.234 491.162 190.234 490.024Z" fill="#B5C3C2"/>
<path d="M198.398 490.024V482.825C198.398 481.687 197.476 480.764 196.338 480.764C195.2 480.764 194.277 481.687 194.277 482.825V490.024C194.277 491.162 195.2 492.084 196.338 492.084C197.476 492.084 198.398 491.162 198.398 490.024Z" fill="#B5C3C2"/>
<path d="M206.557 490.024V482.825C206.557 481.687 205.634 480.764 204.496 480.764C203.358 480.764 202.436 481.687 202.436 482.825V490.024C202.436 491.162 203.358 492.084 204.496 492.084C205.634 492.084 206.557 491.162 206.557 490.024Z" fill="#B5C3C2"/>
<path d="M214.721 490.024V482.825C214.721 481.687 213.798 480.764 212.66 480.764C211.522 480.764 210.6 481.687 210.6 482.825V490.024C210.6 491.162 211.522 492.084 212.66 492.084C213.798 492.084 214.721 491.162 214.721 490.024Z" fill="#B5C3C2"/>
<path d="M222.883 490.024V482.825C222.883 481.687 221.96 480.764 220.822 480.764C219.684 480.764 218.762 481.687 218.762 482.825V490.024C218.762 491.162 219.684 492.084 220.822 492.084C221.96 492.084 222.883 491.162 222.883 490.024Z" fill="#B5C3C2"/>
<path d="M182.074 507.669V500.47C182.074 499.332 181.152 498.409 180.014 498.409C178.876 498.409 177.953 499.332 177.953 500.47V507.669C177.953 508.807 178.876 509.729 180.014 509.729C181.152 509.729 182.074 508.807 182.074 507.669Z" fill="#B5C3C2"/>
<path d="M190.234 507.669V500.47C190.234 499.332 189.312 498.409 188.174 498.409C187.036 498.409 186.113 499.332 186.113 500.47V507.669C186.113 508.807 187.036 509.729 188.174 509.729C189.312 509.729 190.234 508.807 190.234 507.669Z" fill="#B5C3C2"/>
<path d="M198.398 507.669V500.47C198.398 499.332 197.476 498.409 196.338 498.409C195.2 498.409 194.277 499.332 194.277 500.47V507.669C194.277 508.807 195.2 509.729 196.338 509.729C197.476 509.729 198.398 508.807 198.398 507.669Z" fill="#B5C3C2"/>
<path opacity="0.29" d="M206.557 507.669V500.47C206.557 499.332 205.634 498.409 204.496 498.409C203.358 498.409 202.436 499.332 202.436 500.47V507.669C202.436 508.807 203.358 509.729 204.496 509.729C205.634 509.729 206.557 508.807 206.557 507.669Z" fill="#B5C3C2"/>
<path d="M214.721 507.669V500.47C214.721 499.332 213.798 498.409 212.66 498.409C211.522 498.409 210.6 499.332 210.6 500.47V507.669C210.6 508.807 211.522 509.729 212.66 509.729C213.798 509.729 214.721 508.807 214.721 507.669Z" fill="#B5C3C2"/>
<path opacity="0.29" d="M222.883 507.669V500.47C222.883 499.332 221.96 498.409 220.822 498.409C219.684 498.409 218.762 499.332 218.762 500.47V507.669C218.762 508.807 219.684 509.729 220.822 509.729C221.96 509.729 222.883 508.807 222.883 507.669Z" fill="#B5C3C2"/>
<path opacity="0.29" d="M182.074 525.314V518.115C182.074 516.977 181.152 516.054 180.014 516.054C178.876 516.054 177.953 516.977 177.953 518.115V525.314C177.953 526.452 178.876 527.374 180.014 527.374C181.152 527.374 182.074 526.452 182.074 525.314Z" fill="#B5C3C2"/>
<path d="M190.234 525.314V518.115C190.234 516.977 189.312 516.054 188.174 516.054C187.036 516.054 186.113 516.977 186.113 518.115V525.314C186.113 526.452 187.036 527.374 188.174 527.374C189.312 527.374 190.234 526.452 190.234 525.314Z" fill="#B5C3C2"/>
<path opacity="0.29" d="M198.398 525.314V518.115C198.398 516.977 197.476 516.054 196.338 516.054C195.2 516.054 194.277 516.977 194.277 518.115V525.314C194.277 526.452 195.2 527.374 196.338 527.374C197.476 527.374 198.398 526.452 198.398 525.314Z" fill="#B5C3C2"/>
<path d="M206.557 525.314V518.115C206.557 516.977 205.634 516.054 204.496 516.054C203.358 516.054 202.436 516.977 202.436 518.115V525.314C202.436 526.452 203.358 527.374 204.496 527.374C205.634 527.374 206.557 526.452 206.557 525.314Z" fill="#B5C3C2"/>
<path d="M214.721 525.314V518.115C214.721 516.977 213.798 516.054 212.66 516.054C211.522 516.054 210.6 516.977 210.6 518.115V525.314C210.6 526.452 211.522 527.374 212.66 527.374C213.798 527.374 214.721 526.452 214.721 525.314Z" fill="#B5C3C2"/>
<path d="M222.883 525.314V518.115C222.883 516.977 221.96 516.054 220.822 516.054C219.684 516.054 218.762 516.977 218.762 518.115V525.314C218.762 526.452 219.684 527.374 220.822 527.374C221.96 527.374 222.883 526.452 222.883 525.314Z" fill="#B5C3C2"/>
<path d="M87.5008 339.205H29.8945C21.6103 339.205 14.8945 345.92 14.8945 354.205V506.745C14.8945 515.03 21.6103 521.745 29.8945 521.745H87.5008C95.785 521.745 102.501 515.03 102.501 506.745V354.205C102.501 345.921 95.785 339.205 87.5008 339.205Z" fill="#B5C3C2"/>
<path d="M102.411 336.066H14.9863C13.5614 336.066 12.4062 337.221 12.4062 338.646C12.4062 340.071 13.5614 341.226 14.9863 341.226H102.411C103.836 341.226 104.991 340.071 104.991 338.646C104.991 337.221 103.836 336.066 102.411 336.066Z" fill="#B5C3C2"/>
<path d="M87.2931 329.462H30.0995C23.3276 329.462 17.8379 334.951 17.8379 341.723C17.8379 348.495 23.3276 353.985 30.0995 353.985H87.2931C94.065 353.985 99.5547 348.495 99.5547 341.723C99.5547 334.951 94.065 329.462 87.2931 329.462Z" fill="#B5C3C2"/>
<path d="M43.0569 319.427H37.4931C30.0939 319.427 24.0957 325.425 24.0957 332.825C24.0957 340.224 30.0939 346.222 37.4931 346.222H43.0569C50.4561 346.222 56.4543 340.224 56.4543 332.825C56.4543 325.425 50.4561 319.427 43.0569 319.427Z" fill="#B5C3C2"/>
<path d="M39.2441 317.448C40.975 322.059 37.5666 326.979 32.6415 326.979H31.1482C27.2532 326.979 24.0957 323.822 24.0957 319.927C24.0957 316.032 27.2532 312.874 31.1482 312.874H32.6415C35.5804 312.874 38.2112 314.697 39.2441 317.448Z" fill="#B5C3C2"/>
<path d="M33.4581 331.677V302.074C33.4581 301.573 33.0517 301.167 32.5503 301.167C32.049 301.167 31.6426 301.573 31.6426 302.074V331.677C31.6426 332.178 32.049 332.584 32.5503 332.584C33.0517 332.584 33.4581 332.178 33.4581 331.677Z" fill="#B5C3C2"/>
<path d="M32.5482 301.167C33.4485 301.167 34.1783 300.438 34.1783 299.538C34.1783 298.639 33.4485 297.91 32.5482 297.91C31.6478 297.91 30.918 298.639 30.918 299.538C30.918 300.438 31.6478 301.167 32.5482 301.167Z" fill="#B5C3C2"/>
<path d="M412.503 382.37C410.894 382.37 409.59 381.066 409.59 379.457V300.162C409.59 296.009 406.223 292.642 402.069 292.642C397.916 292.642 394.549 289.275 394.549 285.122V271.294C394.549 269.81 393.347 268.608 391.863 268.608C390.379 268.608 389.176 267.405 389.176 265.921V248.159C389.176 239.984 382.55 233.358 374.375 233.358H372.528C365.374 233.358 359.574 227.558 359.574 220.404V208.767C359.574 208.04 358.984 207.45 358.257 207.45C357.53 207.45 356.94 208.04 356.94 208.767V230.458C356.94 232.059 355.642 233.358 354.04 233.358C352.439 233.358 351.141 232.059 351.141 230.458V202.244C351.141 201.517 350.551 200.927 349.824 200.927C349.096 200.927 348.507 201.517 348.507 202.244V224.001C348.507 229.168 344.317 233.358 339.15 233.358C333.982 233.358 329.793 237.547 329.793 242.715V287.808C329.793 290.478 327.629 292.642 324.959 292.642C322.29 292.642 320.126 294.806 320.126 297.475V378.227C320.126 380.515 318.271 382.37 315.983 382.37C313.695 382.37 311.84 384.225 311.84 386.513V530.802C311.84 539.087 318.556 545.802 326.84 545.802H400.416C408.7 545.802 415.416 539.087 415.416 530.802V385.283C415.416 383.674 414.111 382.37 412.503 382.37Z" fill="#B5C3C2"/>
<path d="M1024.64 532.314H-93.9241C-101.441 532.314 -107.535 538.408 -107.535 545.925C-107.535 553.442 -101.441 559.536 -93.9241 559.536H1024.64C1032.16 559.536 1038.25 553.442 1038.25 545.925C1038.25 538.408 1032.16 532.314 1024.64 532.314Z" fill="#B5C3C2"/>
<path d="M566.909 537.866C566.909 546.15 560.193 552.866 551.909 552.866H534.376C524.941 552.866 517.848 544.259 519.652 534.998L533.578 463.509C534.95 456.463 541.122 451.377 548.301 451.377H551.908C560.193 451.377 566.909 458.093 566.909 466.377V537.866Z" fill="#95A9A7"/>
<path d="M1039.38 556.818H-133.645C-141.929 556.818 -148.645 563.534 -148.645 571.818V620.507C-148.645 628.791 -141.929 635.507 -133.645 635.507H1039.38C1047.66 635.507 1054.38 628.791 1054.38 620.507V571.818C1054.38 563.534 1047.66 556.818 1039.38 556.818Z" fill="#95A9A7"/>
<path d="M526.947 365.061C526.053 365.061 525.328 364.336 525.328 363.443V328.234C525.328 323.735 521.682 320.088 517.183 320.088C512.685 320.088 509.038 316.442 509.038 311.943V307.325C509.038 304.918 507.087 302.967 504.68 302.967C502.273 302.967 500.322 301.016 500.322 298.609V290.114C500.322 289.269 499.637 288.584 498.793 288.584C497.948 288.584 497.263 287.9 497.263 287.055V264.324C497.263 264.106 497.086 263.929 496.868 263.929C496.65 263.929 496.473 264.106 496.473 264.324V287.055C496.473 287.9 495.788 288.584 494.943 288.584C494.099 288.584 493.414 289.269 493.414 290.114V298.609C493.414 301.016 491.463 302.967 489.056 302.967C486.649 302.967 484.698 304.918 484.698 307.325V312.005C484.698 316.47 481.079 320.088 476.615 320.088C472.151 320.088 468.532 323.707 468.532 328.172V363.381C468.532 364.309 467.78 365.061 466.852 365.061C465.924 365.061 465.171 365.813 465.171 366.741V434.178C465.171 441.099 459.56 446.71 452.638 446.71C445.717 446.71 440.105 452.322 440.105 459.243V524.786C440.105 533.071 446.821 539.786 455.105 539.786H465.171H490.238H513.565C521.849 539.786 528.565 533.071 528.565 524.786V366.679C528.565 365.785 527.84 365.061 526.947 365.061Z" fill="#95A9A7"/>
<path d="M618.957 417.438C618.957 417.042 618.636 416.722 618.241 416.722H540.82C540.424 416.722 540.104 417.042 540.104 417.438C540.104 417.833 540.424 418.154 540.82 418.154H541.888C542.873 418.154 543.672 418.953 543.672 419.938V536.344C543.672 544.628 550.388 551.344 558.672 551.344H600.389C608.674 551.344 615.389 544.628 615.389 536.344V419.938C615.389 418.953 616.188 418.154 617.173 418.154H618.241C618.636 418.154 618.957 417.833 618.957 417.438Z" fill="#95A9A7"/>
<path d="M244.388 449.897H204.475C196.19 449.897 189.475 456.612 189.475 464.897V545.846C189.475 554.13 196.19 560.846 204.475 560.846H244.388C252.672 560.846 259.388 554.13 259.388 545.846V464.897C259.388 456.612 252.672 449.897 244.388 449.897Z" fill="#95A9A7"/>
<path d="M163.942 506.741H73.7051C65.4208 506.741 58.7051 513.457 58.7051 521.741V545.846C58.7051 554.13 65.4208 560.846 73.7051 560.846H163.942C172.226 560.846 178.942 554.13 178.942 545.846V521.741C178.942 513.457 172.226 506.741 163.942 506.741Z" fill="#95A9A7"/>
<path d="M149.546 505.529V399.06C149.546 391.77 143.637 385.862 136.348 385.862C129.059 385.862 123.15 391.77 123.15 399.06V505.529C123.15 512.818 129.059 518.727 136.348 518.727C143.637 518.727 149.546 512.818 149.546 505.529Z" fill="#95A9A7"/>
<path d="M130.35 421.988V351.105C130.35 350.726 130.043 350.419 129.664 350.419C129.285 350.419 128.979 350.726 128.979 351.105V421.988C128.979 422.366 129.285 422.673 129.664 422.673C130.043 422.673 130.35 422.366 130.35 421.988Z" fill="#95A9A7"/>
<path d="M134.807 427.467V356.584C134.807 356.205 134.5 355.898 134.121 355.898C133.742 355.898 133.436 356.205 133.436 356.584V427.467C133.436 427.845 133.742 428.152 134.121 428.152C134.5 428.152 134.807 427.845 134.807 427.467Z" fill="#95A9A7"/>
<path d="M141.321 387.383V385.71C141.321 381.254 137.709 377.643 133.254 377.643C128.799 377.643 125.188 381.254 125.188 385.71V387.383C125.188 391.838 128.799 395.45 133.254 395.45C137.709 395.45 141.321 391.838 141.321 387.383Z" fill="#95A9A7"/>
<path d="M205.164 469.758H189.229C180.944 469.758 174.229 476.474 174.229 484.758V545.847C174.229 554.131 180.944 560.847 189.228 560.847H205.164C213.449 560.847 220.164 554.131 220.164 545.846V484.758C220.164 476.474 213.449 469.758 205.164 469.758Z" fill="#95A9A7"/>
<path d="M341.943 373.365H285.715C277.431 373.365 270.715 380.08 270.715 388.365V545.846C270.715 554.13 277.431 560.846 285.715 560.846H341.943C350.227 560.846 356.943 554.13 356.943 545.846V388.365C356.943 380.08 350.227 373.365 341.943 373.365Z" fill="#95A9A7"/>
<path d="M333.475 366.921H294.189C285.905 366.921 279.189 373.637 279.189 381.921V383.147C279.189 391.432 285.905 398.147 294.189 398.147H333.475C341.759 398.147 348.475 391.432 348.475 383.147V381.921C348.475 373.637 341.759 366.921 333.475 366.921Z" fill="#95A9A7"/>
<path d="M362.536 377.287H265.131C264.526 377.287 264.035 377.778 264.035 378.383C264.035 378.989 264.526 379.48 265.131 379.48H362.536C363.141 379.48 363.632 378.989 363.632 378.383C363.632 377.778 363.141 377.287 362.536 377.287Z" fill="#95A9A7"/>
<path d="M280.726 466.163H270.096C261.811 466.163 255.096 472.879 255.096 481.163V545.846C255.096 554.131 261.811 560.846 270.096 560.846H280.726C289.01 560.846 295.726 554.131 295.726 545.846V481.163C295.726 472.879 289.01 466.163 280.726 466.163Z" fill="#95A9A7"/>
<path d="M-4.28651 462.567H-20.9082C-29.1925 462.567 -35.9082 469.282 -35.9082 477.567V545.846C-35.9082 554.13 -29.1925 560.846 -20.9082 560.846H-4.28652C3.99775 560.846 10.7135 554.13 10.7135 545.846V477.567C10.7135 469.283 3.99776 462.567 -4.28651 462.567Z" fill="#95A9A7"/>
<path d="M57.0706 435.857H-5.83008C-14.1143 435.857 -20.8301 442.573 -20.8301 450.857V545.846C-20.8301 554.13 -14.1143 560.846 -5.83006 560.846H57.0706C65.3549 560.846 72.0706 554.13 72.0706 545.846V450.857C72.0706 442.573 65.3549 435.857 57.0706 435.857Z" fill="#95A9A7"/>
<path d="M72.0734 431.063H-23.853C-25.1768 431.063 -26.25 432.136 -26.25 433.46C-26.25 434.784 -25.1768 435.857 -23.853 435.857H72.0734C73.3972 435.857 74.4704 434.784 74.4704 433.46C74.4704 432.136 73.3972 431.063 72.0734 431.063Z" fill="#95A9A7"/>
<path d="M11.4399 418.05H-4.04677C-11.0442 418.05 -16.7168 423.723 -16.7168 430.72C-16.7168 437.718 -11.0442 443.39 -4.04678 443.39H11.4399C18.4374 443.39 24.11 437.718 24.11 430.72C24.11 423.723 18.4374 418.05 11.4399 418.05Z" fill="#95A9A7"/>
<path d="M44.3014 430.032V421.478C44.3014 419.585 42.7666 418.05 40.8734 418.05C38.9801 418.05 37.4453 419.585 37.4453 421.478V430.032C37.4453 431.925 38.9801 433.46 40.8734 433.46C42.7666 433.46 44.3014 431.925 44.3014 430.032Z" fill="#95A9A7"/>
<path d="M58.7021 429.689V421.821C58.7021 419.739 57.0138 418.05 54.9311 418.05C52.8485 418.05 51.1602 419.739 51.1602 421.821V429.689C51.1602 431.772 52.8485 433.46 54.9311 433.46C57.0138 433.46 58.7021 431.772 58.7021 429.689Z" fill="#95A9A7"/>
<path d="M818.905 518.726H363.475C355.19 518.726 348.475 525.442 348.475 533.726V545.846C348.475 554.13 355.19 560.846 363.475 560.846H818.905C827.19 560.846 833.905 554.13 833.905 545.846V533.726C833.905 525.442 827.19 518.726 818.905 518.726Z" fill="#95A9A7"/>
<path d="M795.145 402.133C793.265 402.133 791.594 403.021 790.527 404.4C789.383 405.881 787.865 407.423 785.995 407.362L784.51 407.314C783.399 407.278 782.53 406.351 782.53 405.24C782.53 397.816 781.409 390.565 779.248 383.679C778.732 382.032 779.558 380.241 781.178 379.645C782.737 379.072 784.442 379.92 785.76 380.932C786.744 381.687 787.975 382.136 789.311 382.136C792.533 382.136 795.144 379.527 795.144 376.309C795.144 373.09 792.532 370.482 789.311 370.482C786.089 370.482 783.477 373.091 783.477 376.309C783.477 377.281 783.018 378.278 782.106 378.613L780.952 379.038C779.334 379.633 777.545 378.806 776.872 377.218C774.048 370.559 770.201 364.33 765.413 358.723C764.286 357.403 764.348 355.419 765.615 354.233C766.835 353.092 768.744 353.214 770.361 353.63C770.826 353.749 771.314 353.813 771.816 353.813C775.038 353.813 777.649 351.204 777.649 347.986C777.649 344.768 775.037 342.159 771.816 342.159C768.595 342.159 765.983 344.768 765.983 347.986C765.983 348.352 766.017 348.711 766.081 349.059C766.388 350.705 766.388 352.624 765.165 353.768L764.346 354.534C763.534 355.294 762.263 355.253 761.476 354.467C755.529 348.526 748.723 343.755 741.338 340.268C739.659 339.476 738.84 337.518 739.546 335.801L740.043 334.591C740.429 333.653 741.478 333.205 742.492 333.205C745.714 333.205 748.325 330.595 748.325 327.377C748.325 324.16 745.713 321.55 742.492 321.55C739.27 321.55 736.658 324.16 736.658 327.377C736.658 328.611 737.042 329.754 737.696 330.695C738.709 332.151 739.583 334.006 738.909 335.646C738.223 337.315 736.32 338.108 734.619 337.508C729.092 335.561 723.31 334.292 717.375 333.745C715.131 333.539 713.367 331.663 713.44 329.411L713.567 325.503C713.571 325.401 713.656 325.323 713.759 325.323C716.981 325.323 719.592 322.714 719.592 319.496C719.592 316.278 716.98 313.668 713.759 313.668C710.537 313.668 707.925 316.277 707.925 319.496C707.925 321.053 708.537 322.467 709.533 323.512C711.061 325.115 712.872 326.939 712.8 329.151L712.725 331.455C712.689 332.568 711.762 333.437 710.649 333.437C703.728 333.437 696.958 334.408 690.492 336.284C688.572 336.842 686.511 335.857 685.846 333.972C685.202 332.146 686.255 330.166 687.332 328.557C687.951 327.632 688.313 326.52 688.313 325.323C688.313 322.105 685.701 319.496 682.479 319.496C679.258 319.496 676.645 322.105 676.645 325.323C676.645 328.541 679.257 331.151 682.479 331.151C683.393 331.151 684.322 331.597 684.626 332.459L685.226 334.162C685.896 336.059 684.9 338.131 683.042 338.903C676.233 341.73 669.866 345.619 664.146 350.483C662.787 351.637 660.751 351.573 659.531 350.273C658.371 349.036 658.482 347.102 658.862 345.449C658.959 345.028 659.01 344.59 659.01 344.14C659.01 340.921 656.398 338.312 653.177 338.312C649.955 338.312 647.343 340.921 647.343 344.14C647.343 347.358 649.955 349.967 653.177 349.967C653.558 349.967 653.931 349.93 654.292 349.86C655.969 349.535 657.934 349.517 659.102 350.762L659.889 351.601C660.65 352.412 660.609 353.683 659.822 354.468C654.568 359.717 650.229 365.634 646.882 372.029C646.078 373.565 644.219 374.251 642.644 373.524L641.788 373.13C640.812 372.68 640.377 371.557 640.377 370.483C640.377 367.264 637.765 364.656 634.544 364.656C631.322 364.656 628.71 367.265 628.71 370.483C628.71 373.701 631.322 376.31 634.544 376.31C635.822 376.31 637.005 375.899 637.966 375.201C639.292 374.239 641.036 373.496 642.524 374.182C644.013 374.868 644.66 376.629 644.041 378.148C641.348 384.757 639.653 391.775 639.035 399.014C638.866 400.985 637.22 402.532 635.243 402.468C633.345 402.406 631.909 400.749 630.822 399.192C629.769 397.681 628.018 396.693 626.035 396.693C622.813 396.693 620.201 399.302 620.201 402.52C620.201 405.739 622.813 408.347 626.035 408.347C627.894 408.347 629.55 407.478 630.618 406.124C631.797 404.628 633.341 403.054 635.245 403.116L636.79 403.166C637.901 403.202 638.77 404.129 638.77 405.24C638.77 412.664 639.891 419.914 642.051 426.801C642.568 428.448 641.742 430.239 640.122 430.834C638.562 431.408 636.858 430.56 635.54 429.548C634.556 428.793 633.325 428.344 631.989 428.344C628.767 428.344 626.155 430.953 626.155 434.171C626.155 437.389 628.767 439.998 631.989 439.998C635.21 439.998 637.822 437.389 637.822 434.171C637.822 433.199 638.281 432.201 639.193 431.866L640.349 431.441C641.966 430.846 643.754 431.673 644.427 433.26C647.251 439.919 651.098 446.149 655.886 451.756C657.013 453.076 656.951 455.06 655.684 456.246C654.464 457.388 652.556 457.265 650.938 456.85C650.473 456.73 649.986 456.667 649.483 456.667C646.261 456.667 643.65 459.276 643.65 462.494C643.65 465.713 646.262 468.321 649.483 468.321C652.705 468.321 655.317 465.712 655.317 462.494C655.317 462.128 655.283 461.769 655.218 461.421C654.911 459.775 654.912 457.856 656.135 456.712L656.953 455.946C657.765 455.186 659.036 455.227 659.823 456.013C660.861 457.049 661.924 458.049 663.012 459.014C669.106 464.414 671.772 473.26 667.886 480.415L640.822 530.245C640.13 531.52 638.795 532.314 637.344 532.314H634.311C633.8 532.314 633.385 532.728 633.385 533.24C633.385 533.751 632.971 534.165 632.46 534.165H631.84C630.986 534.165 630.294 534.857 630.294 535.711V536.004C630.294 537.02 631.117 537.843 632.132 537.843H789.169C790.185 537.843 791.008 537.02 791.008 536.004V535.711C791.008 534.857 790.316 534.165 789.462 534.165H788.842C788.331 534.165 787.916 533.751 787.916 533.24C787.916 532.728 787.502 532.314 786.991 532.314H783.958C782.507 532.314 781.172 531.52 780.48 530.245L750.295 474.669C748.145 470.71 749.581 465.797 753.208 463.125C754.326 462.301 755.423 461.442 756.498 460.55C758.235 459.108 760.812 459.187 762.357 460.833C763.945 462.527 763.595 465.296 763.311 467.601C763.281 467.837 763.266 468.077 763.266 468.321C763.266 471.54 765.878 474.148 769.1 474.148C772.321 474.148 774.933 471.539 774.933 468.321C774.933 465.103 772.321 462.494 769.1 462.494C767.068 462.494 764.747 462.436 763.357 460.954L761.412 458.88C760.651 458.069 760.692 456.798 761.478 456.013C766.569 450.928 770.801 445.214 774.103 439.048C775.098 437.191 777.356 436.356 779.269 437.239L780.849 437.967C781.608 438.317 781.981 439.162 781.981 439.998C781.981 443.217 784.593 445.825 787.815 445.825C791.037 445.825 793.648 443.216 793.648 439.998C793.648 436.78 791.036 434.171 787.815 434.171C786.599 434.171 785.471 434.543 784.537 435.178C782.936 436.267 780.858 437.259 779.1 436.448C777.432 435.679 776.709 433.708 777.393 432.004C780.017 425.472 781.668 418.546 782.272 411.404C782.436 409.468 784.053 407.948 785.995 408.011C787.86 408.072 789.272 409.697 790.324 411.239C791.373 412.778 793.141 413.788 795.146 413.788C798.368 413.788 800.98 411.179 800.98 407.961C800.979 404.742 798.367 402.133 795.145 402.133ZM780.586 405.24C780.586 406.313 779.686 407.157 778.613 407.122L761.725 406.574C761.01 406.551 760.449 405.955 760.449 405.24C760.449 402.807 760.273 400.414 759.933 398.074C759.136 392.58 761.705 386.807 766.914 384.891C772.159 382.962 778.049 385.662 779.168 391.137C780.105 395.728 780.586 400.447 780.586 405.24ZM759.478 405.24C759.477 405.935 758.896 406.483 758.201 406.46L714.997 405.057C714.754 405.049 714.56 404.851 714.521 404.611C714.482 404.371 714.605 404.13 714.833 404.046L742.434 393.895C750.237 391.025 759.139 395.122 759.445 403.43C759.467 404.031 759.478 404.634 759.478 405.24ZM661.821 405.24C661.822 404.545 662.403 403.997 663.098 404.02L706.302 405.423C706.545 405.431 706.739 405.628 706.778 405.869C706.817 406.109 706.694 406.35 706.465 406.434L678.864 416.585C671.062 419.455 662.159 415.358 661.854 407.05C661.832 406.449 661.821 405.846 661.821 405.24ZM713.987 403.183C713.849 402.961 713.869 402.67 714.059 402.492L739.605 378.58C743.397 375.031 749.421 375.178 752.162 379.589C754.91 384.011 752.374 389.55 747.488 391.347L714.637 403.429C714.393 403.519 714.123 403.403 713.987 403.183ZM713.656 401.982C713.444 402.181 713.117 402.181 712.877 402.015C712.637 401.85 712.519 401.544 712.63 401.275L725.649 369.606C727.77 364.448 733.801 361.946 738.387 365.12C742.976 368.295 742.72 374.777 738.646 378.591L713.656 401.982ZM711.977 401.157C711.897 401.354 711.682 401.454 711.474 401.41C711.266 401.365 711.105 401.185 711.112 400.972L712.286 364.896C712.437 360.27 716.457 356.59 720.981 357.567C725.505 358.544 727.465 363.485 725.705 367.766L711.977 401.157ZM710.465 400.923C710.458 401.151 710.272 401.333 710.047 401.368C709.821 401.403 709.597 401.284 709.521 401.069L699.747 373.367C696.978 365.52 701.204 356.667 709.524 356.477C709.898 356.469 710.273 356.464 710.649 356.464C711.345 356.464 711.892 357.047 711.87 357.742L710.465 400.923ZM708.882 401.206C708.974 401.466 708.847 401.75 708.612 401.893C708.377 402.036 708.068 402.016 707.88 401.815L684.208 376.58C680.521 372.649 680.669 366.396 685.27 363.588C689.87 360.781 695.572 363.485 697.365 368.566L708.882 401.206ZM707.445 402.298C707.612 402.476 707.612 402.75 707.469 402.947C707.327 403.145 707.067 403.232 706.846 403.13L674.714 388.313C670.167 386.216 668.155 380.727 671.095 376.675C674.029 372.631 679.824 372.853 683.242 376.497L707.445 402.298ZM706.547 403.705C706.782 403.813 706.893 404.081 706.833 404.334C706.774 404.586 706.554 404.783 706.294 404.775L671.297 403.638C666.096 403.469 661.949 398.933 663.162 393.872C664.373 388.818 670.021 386.862 674.741 389.038L706.547 403.705ZM706.68 407.045C706.913 406.959 707.172 407.069 707.302 407.281C707.399 407.438 707.413 407.635 707.325 407.797L707.257 407.922C707.221 407.989 707.174 408.049 707.118 408.101L681.694 431.899C677.901 435.449 671.878 435.302 669.136 430.891C666.388 426.469 668.925 420.93 673.811 419.133L706.68 407.045ZM679.601 434.745C684.491 430.169 692.007 436 688.811 441.885C687.215 444.822 683.474 445.878 680.828 443.834C680.416 443.516 680.01 443.192 679.609 442.862C677.08 440.777 677.209 436.985 679.601 434.745ZM708.302 408.713C708.372 408.584 708.538 408.545 708.664 408.619C708.775 408.684 708.827 408.82 708.778 408.939L692.823 447.751C692.26 449.119 690.683 449.772 689.353 449.124C688.038 448.484 687.577 446.872 688.275 445.587L708.302 408.713ZM709.321 409.323C709.402 409.126 709.617 409.026 709.825 409.07C710.033 409.115 710.193 409.295 710.186 409.507L709.012 445.583C708.862 450.209 704.842 453.89 700.317 452.913C695.793 451.936 693.834 446.995 695.594 442.714L709.321 409.323ZM710.649 454.015C709.953 454.015 709.405 453.433 709.428 452.737L710.833 409.557C710.84 409.328 711.026 409.146 711.252 409.111C711.477 409.076 711.701 409.196 711.777 409.411L721.551 437.112C724.32 444.96 720.094 453.813 711.774 454.002C711.4 454.011 711.025 454.015 710.649 454.015ZM712.36 409.115C712.3 408.945 712.382 408.759 712.54 408.672C712.72 408.573 712.951 408.629 713.049 408.809L732.436 444.506C733.459 446.389 732.79 448.756 730.839 449.645C728.866 450.544 726.598 449.468 725.877 447.424L712.36 409.115ZM733.108 443.027C730.506 438.237 736.848 433.642 740.577 437.618C742.343 439.5 742.249 442.48 740.196 444.043C739.943 444.236 739.688 444.426 739.431 444.614C737.306 446.169 734.365 445.341 733.108 443.027ZM714.833 409.227C714.703 409.088 714.59 408.932 714.5 408.765L713.913 407.685C713.862 407.591 713.87 407.477 713.929 407.388C714.008 407.268 714.163 407.216 714.294 407.277L746.584 422.167C751.131 424.264 753.143 429.752 750.203 433.805C747.27 437.849 741.474 437.627 738.056 433.984L714.833 409.227ZM714.752 406.775C714.516 406.667 714.406 406.399 714.465 406.146C714.525 405.894 714.744 405.697 715.004 405.705L750.001 406.842C755.202 407.011 759.349 411.547 758.136 416.608C756.925 421.662 751.277 423.618 746.557 421.442L714.752 406.775ZM688.974 450.02C690.315 450.671 690.975 452.244 690.409 453.623L685.22 466.244C684.419 468.192 682.185 469.128 680.287 468.214C678.404 467.306 677.734 464.997 678.731 463.16L685.245 451.166C685.965 449.841 687.618 449.362 688.974 450.02ZM688.774 459.302C690.576 454.918 695.477 452.861 700.111 453.862C704.746 454.863 708.583 458.771 708.429 463.51L708.382 464.951C708.201 470.524 703.499 474.964 698.013 473.969C696.667 473.725 695.332 473.442 694.008 473.121C688.577 471.803 686.097 465.814 688.222 460.645L688.774 459.302ZM709.313 456.264C709.336 455.547 709.933 454.986 710.649 454.986C712.859 454.986 715.035 454.841 717.169 454.561C722.662 453.839 728.386 456.483 730.229 461.707C732.089 466.978 729.306 472.832 723.814 473.872C719.519 474.685 715.116 475.1 710.649 475.1C709.575 475.1 708.729 474.199 708.764 473.125L709.313 456.264ZM728.823 455.773C728.096 453.712 729.187 451.462 731.177 450.558C733.189 449.645 735.608 450.344 736.662 452.286L741.723 461.604C743.188 464.301 742.207 467.7 739.408 468.962C736.59 470.232 733.379 468.686 732.351 465.771L728.823 455.773ZM771.963 371.57C774.67 376.471 771.927 382.358 766.672 384.29L766.291 384.431C761.296 386.268 755.811 383.627 753.005 379.105C750.192 374.572 750.337 368.534 754.231 364.889L754.518 364.62C758.594 360.805 765.064 360.99 768.245 365.578C769.589 367.517 770.83 369.517 771.963 371.57ZM760.102 355.841C760.861 356.6 760.822 357.834 760.038 358.567L754.054 364.169C750.01 367.954 743.715 367.666 739.179 364.488C739.005 364.367 738.832 364.247 738.657 364.128C734.074 361.003 731.568 355.209 733.677 350.078C735.802 344.908 741.776 342.39 746.569 345.266C751.438 348.187 755.982 351.725 760.102 355.841ZM727.29 337.358C732.721 338.677 735.202 344.666 733.076 349.835L732.524 351.177C730.722 355.562 725.821 357.618 721.187 356.618C716.553 355.617 712.715 351.708 712.869 346.97L712.916 345.529C713.097 339.955 717.799 335.515 723.286 336.51C724.631 336.754 725.966 337.037 727.29 337.358ZM710.649 335.379C711.724 335.379 712.569 336.28 712.534 337.354L711.985 354.217C711.962 354.933 711.365 355.494 710.649 355.494C708.44 355.494 706.264 355.638 704.13 355.919C698.637 356.641 692.913 353.997 691.069 348.772C689.209 343.501 691.993 337.648 697.484 336.608C701.779 335.795 706.182 335.379 710.649 335.379ZM677.828 343.513C682.76 340.887 688.602 343.727 690.461 348.997C692.299 354.206 689.477 359.882 684.762 362.76C680.048 365.637 673.792 365.475 670.014 361.447C666.189 357.37 666.361 350.875 670.96 347.695C673.174 346.165 675.467 344.769 677.828 343.513ZM661.197 355.841C661.957 355.082 663.191 355.121 663.926 355.905L670.031 362.413C673.543 366.156 673.302 371.974 670.29 376.13C667.286 380.277 661.829 382.371 657.179 380.227L656.485 379.907C651.397 377.561 649.134 371.469 652.227 366.798C654.812 362.896 657.809 359.225 661.197 355.841ZM643.465 385.721C645.019 380.356 651.104 378.139 656.177 380.478L656.552 380.651C661.391 382.882 663.453 388.482 662.213 393.664C660.975 398.838 656.597 403.161 651.279 402.988L650.875 402.975C645.295 402.794 640.849 398.087 641.849 392.594C642.272 390.269 642.812 387.976 643.465 385.721ZM640.713 405.24C640.713 404.167 641.613 403.322 642.685 403.357L659.574 403.905C660.289 403.929 660.849 404.524 660.849 405.24C660.849 407.672 661.025 410.064 661.365 412.404C662.163 417.898 659.594 423.672 654.384 425.588C649.139 427.517 643.249 424.817 642.131 419.343C641.193 414.752 640.713 410.033 640.713 405.24ZM649.335 438.909C646.628 434.008 649.371 428.122 654.626 426.189L655.007 426.049C660.002 424.212 665.487 426.853 668.294 431.375C671.107 435.907 670.962 441.945 667.067 445.59L666.78 445.859C662.704 449.674 656.234 449.49 653.054 444.902C651.709 442.962 650.468 440.962 649.335 438.909ZM661.197 454.639C660.437 453.88 660.477 452.646 661.26 451.912L669.393 444.3C672.248 441.628 676.687 441.798 679.752 444.226C682.758 446.607 683.975 450.788 682.145 454.158L680.756 456.714C678.038 461.718 671.675 463.549 667.217 460.008C665.125 458.346 663.115 456.555 661.197 454.639ZM768.091 510.154C773.52 520.149 766.284 532.313 754.91 532.313H666.388C655.014 532.313 647.778 520.149 653.206 510.154L674.128 471.634C675.16 469.734 677.537 469.047 679.485 469.984C679.643 470.06 679.801 470.136 679.959 470.21C681.638 471.003 682.458 472.961 681.752 474.678L681.254 475.887C680.869 476.825 679.82 477.274 678.805 477.274C675.583 477.274 672.972 479.883 672.972 483.101C672.972 486.32 675.584 488.928 678.805 488.928C682.027 488.928 684.639 486.319 684.639 483.101C684.639 481.868 684.255 480.725 683.6 479.784C682.588 478.328 681.714 476.473 682.388 474.833C683.074 473.164 684.976 472.371 686.677 472.97C692.495 475.02 698.595 476.318 704.858 476.814C706.587 476.95 707.944 478.395 707.887 480.128C707.833 481.798 706.395 483.062 704.957 483.912C703.242 484.926 702.091 486.793 702.091 488.928C702.091 492.147 704.703 494.756 707.925 494.756C711.146 494.756 713.758 492.147 713.758 488.928C713.758 486.93 712.751 485.167 711.215 484.118C709.835 483.174 708.48 481.816 708.535 480.144L708.571 479.024C708.607 477.912 709.535 477.042 710.648 477.042C717.676 477.042 724.551 476.041 731.109 474.106C732.858 473.59 734.738 474.489 735.345 476.209C735.912 477.816 735.052 479.556 734.063 480.944C733.384 481.896 732.984 483.061 732.984 484.319C732.984 487.538 735.596 490.146 738.818 490.146C742.039 490.146 744.651 487.537 744.651 484.319C744.651 481.101 742.039 478.492 738.818 478.492C737.761 478.492 736.664 478 736.312 477.003L735.908 475.858C735.329 474.216 736.19 472.42 737.804 471.763C738.591 471.442 739.373 471.108 740.149 470.759C743.043 469.457 746.53 470.457 748.044 473.245L768.091 510.154ZM752.163 461.478C748.632 464.09 743.772 462.662 741.676 458.802L738.392 452.756C736.986 450.168 737.912 446.952 740.277 445.198C742.689 443.409 746.103 443.509 748.158 445.699L752.861 450.713C755.824 453.871 755.644 458.903 752.163 461.478ZM760.102 454.639C759.341 455.398 758.107 455.359 757.372 454.575L751.267 448.067C747.756 444.324 747.997 438.506 751.008 434.35C754.012 430.203 759.469 428.109 764.119 430.253L764.814 430.573C769.901 432.919 772.165 439.011 769.071 443.682C766.487 447.584 763.49 451.255 760.102 454.639ZM777.834 424.758C776.28 430.124 770.194 432.341 765.121 430.002L764.746 429.829C759.907 427.598 757.845 421.998 759.085 416.816C760.323 411.641 764.702 407.319 770.019 407.491L770.423 407.504C776.003 407.686 780.449 412.393 779.449 417.886C779.026 420.21 778.487 422.503 777.834 424.758Z" fill="#95A9A7"/>
<path d="M609.563 484.032H597.512C589.227 484.032 582.512 490.748 582.512 499.032V524.786C582.512 533.07 589.227 539.786 597.512 539.786H609.563C617.847 539.786 624.563 533.07 624.563 524.786V499.032C624.563 490.748 617.847 484.032 609.563 484.032Z" fill="#95A9A7"/>
<path d="M1042.88 575.472C1035.45 575.472 1029.15 570.037 1028.05 562.692L1022.66 526.676C1021.97 522.107 1018.05 518.726 1013.43 518.726C1008.27 518.726 1004.1 514.549 1004.1 509.396V472.713C1004.1 472.12 1004.58 471.64 1005.17 471.64C1005.76 471.64 1006.24 471.159 1006.24 470.566V469.509C1006.24 468.333 1005.29 467.379 1004.11 467.379H1002.03C999.7 467.379 997.812 465.491 997.812 463.163V449.552C997.812 449.268 997.582 449.037 997.298 449.037C997.014 449.037 996.784 449.268 996.784 449.552V464.465C996.784 466.074 995.479 467.379 993.87 467.379C992.261 467.379 990.956 466.074 990.956 464.465V452.868C990.956 452.584 990.726 452.353 990.442 452.353C990.158 452.353 989.928 452.584 989.928 452.868V459.866C989.928 464.015 986.564 467.379 982.415 467.379H956.928C955.752 467.379 954.798 468.333 954.798 469.509V470.44C954.798 471.103 955.335 471.64 955.998 471.64C956.66 471.64 957.198 472.177 957.198 472.84V552.18C957.198 560.464 950.482 567.18 942.198 567.18H932.089C923.805 567.18 917.089 560.464 917.089 552.18V535.805C917.089 529.497 911.975 524.384 905.668 524.384C899.36 524.384 894.246 519.27 894.246 512.963V420.267C894.246 419.69 894.714 419.222 895.291 419.222C895.868 419.222 896.336 418.754 896.336 418.177V416.342C896.336 415.083 895.315 414.062 894.055 414.062C892.796 414.062 891.775 413.041 891.775 411.781V410.083C891.775 408.633 890.599 407.458 889.149 407.458H889.006C887.635 407.458 886.524 406.346 886.524 404.975V397.423V394.038C886.524 392.289 885.106 390.871 883.356 390.871C881.607 390.871 880.188 389.452 880.188 387.703V379.925C880.188 379.504 879.847 379.163 879.426 379.163C879.006 379.163 878.665 379.504 878.665 379.925V388.9C878.665 389.989 877.783 390.871 876.695 390.871C875.835 390.871 875.074 391.429 874.815 392.249L874.217 394.147C873.603 396.097 871.794 397.423 869.75 397.423H864.379C861.608 397.423 859.362 399.67 859.362 402.44C859.362 405.211 857.116 407.458 854.345 407.458H826.483C824.66 407.458 823.181 408.936 823.181 410.76V411.781C823.181 413.041 822.16 414.062 820.901 414.062C819.641 414.062 818.62 415.083 818.62 416.342V418.177C818.62 418.754 819.088 419.222 819.665 419.222C820.242 419.222 820.71 419.69 820.71 420.267V472.644C820.71 480.928 813.858 487.644 805.574 487.644C797.289 487.644 790.438 494.36 790.438 502.644V531.83C790.438 542.675 779.284 549.936 769.367 545.547L765.776 543.958C760.347 541.555 756.846 536.177 756.846 530.241V477.462C756.846 475.966 758.06 474.752 759.556 474.752H759.869C761.193 474.752 762.266 473.679 762.266 472.355C762.266 471.032 761.193 469.958 759.869 469.958H757.499C754.867 469.958 752.733 467.824 752.733 465.192V463.452C752.733 459.859 749.82 456.946 746.226 456.946H718.412C714.819 456.946 711.906 459.859 711.906 463.452C711.906 467.045 708.993 469.958 705.399 469.958H705.075C701.482 469.958 698.569 467.045 698.569 463.452V460.374C698.569 458.48 697.034 456.946 695.141 456.946C693.248 456.946 691.713 458.48 691.713 460.374V466.53C691.713 468.424 690.178 469.958 688.285 469.958C686.392 469.958 684.857 468.424 684.857 466.53V460.717C684.857 458.634 683.168 456.946 681.086 456.946C679.003 456.946 677.315 458.634 677.315 460.717V463.452C677.315 467.045 674.402 469.958 670.808 469.958H663.943C662.619 469.958 661.546 471.032 661.546 472.355V473.552C661.546 474.215 662.083 474.752 662.746 474.752C663.408 474.752 663.946 475.29 663.946 475.952V557.54C663.946 561.768 660.518 565.196 656.289 565.196H649.107C648.845 565.196 648.632 564.984 648.632 564.722C648.632 564.46 648.42 564.247 648.158 564.247H647.246C646.481 564.247 645.86 563.627 645.86 562.861V539.86C645.86 539.094 646.481 538.474 647.246 538.474H647.599C648.17 538.474 648.632 538.011 648.632 537.44C648.632 536.869 648.17 536.407 647.599 536.407H647.246C646.481 536.407 645.86 535.786 645.86 535.02V512.019C645.86 511.253 646.481 510.633 647.246 510.633H647.599C648.17 510.633 648.632 510.17 648.632 509.599C648.632 509.028 648.17 508.565 647.599 508.565H647.246C646.481 508.565 645.86 507.945 645.86 507.179V484.178C645.86 483.412 646.481 482.792 647.246 482.792H647.599C648.17 482.792 648.632 482.329 648.632 481.758C648.632 481.187 648.17 480.724 647.599 480.724H647.246C646.481 480.724 645.86 480.103 645.86 479.338V456.337C645.86 455.571 646.481 454.95 647.246 454.95H647.599C648.17 454.95 648.632 454.488 648.632 453.917C648.632 453.346 648.17 452.883 647.599 452.883H647.246C646.481 452.883 645.86 452.263 645.86 451.497V428.495C645.86 427.73 646.481 427.109 647.246 427.109H647.599C648.17 427.109 648.632 426.646 648.632 426.076C648.632 425.505 648.17 425.042 647.599 425.042H647.246C646.481 425.042 645.86 424.421 645.86 423.656V400.743C645.86 399.432 646.923 398.369 648.235 398.369H649.572C650.145 398.369 650.609 397.904 650.609 397.331C650.609 396.759 651.074 396.294 651.647 396.294H651.817C652.484 396.294 653.025 395.753 653.025 395.086V393.467C653.025 391.905 651.759 390.639 650.198 390.639H611.072C609.336 390.639 607.928 389.232 607.928 387.495V385.084C607.928 384.679 608.256 384.351 608.661 384.351C609.067 384.351 609.395 384.022 609.395 383.617V383.442C609.395 382.941 608.988 382.534 608.487 382.534H585.751C585.249 382.534 584.842 382.941 584.842 383.442V383.617C584.842 384.022 585.171 384.351 585.576 384.351C585.981 384.351 586.309 384.679 586.309 385.084V387.495C586.309 389.232 584.901 390.639 583.165 390.639H577.96C576.398 390.639 575.132 391.905 575.132 393.467V395.086C575.132 395.753 575.673 396.294 576.341 396.294H576.511C577.084 396.294 577.549 396.759 577.549 397.331C577.549 397.904 578.013 398.369 578.586 398.369H579.923C581.234 398.369 582.297 399.432 582.297 400.743V423.656C582.297 424.422 581.677 425.042 580.911 425.042H580.559C579.988 425.042 579.526 425.505 579.526 426.076C579.526 426.646 579.988 427.109 580.559 427.109H580.911C581.677 427.109 582.297 427.73 582.297 428.495V451.497C582.297 452.263 581.677 452.883 580.911 452.883H580.559C579.988 452.883 579.526 453.346 579.526 453.917C579.526 454.488 579.988 454.95 580.559 454.95H580.911C581.677 454.95 582.297 455.571 582.297 456.336V479.338C582.297 480.104 581.677 480.724 580.911 480.724H580.559C579.988 480.724 579.526 481.187 579.526 481.758C579.526 482.329 579.988 482.792 580.559 482.792H580.911C581.677 482.792 582.297 483.412 582.297 484.178V507.179C582.297 507.945 581.677 508.565 580.911 508.565H580.559C579.988 508.565 579.526 509.028 579.526 509.599C579.526 510.17 579.988 510.633 580.559 510.633H580.911C581.677 510.633 582.297 511.253 582.297 512.018V535.021C582.297 535.786 581.677 536.407 580.911 536.407H580.559C579.988 536.407 579.526 536.869 579.526 537.44C579.526 538.011 579.988 538.474 580.559 538.474H580.911C581.677 538.474 582.297 539.094 582.297 539.86V562.862C582.297 563.627 581.677 564.247 580.911 564.247H580.559C579.988 564.247 579.526 564.71 579.526 565.281C579.526 565.852 579.988 566.315 580.559 566.315H580.911C581.677 566.315 582.297 566.936 582.297 567.701V579.681C582.297 583.931 578.852 587.377 574.601 587.377C570.351 587.377 566.905 583.931 566.905 579.681V520.989C566.905 512.705 560.189 505.989 551.905 505.989H519.97C511.686 505.989 504.97 512.705 504.97 520.989V560.169C504.97 562.945 502.719 565.196 499.942 565.196C497.165 565.196 494.914 562.945 494.914 560.169V384.478C494.914 382.424 493.249 380.758 491.194 380.758H490.134C488.665 380.758 487.474 381.949 487.474 383.418C487.474 384.643 486.637 385.71 485.446 386.001L475.424 388.45C474.57 388.659 473.746 388.012 473.746 387.133C473.746 386.384 473.139 385.776 472.39 385.776H469.052C467.536 385.776 466.307 387.006 466.307 388.522C466.307 389.788 465.442 390.889 464.213 391.189L454.503 393.562C453.523 393.802 452.578 393.06 452.578 392.051C452.578 391.193 451.882 390.496 451.023 390.496H448.138C446.482 390.496 445.139 391.839 445.139 393.496C445.139 394.878 444.194 396.081 442.851 396.409L432.998 398.817C432.19 399.014 431.41 398.402 431.41 397.57C431.41 396.862 430.836 396.288 430.128 396.288H426.623C425.158 396.288 423.971 397.475 423.971 398.94C423.971 400.162 423.135 401.226 421.948 401.517L411.61 404.043C410.914 404.213 410.242 403.685 410.242 402.969C410.242 402.358 409.748 401.864 409.137 401.864H406.523C404.469 401.864 402.803 403.529 402.803 405.583V577.752C402.803 580.643 400.46 582.986 397.57 582.986C394.68 582.986 392.336 580.643 392.336 577.752V501.424C392.336 493.14 385.621 486.424 377.336 486.424H368.571C360.286 486.424 353.571 493.14 353.571 501.424V530.802C353.571 539.087 346.855 545.802 338.571 545.802H328.828C320.544 545.802 313.828 539.086 313.828 530.802V497.615C313.828 496.263 312.732 495.167 311.38 495.167C310.028 495.167 308.932 494.071 308.932 492.719V479.991C308.932 479.189 309.583 478.538 310.385 478.538H311.003C311.465 478.538 311.839 478.164 311.839 477.703C311.839 477.242 311.465 476.868 311.003 476.868H301.591C300.147 476.868 298.977 475.697 298.977 474.254V472.325C298.977 471.947 298.67 471.64 298.291 471.64C297.913 471.64 297.606 471.947 297.606 472.325V474.811C297.606 475.947 296.685 476.868 295.549 476.868C294.413 476.868 293.492 475.947 293.492 474.811V450.543C293.492 450.259 293.262 450.028 292.978 450.028C292.694 450.028 292.463 450.259 292.463 450.543V474.189C292.463 475.668 291.264 476.868 289.784 476.868H287.941C287.479 476.868 287.105 477.242 287.105 477.703C287.105 478.164 287.479 478.538 287.941 478.538H288.682C289.553 478.538 290.258 479.244 290.258 480.115V486.852C290.258 491.444 286.536 495.167 281.944 495.167H277.144C269.901 495.167 264.03 501.038 264.03 508.281V519.326C264.03 527.316 257.552 533.793 249.562 533.793C243.03 533.793 237.308 538.171 235.598 544.475L228.16 571.911C226.388 578.447 220.455 582.986 213.683 582.986H213.401C205.116 582.986 198.401 576.27 198.401 567.986V437.374C198.401 429.09 191.685 422.374 183.401 422.374H165.849C164.26 422.374 162.972 421.086 162.972 419.497V417.627C162.972 417.071 163.423 416.62 163.979 416.62C164.534 416.62 164.985 416.168 164.985 415.612C164.985 415.055 164.533 414.601 163.975 414.601H139.162C138.604 414.601 138.152 415.053 138.152 415.611C138.152 416.168 138.604 416.62 139.162 416.62H139.207C139.789 416.62 140.262 417.093 140.262 417.675V422.374V431.628V533.273C140.262 537.886 136.522 541.626 131.909 541.626C127.296 541.626 123.557 537.886 123.557 533.273V503.034C123.557 501.394 124.886 500.065 126.526 500.065H127.614C128.653 500.065 129.495 499.223 129.495 498.184C129.495 497.145 128.653 496.302 127.614 496.302H100.016C93.0822 496.302 87.4615 490.682 87.4615 483.748V475.204C87.4615 472.989 85.6664 471.194 83.452 471.194H82.022C80.5974 471.194 79.4425 470.039 79.4425 468.615C79.4425 467.19 78.2876 466.035 76.8629 466.035H64.1243C62.6996 466.035 61.5447 467.19 61.5447 468.615C61.5447 470.039 60.3898 471.194 58.9652 471.194H54.2629C50.2412 471.194 46.9811 474.454 46.9811 478.476V545.846C46.9811 554.13 40.2653 560.846 31.9811 560.846H14.2037C5.91943 560.846 -0.796295 554.13 -0.796295 545.846V509.355C-0.796295 501.07 -7.51202 494.355 -15.7963 494.355H-26.0275C-34.3118 494.355 -41.0275 501.07 -41.0275 509.355V531.873C-41.0275 540.157 -47.7433 546.873 -56.0275 546.873H-60.9399C-69.2242 546.873 -75.9399 553.588 -75.9399 561.873V567.889C-75.9399 574.84 -81.5751 580.475 -88.5264 580.475C-95.4777 580.475 -101.113 574.84 -101.113 567.889V553.232C-101.113 544.948 -107.829 538.232 -116.113 538.232H-119.218C-127.502 538.232 -134.218 544.948 -134.218 553.232V559.262C-134.218 567.539 -140.927 574.248 -149.204 574.248C-157.48 574.248 -164.189 580.958 -164.189 589.234V620.507C-164.189 628.792 -157.474 635.507 -149.189 635.507H-134.218H-124.087H-107.54H-101.113H-75.9399H-41.0275H-29.2949H-23.0135H-0.796295H46.9811H61.5447H79.4425H87.4615H118.819H123.557H140.262H168.276H182.077H198.401H264.03H279.185H304.771H313.828H354.249H365.11H402.803H406.523H410.242H423.971H431.41H445.139H451.357H452.578H466.307H473.746H485.548H487.474H491.194H494.914H504.97H556.163H563.476H566.905H582.297H609.395H634.202H645.86H663.946H708.859H756.351H756.846H790.438H809.219H820.71H827.969H884.179H894.246H906.283H917.089H957.198H987.021H993.127H1004.1H1055.83C1064.11 635.507 1070.83 628.792 1070.83 620.507V590.472C1070.83 582.188 1064.11 575.472 1055.83 575.472H1042.88Z" fill="#658280"/>
<g opacity="0.52">
<path d="M51.1641 479.234C51.1641 480.079 51.8509 480.764 52.6961 480.764C53.5413 480.764 54.2282 480.079 54.2282 479.234C54.2282 478.388 53.5413 477.703 52.6961 477.703C51.8509 477.703 51.1641 478.388 51.1641 479.234Z" fill="white"/>
<path d="M57.3203 479.234C57.3203 480.079 58.0072 480.764 58.8524 480.764C59.6976 480.764 60.3844 480.079 60.3844 479.234C60.3844 478.388 59.6976 477.703 58.8524 477.703C58.0072 477.703 57.3203 478.388 57.3203 479.234Z" fill="white"/>
<path d="M51.1641 486.424C51.1641 487.269 51.8509 487.955 52.6961 487.955C53.5413 487.955 54.2282 487.269 54.2282 486.424C54.2282 485.579 53.5413 484.894 52.6961 484.894C51.8509 484.894 51.1641 485.579 51.1641 486.424Z" fill="white"/>
<path d="M57.3203 486.424C57.3203 487.269 58.0072 487.955 58.8524 487.955C59.6976 487.955 60.3844 487.269 60.3844 486.424C60.3844 485.579 59.6976 484.894 58.8524 484.894C58.0072 484.894 57.3203 485.579 57.3203 486.424Z" fill="white"/>
<path d="M51.1641 493.376C51.1641 494.221 51.8509 494.906 52.6961 494.906C53.5413 494.906 54.2282 494.221 54.2282 493.376C54.2282 492.53 53.5413 491.845 52.6961 491.845C51.8509 491.845 51.1641 492.53 51.1641 493.376Z" fill="white"/>
<path d="M64.1621 479.234C64.1621 480.079 64.849 480.764 65.6942 480.764C66.5394 480.764 67.2262 480.079 67.2262 479.234C67.2262 478.388 66.5394 477.703 65.6942 477.703C64.849 477.703 64.1621 478.388 64.1621 479.234Z" fill="white"/>
</g>
<path opacity="0.5" d="M277.5 396.286V386.822C277.5 386.244 277.032 385.776 276.455 385.776C275.878 385.776 275.41 386.244 275.41 386.822V396.286C275.41 396.864 275.878 397.332 276.455 397.332C277.032 397.332 277.5 396.864 277.5 396.286Z" fill="white"/>
<path opacity="0.5" d="M284.703 396.286V386.822C284.703 386.244 284.236 385.776 283.658 385.776C283.081 385.776 282.613 386.244 282.613 386.822V396.286C282.613 396.864 283.081 397.332 283.658 397.332C284.236 397.332 284.703 396.864 284.703 396.286Z" fill="white"/>
<path opacity="0.5" d="M291.907 396.286V386.822C291.907 386.244 291.439 385.776 290.861 385.776C290.284 385.776 289.816 386.244 289.816 386.822V396.286C289.816 396.864 290.284 397.332 290.861 397.332C291.439 397.332 291.907 396.864 291.907 396.286Z" fill="white"/>
<path opacity="0.5" d="M299.106 396.286V386.822C299.106 386.244 298.638 385.776 298.061 385.776C297.484 385.776 297.016 386.244 297.016 386.822V396.286C297.016 396.864 297.484 397.332 298.061 397.332C298.638 397.332 299.106 396.864 299.106 396.286Z" fill="white"/>
<path opacity="0.5" d="M306.307 396.286V386.822C306.307 386.244 305.839 385.776 305.262 385.776C304.685 385.776 304.217 386.244 304.217 386.822V396.286C304.217 396.864 304.685 397.332 305.262 397.332C305.839 397.332 306.307 396.864 306.307 396.286Z" fill="white"/>
<path opacity="0.5" d="M313.514 396.286V386.822C313.514 386.244 313.046 385.776 312.469 385.776C311.892 385.776 311.424 386.244 311.424 386.822V396.286C311.424 396.864 311.892 397.332 312.469 397.332C313.046 397.332 313.514 396.864 313.514 396.286Z" fill="white"/>
<path opacity="0.5" d="M320.713 396.286V386.822C320.713 386.244 320.245 385.776 319.668 385.776C319.091 385.776 318.623 386.244 318.623 386.822V396.286C318.623 396.864 319.091 397.332 319.668 397.332C320.245 397.332 320.713 396.864 320.713 396.286Z" fill="white"/>
<path opacity="0.5" d="M327.916 396.286V386.822C327.916 386.244 327.448 385.776 326.871 385.776C326.294 385.776 325.826 386.244 325.826 386.822V396.286C325.826 396.864 326.294 397.332 326.871 397.332C327.448 397.332 327.916 396.864 327.916 396.286Z" fill="white"/>
<path opacity="0.5" d="M335.119 396.286V386.822C335.119 386.244 334.652 385.776 334.074 385.776C333.497 385.776 333.029 386.244 333.029 386.822V396.286C333.029 396.864 333.497 397.332 334.074 397.332C334.652 397.332 335.119 396.864 335.119 396.286Z" fill="white"/>
<path opacity="0.5" d="M342.323 396.286V386.822C342.323 386.244 341.855 385.776 341.278 385.776C340.7 385.776 340.232 386.244 340.232 386.822V396.286C340.232 396.864 340.7 397.332 341.278 397.332C341.855 397.332 342.323 396.864 342.323 396.286Z" fill="white"/>
<path opacity="0.5" d="M349.526 396.286V386.822C349.526 386.244 349.058 385.776 348.481 385.776C347.903 385.776 347.436 386.244 347.436 386.822V396.286C347.436 396.864 347.903 397.332 348.481 397.332C349.058 397.332 349.526 396.864 349.526 396.286Z" fill="white"/>
<path opacity="0.5" d="M277.5 412.374V402.909C277.5 402.331 277.032 401.864 276.455 401.864C275.878 401.864 275.41 402.331 275.41 402.909V412.374C275.41 412.951 275.878 413.419 276.455 413.419C277.032 413.419 277.5 412.951 277.5 412.374Z" fill="white"/>
<path opacity="0.5" d="M284.703 412.374V402.909C284.703 402.331 284.236 401.864 283.658 401.864C283.081 401.864 282.613 402.331 282.613 402.909V412.374C282.613 412.951 283.081 413.419 283.658 413.419C284.236 413.419 284.703 412.951 284.703 412.374Z" fill="white"/>
<path opacity="0.5" d="M291.907 412.374V402.909C291.907 402.331 291.439 401.864 290.861 401.864C290.284 401.864 289.816 402.331 289.816 402.909V412.374C289.816 412.951 290.284 413.419 290.861 413.419C291.439 413.419 291.907 412.951 291.907 412.374Z" fill="white"/>
<path opacity="0.5" d="M299.106 412.374V402.909C299.106 402.331 298.638 401.864 298.061 401.864C297.484 401.864 297.016 402.331 297.016 402.909V412.374C297.016 412.951 297.484 413.419 298.061 413.419C298.638 413.419 299.106 412.951 299.106 412.374Z" fill="white"/>
<path opacity="0.5" d="M306.307 412.374V402.909C306.307 402.331 305.839 401.864 305.262 401.864C304.685 401.864 304.217 402.331 304.217 402.909V412.374C304.217 412.951 304.685 413.419 305.262 413.419C305.839 413.419 306.307 412.951 306.307 412.374Z" fill="white"/>
<path opacity="0.5" d="M313.514 412.374V402.909C313.514 402.331 313.046 401.864 312.469 401.864C311.892 401.864 311.424 402.331 311.424 402.909V412.374C311.424 412.951 311.892 413.419 312.469 413.419C313.046 413.419 313.514 412.951 313.514 412.374Z" fill="white"/>
<path opacity="0.5" d="M320.713 412.374V402.909C320.713 402.331 320.245 401.864 319.668 401.864C319.091 401.864 318.623 402.331 318.623 402.909V412.374C318.623 412.951 319.091 413.419 319.668 413.419C320.245 413.419 320.713 412.951 320.713 412.374Z" fill="white"/>
<path opacity="0.5" d="M327.916 412.374V402.909C327.916 402.331 327.448 401.864 326.871 401.864C326.294 401.864 325.826 402.331 325.826 402.909V412.374C325.826 412.951 326.294 413.419 326.871 413.419C327.448 413.419 327.916 412.951 327.916 412.374Z" fill="white"/>
<path opacity="0.5" d="M335.119 412.374V402.909C335.119 402.331 334.652 401.864 334.074 401.864C333.497 401.864 333.029 402.331 333.029 402.909V412.374C333.029 412.951 333.497 413.419 334.074 413.419C334.652 413.419 335.119 412.951 335.119 412.374Z" fill="white"/>
<path opacity="0.5" d="M342.323 412.374V402.909C342.323 402.331 341.855 401.864 341.278 401.864C340.7 401.864 340.232 402.331 340.232 402.909V412.374C340.232 412.951 340.7 413.419 341.278 413.419C341.855 413.419 342.323 412.951 342.323 412.374Z" fill="white"/>
<path opacity="0.5" d="M349.526 412.374V402.909C349.526 402.331 349.058 401.864 348.481 401.864C347.903 401.864 347.436 402.331 347.436 402.909V412.374C347.436 412.951 347.903 413.419 348.481 413.419C349.058 413.419 349.526 412.951 349.526 412.374Z" fill="white"/>
<path opacity="0.5" d="M277.5 428.46V418.995C277.5 418.418 277.032 417.95 276.455 417.95C275.878 417.95 275.41 418.418 275.41 418.995V428.46C275.41 429.037 275.878 429.505 276.455 429.505C277.032 429.505 277.5 429.037 277.5 428.46Z" fill="white"/>
<path opacity="0.5" d="M284.703 428.46V418.995C284.703 418.418 284.236 417.95 283.658 417.95C283.081 417.95 282.613 418.418 282.613 418.995V428.46C282.613 429.037 283.081 429.505 283.658 429.505C284.236 429.505 284.703 429.037 284.703 428.46Z" fill="white"/>
<path opacity="0.5" d="M291.907 428.46V418.995C291.907 418.418 291.439 417.95 290.861 417.95C290.284 417.95 289.816 418.418 289.816 418.995V428.46C289.816 429.037 290.284 429.505 290.861 429.505C291.439 429.505 291.907 429.037 291.907 428.46Z" fill="white"/>
<path opacity="0.5" d="M299.106 428.46V418.995C299.106 418.418 298.638 417.95 298.061 417.95C297.484 417.95 297.016 418.418 297.016 418.995V428.46C297.016 429.037 297.484 429.505 298.061 429.505C298.638 429.505 299.106 429.037 299.106 428.46Z" fill="white"/>
<path opacity="0.5" d="M306.307 428.46V418.995C306.307 418.418 305.839 417.95 305.262 417.95C304.685 417.95 304.217 418.418 304.217 418.995V428.46C304.217 429.037 304.685 429.505 305.262 429.505C305.839 429.505 306.307 429.037 306.307 428.46Z" fill="white"/>
<path opacity="0.5" d="M313.514 428.46V418.995C313.514 418.418 313.046 417.95 312.469 417.95C311.892 417.95 311.424 418.418 311.424 418.995V428.46C311.424 429.037 311.892 429.505 312.469 429.505C313.046 429.505 313.514 429.037 313.514 428.46Z" fill="white"/>
<path opacity="0.5" d="M320.713 428.46V418.995C320.713 418.418 320.245 417.95 319.668 417.95C319.091 417.95 318.623 418.418 318.623 418.995V428.46C318.623 429.037 319.091 429.505 319.668 429.505C320.245 429.505 320.713 429.037 320.713 428.46Z" fill="white"/>
<path opacity="0.5" d="M327.916 428.46V418.995C327.916 418.418 327.448 417.95 326.871 417.95C326.294 417.95 325.826 418.418 325.826 418.995V428.46C325.826 429.037 326.294 429.505 326.871 429.505C327.448 429.505 327.916 429.037 327.916 428.46Z" fill="white"/>
<path opacity="0.5" d="M335.119 428.46V418.995C335.119 418.418 334.652 417.95 334.074 417.95C333.497 417.95 333.029 418.418 333.029 418.995V428.46C333.029 429.037 333.497 429.505 334.074 429.505C334.652 429.505 335.119 429.037 335.119 428.46Z" fill="white"/>
<path opacity="0.5" d="M342.323 428.46V418.995C342.323 418.418 341.855 417.95 341.278 417.95C340.7 417.95 340.232 418.418 340.232 418.995V428.46C340.232 429.037 340.7 429.505 341.278 429.505C341.855 429.505 342.323 429.037 342.323 428.46Z" fill="white"/>
<path opacity="0.5" d="M349.526 428.46V418.995C349.526 418.418 349.058 417.95 348.481 417.95C347.903 417.95 347.436 418.418 347.436 418.995V428.46C347.436 429.037 347.903 429.505 348.481 429.505C349.058 429.505 349.526 429.037 349.526 428.46Z" fill="white"/>
<path opacity="0.5" d="M299.106 444.547V435.082C299.106 434.505 298.638 434.037 298.061 434.037C297.484 434.037 297.016 434.505 297.016 435.082V444.547C297.016 445.124 297.484 445.592 298.061 445.592C298.638 445.592 299.106 445.124 299.106 444.547Z" fill="white"/>
<path opacity="0.5" d="M306.307 444.547V435.082C306.307 434.505 305.839 434.037 305.262 434.037C304.685 434.037 304.217 434.505 304.217 435.082V444.547C304.217 445.124 304.685 445.592 305.262 445.592C305.839 445.592 306.307 445.124 306.307 444.547Z" fill="white"/>
<path opacity="0.5" d="M313.514 444.547V435.082C313.514 434.505 313.046 434.037 312.469 434.037C311.892 434.037 311.424 434.505 311.424 435.082V444.547C311.424 445.124 311.892 445.592 312.469 445.592C313.046 445.592 313.514 445.124 313.514 444.547Z" fill="white"/>
<path opacity="0.5" d="M320.713 444.547V435.082C320.713 434.505 320.245 434.037 319.668 434.037C319.091 434.037 318.623 434.505 318.623 435.082V444.547C318.623 445.124 319.091 445.592 319.668 445.592C320.245 445.592 320.713 445.124 320.713 444.547Z" fill="white"/>
<path opacity="0.5" d="M327.916 444.547V435.082C327.916 434.505 327.448 434.037 326.871 434.037C326.294 434.037 325.826 434.505 325.826 435.082V444.547C325.826 445.124 326.294 445.592 326.871 445.592C327.448 445.592 327.916 445.124 327.916 444.547Z" fill="white"/>
<path opacity="0.5" d="M335.119 444.547V435.082C335.119 434.505 334.652 434.037 334.074 434.037C333.497 434.037 333.029 434.505 333.029 435.082V444.547C333.029 445.124 333.497 445.592 334.074 445.592C334.652 445.592 335.119 445.124 335.119 444.547Z" fill="white"/>
<path opacity="0.5" d="M342.323 444.547V435.082C342.323 434.505 341.855 434.037 341.278 434.037C340.7 434.037 340.232 434.505 340.232 435.082V444.547C340.232 445.124 340.7 445.592 341.278 445.592C341.855 445.592 342.323 445.124 342.323 444.547Z" fill="white"/>
<path opacity="0.5" d="M349.526 444.547V435.082C349.526 434.505 349.058 434.037 348.481 434.037C347.903 434.037 347.436 434.505 347.436 435.082V444.547C347.436 445.124 347.903 445.592 348.481 445.592C349.058 445.592 349.526 445.124 349.526 444.547Z" fill="white"/>
<path opacity="0.5" d="M306.307 461.526V452.061C306.307 451.484 305.839 451.016 305.262 451.016C304.685 451.016 304.217 451.484 304.217 452.061V461.526C304.217 462.103 304.685 462.571 305.262 462.571C305.839 462.571 306.307 462.103 306.307 461.526Z" fill="white"/>
<path opacity="0.5" d="M313.514 461.526V452.061C313.514 451.484 313.046 451.016 312.469 451.016C311.892 451.016 311.424 451.484 311.424 452.061V461.526C311.424 462.103 311.892 462.571 312.469 462.571C313.046 462.571 313.514 462.103 313.514 461.526Z" fill="white"/>
<path opacity="0.5" d="M320.713 461.526V452.061C320.713 451.484 320.245 451.016 319.668 451.016C319.091 451.016 318.623 451.484 318.623 452.061V461.526C318.623 462.103 319.091 462.571 319.668 462.571C320.245 462.571 320.713 462.103 320.713 461.526Z" fill="white"/>
<path opacity="0.5" d="M327.916 461.526V452.061C327.916 451.484 327.448 451.016 326.871 451.016C326.294 451.016 325.826 451.484 325.826 452.061V461.526C325.826 462.103 326.294 462.571 326.871 462.571C327.448 462.571 327.916 462.103 327.916 461.526Z" fill="white"/>
<path opacity="0.5" d="M335.119 461.526V452.061C335.119 451.484 334.652 451.016 334.074 451.016C333.497 451.016 333.029 451.484 333.029 452.061V461.526C333.029 462.103 333.497 462.571 334.074 462.571C334.652 462.571 335.119 462.103 335.119 461.526Z" fill="white"/>
<path opacity="0.5" d="M342.323 461.526V452.061C342.323 451.484 341.855 451.016 341.278 451.016C340.7 451.016 340.232 451.484 340.232 452.061V461.526C340.232 462.103 340.7 462.571 341.278 462.571C341.855 462.571 342.323 462.103 342.323 461.526Z" fill="white"/>
<path opacity="0.5" d="M349.526 461.526V452.061C349.526 451.484 349.058 451.016 348.481 451.016C347.903 451.016 347.436 451.484 347.436 452.061V461.526C347.436 462.103 347.903 462.571 348.481 462.571C349.058 462.571 349.526 462.103 349.526 461.526Z" fill="white"/>
<path opacity="0.33" d="M419.578 424.496V416.925C419.578 415.562 418.473 414.456 417.109 414.456C415.746 414.456 414.641 415.562 414.641 416.925V424.496C414.641 425.859 415.746 426.965 417.109 426.965C418.473 426.965 419.578 425.859 419.578 424.496Z" fill="white"/>
<path opacity="0.33" d="M419.578 448.422V440.851C419.578 439.487 418.473 438.382 417.109 438.382C415.746 438.382 414.641 439.487 414.641 440.851V448.422C414.641 449.785 415.746 450.89 417.109 450.89C418.473 450.89 419.578 449.785 419.578 448.422Z" fill="white"/>
<path opacity="0.33" d="M419.578 472.348V464.777C419.578 463.414 418.473 462.308 417.109 462.308C415.746 462.308 414.641 463.414 414.641 464.777V472.348C414.641 473.711 415.746 474.817 417.109 474.817C418.473 474.817 419.578 473.711 419.578 472.348Z" fill="white"/>
<path opacity="0.33" d="M419.578 496.274V488.703C419.578 487.34 418.473 486.234 417.109 486.234C415.746 486.234 414.641 487.339 414.641 488.703V496.274C414.641 497.637 415.746 498.742 417.109 498.742C418.473 498.742 419.578 497.637 419.578 496.274Z" fill="white"/>
<path opacity="0.33" d="M419.578 518.831V511.26C419.578 509.897 418.473 508.792 417.109 508.792C415.746 508.792 414.641 509.897 414.641 511.26V518.831C414.641 520.194 415.746 521.3 417.109 521.3C418.473 521.3 419.578 520.194 419.578 518.831Z" fill="white"/>
<path opacity="0.33" d="M419.578 542.757V535.186C419.578 533.823 418.473 532.717 417.109 532.717C415.746 532.717 414.641 533.823 414.641 535.186V542.757C414.641 544.12 415.746 545.226 417.109 545.226C418.473 545.226 419.578 544.12 419.578 542.757Z" fill="white"/>
<path opacity="0.33" d="M440.752 424.496V416.925C440.752 415.562 439.646 414.456 438.283 414.456C436.92 414.456 435.814 415.562 435.814 416.925V424.496C435.814 425.859 436.92 426.965 438.283 426.965C439.646 426.965 440.752 425.859 440.752 424.496Z" fill="white"/>
<path opacity="0.33" d="M440.752 448.422V440.851C440.752 439.487 439.646 438.382 438.283 438.382C436.92 438.382 435.814 439.487 435.814 440.851V448.422C435.814 449.785 436.92 450.89 438.283 450.89C439.646 450.89 440.752 449.785 440.752 448.422Z" fill="white"/>
<path opacity="0.33" d="M440.752 472.348V464.777C440.752 463.414 439.646 462.308 438.283 462.308C436.92 462.308 435.814 463.414 435.814 464.777V472.348C435.814 473.711 436.92 474.817 438.283 474.817C439.646 474.817 440.752 473.711 440.752 472.348Z" fill="white"/>
<path opacity="0.33" d="M440.752 496.274V488.703C440.752 487.34 439.646 486.234 438.283 486.234C436.92 486.234 435.814 487.339 435.814 488.703V496.274C435.814 497.637 436.92 498.742 438.283 498.742C439.646 498.742 440.752 497.637 440.752 496.274Z" fill="white"/>
<path opacity="0.33" d="M440.752 518.831V511.26C440.752 509.897 439.646 508.792 438.283 508.792C436.92 508.792 435.814 509.897 435.814 511.26V518.831C435.814 520.194 436.92 521.3 438.283 521.3C439.646 521.3 440.752 520.194 440.752 518.831Z" fill="white"/>
<path opacity="0.33" d="M440.752 542.757V535.186C440.752 533.823 439.646 532.717 438.283 532.717C436.92 532.717 435.814 533.823 435.814 535.186V542.757C435.814 544.12 436.92 545.226 438.283 545.226C439.646 545.226 440.752 544.12 440.752 542.757Z" fill="white"/>
<path opacity="0.33" d="M461.918 424.496V416.925C461.918 415.562 460.813 414.456 459.449 414.456C458.086 414.456 456.98 415.562 456.98 416.925V424.496C456.98 425.859 458.086 426.965 459.449 426.965C460.813 426.965 461.918 425.859 461.918 424.496Z" fill="white"/>
<path opacity="0.33" d="M461.918 448.422V440.851C461.918 439.487 460.813 438.382 459.449 438.382C458.086 438.382 456.98 439.487 456.98 440.851V448.422C456.98 449.785 458.086 450.89 459.449 450.89C460.813 450.89 461.918 449.785 461.918 448.422Z" fill="white"/>
<path opacity="0.33" d="M461.918 472.348V464.777C461.918 463.414 460.813 462.308 459.449 462.308C458.086 462.308 456.98 463.414 456.98 464.777V472.348C456.98 473.711 458.086 474.817 459.449 474.817C460.813 474.817 461.918 473.711 461.918 472.348Z" fill="white"/>
<path opacity="0.33" d="M461.918 496.274V488.703C461.918 487.34 460.813 486.234 459.449 486.234C458.086 486.234 456.98 487.339 456.98 488.703V496.274C456.98 497.637 458.086 498.742 459.449 498.742C460.813 498.742 461.918 497.637 461.918 496.274Z" fill="white"/>
<path opacity="0.33" d="M461.918 518.831V511.26C461.918 509.897 460.813 508.792 459.449 508.792C458.086 508.792 456.98 509.897 456.98 511.26V518.831C456.98 520.194 458.086 521.3 459.449 521.3C460.813 521.3 461.918 520.194 461.918 518.831Z" fill="white"/>
<path opacity="0.33" d="M461.918 542.757V535.186C461.918 533.823 460.813 532.717 459.449 532.717C458.086 532.717 456.98 533.823 456.98 535.186V542.757C456.98 544.12 458.086 545.226 459.449 545.226C460.813 545.226 461.918 544.12 461.918 542.757Z" fill="white"/>
<path opacity="0.33" d="M483.088 424.496V416.925C483.088 415.562 481.982 414.456 480.619 414.456C479.256 414.456 478.15 415.562 478.15 416.925V424.496C478.15 425.859 479.256 426.965 480.619 426.965C481.982 426.965 483.088 425.859 483.088 424.496Z" fill="white"/>
<path opacity="0.33" d="M483.088 448.422V440.851C483.088 439.487 481.982 438.382 480.619 438.382C479.256 438.382 478.15 439.487 478.15 440.851V448.422C478.15 449.785 479.256 450.89 480.619 450.89C481.982 450.89 483.088 449.785 483.088 448.422Z" fill="white"/>
<path opacity="0.33" d="M483.088 472.348V464.777C483.088 463.414 481.982 462.308 480.619 462.308C479.256 462.308 478.15 463.414 478.15 464.777V472.348C478.15 473.711 479.256 474.817 480.619 474.817C481.982 474.817 483.088 473.711 483.088 472.348Z" fill="white"/>
<path opacity="0.33" d="M483.088 496.274V488.703C483.088 487.34 481.982 486.234 480.619 486.234C479.256 486.234 478.15 487.339 478.15 488.703V496.274C478.15 497.637 479.256 498.742 480.619 498.742C481.982 498.742 483.088 497.637 483.088 496.274Z" fill="white"/>
<path opacity="0.33" d="M483.088 518.831V511.26C483.088 509.897 481.982 508.792 480.619 508.792C479.256 508.792 478.15 509.897 478.15 511.26V518.831C478.15 520.194 479.256 521.3 480.619 521.3C481.982 521.3 483.088 520.194 483.088 518.831Z" fill="white"/>
<path opacity="0.33" d="M483.088 542.757V535.186C483.088 533.823 481.982 532.717 480.619 532.717C479.256 532.717 478.15 533.823 478.15 535.186V542.757C478.15 544.12 479.256 545.226 480.619 545.226C481.982 545.226 483.088 544.12 483.088 542.757Z" fill="white"/>
<path opacity="0.5" d="M339.227 248.911V242.072C339.227 240.938 338.307 240.018 337.173 240.018C336.039 240.018 335.119 240.937 335.119 242.072V248.911C335.119 250.045 336.039 250.965 337.173 250.965C338.307 250.965 339.227 250.045 339.227 248.911Z" fill="white"/>
<path opacity="0.5" d="M349.365 248.911V242.072C349.365 240.938 348.446 240.018 347.312 240.018C346.177 240.018 345.258 240.938 345.258 242.072V248.911C345.258 250.045 346.177 250.965 347.312 250.965C348.446 250.965 349.365 250.045 349.365 248.911Z" fill="white"/>
<path opacity="0.5" d="M359.5 248.911V242.072C359.5 240.938 358.581 240.018 357.446 240.018C356.312 240.018 355.393 240.937 355.393 242.072V248.911C355.393 250.045 356.312 250.965 357.446 250.965C358.581 250.965 359.5 250.045 359.5 248.911Z" fill="white"/>
<path opacity="0.5" d="M369.637 248.911V242.072C369.637 240.938 368.717 240.018 367.583 240.018C366.449 240.018 365.529 240.937 365.529 242.072V248.911C365.529 250.045 366.449 250.965 367.583 250.965C368.717 250.965 369.637 250.045 369.637 248.911Z" fill="white"/>
<path opacity="0.5" d="M339.227 267.143V260.304C339.227 259.17 338.307 258.25 337.173 258.25C336.039 258.25 335.119 259.17 335.119 260.304V267.143C335.119 268.277 336.039 269.197 337.173 269.197C338.307 269.197 339.227 268.277 339.227 267.143Z" fill="white"/>
<path opacity="0.5" d="M349.365 267.143V260.304C349.365 259.17 348.446 258.25 347.312 258.25C346.177 258.25 345.258 259.17 345.258 260.304V267.143C345.258 268.277 346.177 269.197 347.312 269.197C348.446 269.197 349.365 268.277 349.365 267.143Z" fill="white"/>
<path opacity="0.5" d="M359.5 267.143V260.304C359.5 259.17 358.581 258.25 357.446 258.25C356.312 258.25 355.393 259.17 355.393 260.304V267.143C355.393 268.277 356.312 269.197 357.446 269.197C358.581 269.197 359.5 268.277 359.5 267.143Z" fill="white"/>
<path opacity="0.5" d="M369.637 267.143V260.304C369.637 259.17 368.717 258.25 367.583 258.25C366.449 258.25 365.529 259.17 365.529 260.304V267.143C365.529 268.277 366.449 269.197 367.583 269.197C368.717 269.197 369.637 268.277 369.637 267.143Z" fill="white"/>
<path opacity="0.5" d="M339.227 285.375V278.536C339.227 277.402 338.307 276.482 337.173 276.482C336.039 276.482 335.119 277.402 335.119 278.536V285.375C335.119 286.509 336.039 287.429 337.173 287.429C338.307 287.429 339.227 286.509 339.227 285.375Z" fill="white"/>
<path opacity="0.5" d="M349.365 285.375V278.536C349.365 277.402 348.446 276.482 347.312 276.482C346.177 276.482 345.258 277.402 345.258 278.536V285.375C345.258 286.509 346.177 287.429 347.312 287.429C348.446 287.429 349.365 286.509 349.365 285.375Z" fill="white"/>
<path opacity="0.5" d="M381.133 248.911V242.072C381.133 240.938 380.214 240.018 379.079 240.018C377.945 240.018 377.025 240.937 377.025 242.072V248.911C377.025 250.045 377.945 250.965 379.079 250.965C380.214 250.965 381.133 250.045 381.133 248.911Z" fill="white"/>
<path opacity="0.4" d="M64.1632 359.65V352.228C64.1632 351.506 63.5784 350.922 62.857 350.922C62.1356 350.922 61.5508 351.506 61.5508 352.228V359.65C61.5508 360.372 62.1356 360.957 62.857 360.957C63.5784 360.957 64.1632 360.372 64.1632 359.65Z" fill="white"/>
<path opacity="0.4" d="M73.382 359.65V352.228C73.382 351.506 72.7972 350.922 72.0757 350.922C71.3543 350.922 70.7695 351.506 70.7695 352.228V359.65C70.7695 360.372 71.3543 360.957 72.0757 360.957C72.7972 360.957 73.382 360.372 73.382 359.65Z" fill="white"/>
<path opacity="0.4" d="M84.1613 359.65V352.228C84.1613 351.506 83.5765 350.922 82.8551 350.922C82.1336 350.922 81.5488 351.506 81.5488 352.228V359.65C81.5488 360.372 82.1336 360.957 82.8551 360.957C83.5765 360.957 84.1613 360.372 84.1613 359.65Z" fill="white"/>
<path opacity="0.4" d="M93.3839 359.65V352.228C93.3839 351.506 92.7991 350.922 92.0777 350.922C91.3563 350.922 90.7715 351.506 90.7715 352.228V359.65C90.7715 360.372 91.3563 360.957 92.0777 360.957C92.7991 360.957 93.3839 360.372 93.3839 359.65Z" fill="white"/>
<path opacity="0.4" d="M43.6847 359.65V352.228C43.6847 351.506 43.0999 350.922 42.3785 350.922C41.6571 350.922 41.0723 351.506 41.0723 352.228V359.65C41.0723 360.372 41.6571 360.957 42.3785 360.957C43.0999 360.957 43.6847 360.372 43.6847 359.65Z" fill="white"/>
<path opacity="0.4" d="M52.9015 359.65V352.228C52.9015 351.506 52.3167 350.922 51.5953 350.922C50.8739 350.922 50.2891 351.506 50.2891 352.228V359.65C50.2891 360.372 50.8739 360.957 51.5953 360.957C52.3167 360.957 52.9015 360.372 52.9015 359.65Z" fill="white"/>
<path opacity="0.4" d="M64.1632 377.076V369.653C64.1632 368.932 63.5784 368.347 62.857 368.347C62.1356 368.347 61.5508 368.932 61.5508 369.653V377.076C61.5508 377.797 62.1356 378.382 62.857 378.382C63.5784 378.382 64.1632 377.797 64.1632 377.076Z" fill="white"/>
<path opacity="0.4" d="M73.382 377.076V369.653C73.382 368.932 72.7972 368.347 72.0757 368.347C71.3543 368.347 70.7695 368.932 70.7695 369.653V377.076C70.7695 377.797 71.3543 378.382 72.0757 378.382C72.7972 378.382 73.382 377.797 73.382 377.076Z" fill="white"/>
<path opacity="0.4" d="M84.1613 377.076V369.653C84.1613 368.932 83.5765 368.347 82.8551 368.347C82.1336 368.347 81.5488 368.932 81.5488 369.653V377.076C81.5488 377.797 82.1336 378.382 82.8551 378.382C83.5765 378.382 84.1613 377.797 84.1613 377.076Z" fill="white"/>
<path opacity="0.4" d="M93.3839 377.076V369.653C93.3839 368.932 92.7991 368.347 92.0777 368.347C91.3563 368.347 90.7715 368.932 90.7715 369.653V377.076C90.7715 377.797 91.3563 378.382 92.0777 378.382C92.7991 378.382 93.3839 377.797 93.3839 377.076Z" fill="white"/>
<path opacity="0.4" d="M43.6847 377.076V369.653C43.6847 368.932 43.0999 368.347 42.3785 368.347C41.6571 368.347 41.0723 368.932 41.0723 369.653V377.076C41.0723 377.797 41.6571 378.382 42.3785 378.382C43.0999 378.382 43.6847 377.797 43.6847 377.076Z" fill="white"/>
<path opacity="0.4" d="M52.9015 377.076V369.653C52.9015 368.932 52.3167 368.347 51.5953 368.347C50.8739 368.347 50.2891 368.932 50.2891 369.653V377.076C50.2891 377.797 50.8739 378.382 51.5953 378.382C52.3167 378.382 52.9015 377.797 52.9015 377.076Z" fill="white"/>
<path opacity="0.4" d="M64.1632 394.501V387.079C64.1632 386.357 63.5784 385.772 62.857 385.772C62.1356 385.772 61.5508 386.357 61.5508 387.079V394.501C61.5508 395.222 62.1356 395.807 62.857 395.807C63.5784 395.807 64.1632 395.222 64.1632 394.501Z" fill="white"/>
<path opacity="0.4" d="M73.382 394.501V387.079C73.382 386.357 72.7972 385.772 72.0757 385.772C71.3543 385.772 70.7695 386.357 70.7695 387.079V394.501C70.7695 395.222 71.3543 395.807 72.0757 395.807C72.7972 395.807 73.382 395.222 73.382 394.501Z" fill="white"/>
<path opacity="0.4" d="M84.1613 394.501V387.079C84.1613 386.357 83.5765 385.772 82.8551 385.772C82.1336 385.772 81.5488 386.357 81.5488 387.079V394.501C81.5488 395.222 82.1336 395.807 82.8551 395.807C83.5765 395.807 84.1613 395.222 84.1613 394.501Z" fill="white"/>
<path opacity="0.4" d="M93.3839 394.501V387.079C93.3839 386.357 92.7991 385.772 92.0777 385.772C91.3563 385.772 90.7715 386.357 90.7715 387.079V394.501C90.7715 395.222 91.3563 395.807 92.0777 395.807C92.7991 395.807 93.3839 395.222 93.3839 394.501Z" fill="white"/>
<path opacity="0.4" d="M43.6847 394.501V387.079C43.6847 386.357 43.0999 385.772 42.3785 385.772C41.6571 385.772 41.0723 386.357 41.0723 387.079V394.501C41.0723 395.222 41.6571 395.807 42.3785 395.807C43.0999 395.807 43.6847 395.222 43.6847 394.501Z" fill="white"/>
<path opacity="0.4" d="M52.9015 394.501V387.079C52.9015 386.357 52.3167 385.772 51.5953 385.772C50.8739 385.772 50.2891 386.357 50.2891 387.079V394.501C50.2891 395.222 50.8739 395.807 51.5953 395.807C52.3167 395.807 52.9015 395.222 52.9015 394.501Z" fill="white"/>
<path opacity="0.5" d="M553.122 441.367V429.852C553.122 428.734 552.216 427.828 551.098 427.828C549.98 427.828 549.074 428.734 549.074 429.852V441.367C549.074 442.485 549.98 443.391 551.098 443.391C552.216 443.391 553.122 442.485 553.122 441.367Z" fill="white"/>
<path opacity="0.5" d="M565.506 441.367V429.852C565.506 428.734 564.6 427.828 563.483 427.828C562.365 427.828 561.459 428.734 561.459 429.852V441.367C561.459 442.485 562.365 443.391 563.483 443.391C564.6 443.391 565.506 442.485 565.506 441.367Z" fill="white"/>
<path opacity="0.5" d="M577.161 441.367V429.852C577.161 428.734 576.255 427.828 575.137 427.828C574.019 427.828 573.113 428.734 573.113 429.852V441.367C573.113 442.485 574.019 443.391 575.137 443.391C576.255 443.391 577.161 442.485 577.161 441.367Z" fill="white"/>
<path opacity="0.33" d="M591.329 417.084V406.742C591.329 405.83 590.59 405.091 589.678 405.091C588.766 405.091 588.027 405.83 588.027 406.742V417.084C588.027 417.996 588.766 418.735 589.678 418.735C590.59 418.735 591.329 417.996 591.329 417.084Z" fill="white"/>
<path opacity="0.33" d="M607.749 417.084V406.742C607.749 405.83 607.01 405.091 606.098 405.091C605.186 405.091 604.447 405.83 604.447 406.742V417.084C604.447 417.996 605.186 418.735 606.098 418.735C607.01 418.735 607.749 417.996 607.749 417.084Z" fill="white"/>
<path opacity="0.33" d="M624.173 417.084V406.742C624.173 405.83 623.434 405.091 622.522 405.091C621.61 405.091 620.871 405.83 620.871 406.742V417.084C620.871 417.996 621.61 418.735 622.522 418.735C623.434 418.735 624.173 417.996 624.173 417.084Z" fill="white"/>
<path opacity="0.33" d="M591.329 445.167V434.825C591.329 433.913 590.59 433.174 589.678 433.174C588.766 433.174 588.027 433.913 588.027 434.825V445.167C588.027 446.079 588.766 446.818 589.678 446.818C590.59 446.818 591.329 446.079 591.329 445.167Z" fill="white"/>
<path opacity="0.33" d="M607.749 445.167V434.825C607.749 433.913 607.01 433.174 606.098 433.174C605.186 433.174 604.447 433.913 604.447 434.825V445.167C604.447 446.079 605.186 446.818 606.098 446.818C607.01 446.818 607.749 446.079 607.749 445.167Z" fill="white"/>
<path opacity="0.33" d="M624.173 445.167V434.825C624.173 433.913 623.434 433.174 622.522 433.174C621.61 433.174 620.871 433.913 620.871 434.825V445.167C620.871 446.079 621.61 446.818 622.522 446.818C623.434 446.818 624.173 446.079 624.173 445.167Z" fill="white"/>
<path opacity="0.33" d="M591.329 473.95V463.607C591.329 462.695 590.59 461.956 589.678 461.956C588.766 461.956 588.027 462.695 588.027 463.607V473.95C588.027 474.862 588.766 475.601 589.678 475.601C590.59 475.601 591.329 474.862 591.329 473.95Z" fill="white"/>
<path opacity="0.33" d="M607.749 473.95V463.607C607.749 462.695 607.01 461.956 606.098 461.956C605.186 461.956 604.447 462.695 604.447 463.607V473.95C604.447 474.862 605.186 475.601 606.098 475.601C607.01 475.601 607.749 474.862 607.749 473.95Z" fill="white"/>
<path opacity="0.33" d="M624.173 473.95V463.607C624.173 462.695 623.434 461.956 622.522 461.956C621.61 461.956 620.871 462.695 620.871 463.607V473.95C620.871 474.862 621.61 475.601 622.522 475.601C623.434 475.601 624.173 474.862 624.173 473.95Z" fill="white"/>
<path opacity="0.33" d="M591.329 502.732V492.389C591.329 491.478 590.59 490.738 589.678 490.738C588.766 490.738 588.027 491.478 588.027 492.389V502.732C588.027 503.644 588.766 504.383 589.678 504.383C590.59 504.383 591.329 503.644 591.329 502.732Z" fill="white"/>
<path opacity="0.33" d="M607.749 502.732V492.389C607.749 491.478 607.01 490.738 606.098 490.738C605.186 490.738 604.447 491.478 604.447 492.389V502.732C604.447 503.644 605.186 504.383 606.098 504.383C607.01 504.383 607.749 503.644 607.749 502.732Z" fill="white"/>
<path opacity="0.33" d="M624.173 502.732V492.389C624.173 491.478 623.434 490.738 622.522 490.738C621.61 490.738 620.871 491.478 620.871 492.389V502.732C620.871 503.644 621.61 504.383 622.522 504.383C623.434 504.383 624.173 503.644 624.173 502.732Z" fill="white"/>
<path opacity="0.33" d="M591.329 528.876V518.534C591.329 517.622 590.59 516.883 589.678 516.883C588.766 516.883 588.027 517.622 588.027 518.534V528.876C588.027 529.788 588.766 530.527 589.678 530.527C590.59 530.527 591.329 529.788 591.329 528.876Z" fill="white"/>
<path opacity="0.33" d="M607.749 528.876V518.534C607.749 517.622 607.01 516.883 606.098 516.883C605.186 516.883 604.447 517.622 604.447 518.534V528.876C604.447 529.788 605.186 530.527 606.098 530.527C607.01 530.527 607.749 529.788 607.749 528.876Z" fill="white"/>
<path opacity="0.33" d="M624.173 528.876V518.534C624.173 517.622 623.434 516.883 622.522 516.883C621.61 516.883 620.871 517.622 620.871 518.534V528.876C620.871 529.788 621.61 530.527 622.522 530.527C623.434 530.527 624.173 529.788 624.173 528.876Z" fill="white"/>
<path opacity="0.33" d="M591.329 558.037V547.694C591.329 546.783 590.59 546.043 589.678 546.043C588.766 546.043 588.027 546.783 588.027 547.694V558.037C588.027 558.949 588.766 559.688 589.678 559.688C590.59 559.688 591.329 558.949 591.329 558.037Z" fill="white"/>
<path opacity="0.33" d="M607.749 558.037V547.694C607.749 546.783 607.01 546.043 606.098 546.043C605.186 546.043 604.447 546.783 604.447 547.694V558.037C604.447 558.949 605.186 559.688 606.098 559.688C607.01 559.688 607.749 558.949 607.749 558.037Z" fill="white"/>
<path opacity="0.33" d="M624.173 558.037V547.694C624.173 546.783 623.434 546.043 622.522 546.043C621.61 546.043 620.871 546.783 620.871 547.694V558.037C620.871 558.949 621.61 559.688 622.522 559.688C623.434 559.688 624.173 558.949 624.173 558.037Z" fill="white"/>
</g>
</svg>
