<svg width="242" height="196" viewBox="0 0 242 196" fill="none" xmlns="http://www.w3.org/2000/svg">
<path d="M150.309 167.545C181.613 140.157 210.403 110.244 240.249 81.3609" stroke="#D9E9E1" stroke-width="3" stroke-miterlimit="1.5" stroke-linecap="round" stroke-linejoin="round"/>
<path d="M128.755 188.471C130.604 186.304 132.487 184.174 134.425 182.085" stroke="#D9E9E1" stroke-width="3" stroke-miterlimit="1.5" stroke-linecap="round" stroke-linejoin="round"/>
<path d="M227.922 47.7504C192.616 89.2693 151.14 126.641 111.118 163.538" stroke="#D9E9E1" stroke-width="3" stroke-miterlimit="1.5" stroke-linecap="round" stroke-linejoin="round"/>
<path d="M74.5889 193.71C78.7098 190.242 82.5582 186.571 86.4915 182.904" stroke="#D9E9E1" stroke-width="3" stroke-miterlimit="1.5" stroke-linecap="round" stroke-linejoin="round"/>
<path d="M114.502 120.805C123.636 111.235 134.039 102.948 143.564 93.7909C160.66 77.3554 176.449 59.7656 192.588 42.4188" stroke="#D9E9E1" stroke-width="3" stroke-miterlimit="1.5" stroke-linecap="round" stroke-linejoin="round"/>
<path d="M100.024 134.831C94.9364 139.476 89.7197 144.015 84.392 148.388" stroke="#D9E9E1" stroke-width="3" stroke-miterlimit="1.5" stroke-linecap="round" stroke-linejoin="round"/>
<path d="M136.862 59.7064C123.182 72.6054 110.064 86.0605 96.4683 99.0307" stroke="#D9E9E1" stroke-width="3" stroke-miterlimit="1.5" stroke-linecap="round" stroke-linejoin="round"/>
<path d="M80.001 115.157C75.9212 118.752 71.8605 122.387 67.7115 125.902" stroke="#D9E9E1" stroke-width="3" stroke-miterlimit="1.5" stroke-linecap="round" stroke-linejoin="round"/>
<path d="M154.551 1.99998C133.175 26.23 109.359 48.1071 87.7939 72.0831" stroke="#D9E9E1" stroke-width="3" stroke-miterlimit="1.5" stroke-linecap="round" stroke-linejoin="round"/>
<path d="M76.8228 83.1458C75.0288 84.9941 73.2599 86.878 71.4004 88.6608" stroke="#D9E9E1" stroke-width="3" stroke-miterlimit="1.5" stroke-linecap="round" stroke-linejoin="round"/>
<path d="M26.4719 90.8607C51.9161 71.6095 76.3429 48.2545 98.051 24.8841" stroke="#D9E9E1" stroke-width="3" stroke-miterlimit="1.5" stroke-linecap="round" stroke-linejoin="round"/>
<path d="M2.00032 109.123C4.31371 107.294 6.54131 105.386 8.72363 103.404" stroke="#D9E9E1" stroke-width="3" stroke-miterlimit="1.5" stroke-linecap="round" stroke-linejoin="round"/>
</svg>
