<svg width="24" height="20" viewBox="0 0 24 20" fill="none" xmlns="http://www.w3.org/2000/svg">
<path d="M9.99823 17.7765C9.99823 16.5536 10.8982 15.5531 11.9982 15.5531C13.0982 15.5531 13.9982 16.5536 13.9982 17.7765C13.9982 18.9994 13.0982 20 11.9982 20C10.8982 20 9.99823 18.9994 9.99823 17.7765ZM23.6782 7.25959C24.0882 6.83713 24.1082 6.13674 23.7282 5.69205C20.7082 2.07893 16.4282 0 11.9982 0C7.56824 0 3.28825 2.06782 0.268267 5.68093C-0.111731 6.13674 -0.0817311 6.83713 0.318267 7.24847C0.718266 7.67093 1.35826 7.63758 1.72826 7.19288C4.36825 4.02446 8.10823 2.21234 11.9982 2.21234C15.8882 2.21234 19.6182 4.02446 22.2682 7.19288C22.4682 7.42635 22.7282 7.54864 22.9982 7.54864C23.2382 7.54864 23.4882 7.44858 23.6782 7.24847V7.25959ZM18.6682 12.607C19.0782 12.1845 19.0982 11.4842 18.7182 11.0395C16.9882 8.96053 14.5382 7.77098 11.9982 7.77098C9.45823 7.77098 7.00824 8.96053 5.27825 11.0395C4.89825 11.4842 4.92825 12.1957 5.32825 12.607C5.72824 13.0295 6.36824 12.9961 6.73824 12.5514C8.08823 10.9283 10.0082 10.0056 11.9982 10.0056C13.9882 10.0056 15.8982 10.9394 17.2582 12.5514C17.4582 12.7849 17.7182 12.9072 17.9882 12.9072C18.2282 12.9072 18.4782 12.8071 18.6682 12.607Z" fill="#777E7A"/>
</svg>
