<svg width="121" height="119" viewBox="0 0 121 119" fill="none" xmlns="http://www.w3.org/2000/svg">
<path d="M49.095 106.748L46.622 115.118L41.4319 113.584L41.7531 112.497L45.6804 113.658L46.4339 111.108L42.8785 110.057L43.1985 108.974L46.7539 110.025L47.8323 106.375L49.095 106.748Z" fill="#375844"/>
<path d="M37.7938 102.573L33.243 110.02L28.5742 107.167L29.1652 106.2L32.7105 108.366L34.0971 106.097L30.7954 104.08L31.3843 103.116L34.6859 105.134L36.0791 102.854L32.4902 100.661L33.0813 99.6935L37.7938 102.573Z" fill="#375844"/>
<path d="M27.2204 95.0646L20.8427 101.022L18.6611 98.6864C18.2383 98.2338 17.963 97.7893 17.8352 97.3528C17.7053 96.9182 17.6981 96.5089 17.8137 96.1249C17.9272 95.7429 18.1417 95.4045 18.4573 95.1097C18.723 94.8615 18.9928 94.7008 19.2667 94.6278C19.5384 94.5566 19.8059 94.5517 20.0692 94.6129C20.3284 94.674 20.5741 94.7788 20.8062 94.9274L20.8684 94.8693C20.681 94.6478 20.5566 94.3772 20.4951 94.0576C20.4296 93.7378 20.4501 93.4038 20.5564 93.0557C20.6627 92.7075 20.8809 92.3793 21.211 92.071C21.537 91.7665 21.9014 91.5699 22.3045 91.4811C22.7035 91.3922 23.1271 91.4358 23.5753 91.6118C24.0215 91.7898 24.4754 92.1259 24.9369 92.62L27.2204 95.0646ZM25.4963 94.8732L24.199 93.4843C23.7684 93.0234 23.3708 92.7767 23.0061 92.7442C22.6414 92.7116 22.3252 92.8205 22.0573 93.0706C21.856 93.2587 21.7187 93.4822 21.6456 93.741C21.5724 93.9998 21.5743 94.2702 21.6511 94.5522C21.726 94.8321 21.8836 95.1008 22.1241 95.3583L23.4535 96.7814L25.4963 94.8732ZM22.703 97.4824L21.4987 96.1932C21.297 95.9773 21.0742 95.822 20.8302 95.7272C20.5842 95.6304 20.339 95.6009 20.0945 95.6388C19.846 95.6766 19.619 95.7915 19.4134 95.9835C19.1498 96.2298 19.015 96.5287 19.009 96.8802C19.0031 97.2318 19.1785 97.5985 19.5353 97.9805L20.7629 99.2947L22.703 97.4824Z" fill="#375844"/>
<path d="M19.0116 85.0131L11.2336 88.9713L9.82265 86.1989C9.51599 85.5963 9.36532 85.0434 9.37064 84.5403C9.37467 84.0346 9.51 83.5896 9.77662 83.2052C10.0407 82.8222 10.412 82.5089 10.8906 82.2654C11.3666 82.0232 11.8365 81.9099 12.3003 81.9257C12.7604 81.9402 13.1922 82.0966 13.5958 82.3949C13.9981 82.6906 14.3526 83.1397 14.6593 83.7423L15.7281 85.8425L14.7178 86.3566L13.7031 84.3628C13.5099 83.983 13.2982 83.7018 13.0682 83.5192C12.837 83.3341 12.5892 83.2386 12.3249 83.2329C12.0605 83.2272 11.7828 83.2984 11.4916 83.4465C11.1979 83.596 10.9725 83.7825 10.8152 84.0059C10.6567 84.2269 10.5817 84.4866 10.5902 84.7851C10.5948 85.0824 10.6957 85.4247 10.8929 85.8121L11.6428 87.2856L18.4143 83.8395L19.0116 85.0131ZM13.5483 82.9593L16.0796 79.2517L16.7599 80.5886L14.2093 84.2582L13.5483 82.9593Z" fill="#375844"/>
<path d="M3.9851 68.2669L3.74797 66.9673L9.39479 65.937C9.99567 65.8273 10.5538 65.8713 11.0693 66.0689C11.5819 66.2671 12.0176 66.5976 12.3765 67.0606C12.7325 67.5241 12.9732 68.0996 13.0987 68.7872C13.2236 69.4719 13.2014 70.0939 13.032 70.6533C12.8598 71.2132 12.5689 71.6763 12.1593 72.0428C11.7469 72.4097 11.2402 72.648 10.6393 72.7576L4.9925 73.7879L4.75614 72.4926L10.2982 71.4813C10.6866 71.4105 11.0162 71.2622 11.287 71.0367C11.5572 70.8083 11.7501 70.5204 11.8658 70.173C11.9786 69.8261 11.9955 69.4361 11.9165 69.0029C11.8369 68.5669 11.6831 68.2065 11.455 67.9218C11.2236 67.6349 10.9417 67.4351 10.6092 67.3224C10.2763 67.207 9.91559 67.1848 9.52712 67.2557L3.9851 68.2669Z" fill="#375844"/>
<path d="M12.1136 57.677L11.9604 59.0663L3.62981 54.9883L3.7965 53.4762L12.8153 51.3107L12.6622 52.7L5.29281 54.3699L5.28534 54.4377L12.1136 57.677ZM8.74222 57.0695L9.239 52.5627L10.3403 52.6841L9.84351 57.1909L8.74222 57.0695Z" fill="#375844"/>
<path d="M14.5053 44.7336L6.46711 41.3346L7.67867 38.4695C7.942 37.8467 8.2678 37.3753 8.65607 37.0552C9.04545 36.7325 9.473 36.5494 9.9387 36.5057C10.4018 36.4609 10.8806 36.5431 11.3751 36.7522C11.8671 36.9602 12.2564 37.2467 12.5432 37.6116C12.8284 37.9729 12.987 38.4039 13.0189 38.9047C13.0519 39.4029 12.9367 39.9634 12.6734 40.5861L11.7556 42.7566L10.7116 42.3151L11.5829 40.2546C11.7489 39.8621 11.8276 39.5191 11.8191 39.2255C11.8117 38.9294 11.725 38.6784 11.5592 38.4725C11.3933 38.2667 11.1599 38.1001 10.859 37.9729C10.5555 37.8445 10.2676 37.7922 9.9954 37.8159C9.72431 37.837 9.47733 37.9469 9.25448 38.1457C9.03011 38.3408 8.83328 38.6385 8.66399 39.0388L8.02004 40.5617L15.0181 43.5208L14.5053 44.7336ZM12.5566 39.232L17.023 38.7796L16.4388 40.1611L11.989 40.5743L12.5566 39.232Z" fill="#375844"/>
<path d="M13.6063 27.3914L14.5476 26.229L19.0655 26.9538L19.1245 26.8809L17.4759 22.6125L18.4172 21.45L20.5446 27.2467L23.2073 29.4027L22.3813 30.4228L19.7186 28.2667L13.6063 27.3914Z" fill="#375844"/>
<path d="M38.0739 10.3045C37.8592 9.95993 37.5554 9.7586 37.1626 9.70047C36.7685 9.63978 36.3458 9.71707 35.8945 9.93233C35.5714 10.0864 35.3164 10.271 35.1294 10.4861C34.9412 10.6987 34.824 10.9246 34.7776 11.1639C34.7325 11.3994 34.7632 11.6287 34.8696 11.8518C34.9589 12.0389 35.0796 12.1797 35.2316 12.274C35.3861 12.3671 35.5572 12.4256 35.7449 12.4494C35.9338 12.4694 36.1263 12.4704 36.3223 12.4525C36.5171 12.432 36.7006 12.4042 36.8728 12.3693L37.7375 12.2024C38.0181 12.1441 38.3156 12.1045 38.6298 12.0836C38.9441 12.0628 39.255 12.0844 39.5626 12.1486C39.8702 12.2128 40.1537 12.3388 40.4133 12.5266C40.6754 12.7131 40.8908 12.9834 41.0596 13.3372C41.2725 13.7834 41.346 14.2346 41.2804 14.6908C41.2173 15.1458 41.0155 15.5773 40.675 15.9852C40.337 16.3919 39.8604 16.742 39.245 17.0356C38.6552 17.3169 38.1003 17.4667 37.5803 17.485C37.0602 17.5033 36.5964 17.3987 36.1889 17.1713C35.7802 16.9414 35.4499 16.5953 35.198 16.1332L36.3903 15.5644C36.5492 15.8381 36.7546 16.0312 37.0067 16.1439C37.2601 16.2528 37.5357 16.2929 37.8336 16.2641C38.1328 16.2315 38.435 16.1425 38.7401 15.9969C39.076 15.8367 39.3497 15.6416 39.5611 15.4118C39.7738 15.1781 39.9105 14.9303 39.9713 14.6684C40.0309 14.4039 39.9995 14.1435 39.8772 13.8871C39.7659 13.6537 39.6081 13.4945 39.4038 13.4094C39.2021 13.323 38.9652 13.285 38.6931 13.2952C38.4235 13.3041 38.13 13.3387 37.8125 13.3989L36.7606 13.589C36.0479 13.7181 35.4274 13.704 34.8991 13.5468C34.3735 13.3884 33.9798 13.0348 33.718 12.4861C33.5015 12.0322 33.4356 11.5773 33.5204 11.1215C33.6051 10.6656 33.813 10.2438 34.1443 9.85598C34.4743 9.46565 34.9034 9.14451 35.4316 8.89255C35.9649 8.63815 36.4801 8.5073 36.9771 8.50002C37.4766 8.4915 37.9226 8.59509 38.3151 8.81078C38.7063 9.0239 39.008 9.33956 39.2201 9.75775L38.0739 10.3045Z" fill="#375844"/>
<path d="M48.6097 13.3982L47.0975 4.80297L50.1612 4.26393C50.8299 4.14628 51.4053 4.17051 51.8874 4.33665C52.3695 4.50278 52.7569 4.77789 53.0494 5.16198C53.3415 5.54328 53.5338 5.99693 53.6264 6.52294C53.7194 7.05175 53.6926 7.54684 53.5459 8.00822C53.4015 8.46631 53.1299 8.85735 52.7312 9.18135C52.3347 9.50205 51.8035 9.72099 51.1376 9.83815L49.0308 10.2088L48.8373 9.10925L50.8266 8.75924C51.2491 8.6849 51.5791 8.55185 51.8165 8.36009C52.0534 8.16552 52.211 7.93011 52.2893 7.65383C52.3676 7.37756 52.3782 7.07715 52.3211 6.75259C52.264 6.42803 52.1518 6.15067 51.9844 5.92051C51.8169 5.69036 51.5878 5.52732 51.2969 5.43139C51.0088 5.33497 50.6493 5.32466 50.2184 5.40048L48.59 5.68698L49.9066 13.1701L48.6097 13.3982Z" fill="#375844"/>
<path d="M61.5064 12.0365L62.3495 3.35006L67.7955 3.87864L67.686 5.00686L63.5506 4.60549L63.2937 7.25214L67.1449 7.62594L67.0358 8.74991L63.1846 8.37612L62.9265 11.0355L67.1128 11.4418L67.0033 12.57L61.5064 12.0365Z" fill="#375844"/>
<path d="M83.263 11.3943L82.0318 10.8925C82.0917 10.6101 82.0979 10.3427 82.0505 10.0902C82.0031 9.83773 81.9144 9.6037 81.7845 9.38814C81.6545 9.17258 81.4882 8.98211 81.2857 8.81672C81.0858 8.6524 80.8569 8.5177 80.5991 8.41262C80.1334 8.22283 79.6687 8.16995 79.205 8.25397C78.7439 8.33907 78.3146 8.56444 77.917 8.93008C77.5221 9.2968 77.1917 9.80637 76.9258 10.4588C76.6578 11.1165 76.5367 11.7145 76.5628 12.2528C76.5914 12.7921 76.7428 13.2526 77.0167 13.6342C77.2907 14.0159 77.6578 14.3005 78.1182 14.4881C78.3734 14.5921 78.6294 14.6566 78.8861 14.6815C79.1466 14.7048 79.3981 14.6861 79.6406 14.6255C79.8832 14.5648 80.1091 14.4621 80.3184 14.3173C80.5315 14.171 80.7155 13.9791 80.8706 13.7416L82.1002 14.2474C81.8725 14.6178 81.5959 14.9315 81.2703 15.1884C80.9484 15.4438 80.5908 15.6324 80.1975 15.7544C79.8079 15.8747 79.3982 15.924 78.9684 15.9022C78.5386 15.8804 78.1014 15.7789 77.6568 15.5977C76.957 15.3125 76.401 14.8927 75.9889 14.3381C75.5779 13.781 75.3411 13.1277 75.2784 12.3781C75.2184 11.6297 75.3637 10.8253 75.7143 9.96504C76.066 9.10214 76.5257 8.42591 77.0934 7.93634C77.6621 7.44415 78.2877 7.14382 78.97 7.03537C79.6534 6.92429 80.3436 7.01082 81.0408 7.29497C81.4696 7.46975 81.8443 7.69455 82.1648 7.96939C82.4891 8.24266 82.7516 8.55827 82.9524 8.91621C83.1542 9.27151 83.2833 9.65852 83.3397 10.0772C83.3971 10.4933 83.3716 10.9324 83.263 11.3943Z" fill="#375844"/>
<path d="M93.7196 14.4836L88.5856 21.5411L87.5208 20.7665L92.6548 13.709L93.7196 14.4836Z" fill="#375844"/>
<path d="M94.4974 26.6024L93.5866 25.5421L102.253 22.2379L103.245 23.392L98.6707 31.4609L97.7599 30.4006L101.57 23.8753L101.526 23.8236L94.4974 26.6024ZM97.2426 24.5533L100.197 27.9928L99.3565 28.7147L96.4021 25.2752L97.2426 24.5533Z" fill="#375844"/>
<path d="M102.265 37.2065L110.166 33.4991L110.725 34.6911L103.851 37.9171L105.531 41.497L104.505 41.9786L102.265 37.2065Z" fill="#375844"/>
<path d="M112.264 64.3341C111.332 64.3192 110.534 64.1359 109.869 63.7844C109.207 63.4328 108.7 62.9573 108.349 62.3579C108.001 61.7613 107.832 61.0867 107.844 60.3339C107.857 59.5783 108.046 58.9066 108.414 58.3186C108.784 57.7336 109.307 57.276 109.983 56.9458C110.659 56.6157 111.461 56.458 112.39 56.4729C113.321 56.4878 114.118 56.671 114.78 57.0226C115.445 57.3742 115.952 57.8482 116.301 58.4448C116.652 59.0442 116.821 59.7217 116.809 60.4773C116.797 61.2301 116.606 61.899 116.236 62.484C115.868 63.072 115.347 63.531 114.671 63.8612C113.998 64.1914 113.196 64.349 112.264 64.3341ZM112.285 63.0303C112.995 63.0417 113.595 62.9362 114.084 62.7139C114.576 62.4944 114.951 62.1879 115.207 61.7942C115.466 61.4034 115.6 60.958 115.608 60.4581C115.616 59.9553 115.497 59.5045 115.25 59.1056C115.006 58.7068 114.642 58.3884 114.157 58.1505C113.675 57.9155 113.079 57.7923 112.369 57.781C111.659 57.7696 111.058 57.8736 110.565 58.0931C110.076 58.3154 109.702 58.6219 109.443 59.0127C109.186 59.4036 109.054 59.8504 109.046 60.3531C109.038 60.8531 109.156 61.3025 109.4 61.7013C109.646 62.103 110.01 62.4214 110.492 62.6564C110.977 62.8943 111.575 63.0189 112.285 63.0303Z" fill="#375844"/>
<path d="M106.668 71.4214L115.015 73.972L113.433 79.1476L112.349 78.8164L113.546 74.9L111.003 74.1228L109.919 77.6684L108.839 77.3383L109.923 73.7928L106.284 72.6807L106.668 71.4214Z" fill="#375844"/>
<path d="M102.366 82.6662L109.814 87.2141L106.994 91.8331L106.027 91.2424L108.161 87.7473L105.891 86.3616L103.959 89.5258L102.995 88.9373L104.927 85.7731L101.679 83.7901L102.366 82.6662Z" fill="#375844"/>
<path d="M95.4171 92.5085L101.438 98.8258L97.4777 102.601L96.6956 101.78L99.7032 98.9138L97.8686 96.989L95.0677 99.6586L94.2886 98.8411L97.0895 96.1715L95.246 94.2375L92.2015 97.1393L91.4194 96.3188L95.4171 92.5085Z" fill="#375844"/>
<path d="M85.4487 100.818L89.4851 108.556L86.727 109.995C86.1275 110.307 85.5762 110.464 85.073 110.463C84.5673 110.464 84.1209 110.333 83.7339 110.071C83.3483 109.811 83.0313 109.442 82.7829 108.966C82.5359 108.493 82.418 108.024 82.4291 107.56C82.4389 107.1 82.591 106.667 82.8851 106.26C83.1768 105.855 83.6224 105.496 84.2218 105.183L86.3112 104.093L86.8354 105.098L84.8519 106.133C84.4741 106.33 84.195 106.544 84.0147 106.776C83.832 107.009 83.739 107.258 83.7359 107.522C83.7329 107.787 83.8069 108.064 83.958 108.353C84.1104 108.646 84.2991 108.869 84.5241 109.024C84.7466 109.18 85.0071 109.253 85.3055 109.241C85.6027 109.234 85.944 109.129 86.3294 108.928L87.7953 108.164L84.2812 101.427L85.4487 100.818ZM83.45 106.302L79.7172 103.808L81.0471 103.114L84.7422 105.628L83.45 106.302Z" fill="#375844"/>
<path d="M35.179 66V63.7841L40.3565 58.9901C40.7969 58.5639 41.1662 58.1804 41.4645 57.8395C41.7675 57.4986 41.9972 57.1648 42.1534 56.8381C42.3097 56.5066 42.3878 56.1491 42.3878 55.7656C42.3878 55.3395 42.2907 54.9725 42.0966 54.6648C41.9025 54.3523 41.6373 54.1132 41.3011 53.9474C40.965 53.777 40.5838 53.6918 40.1577 53.6918C39.7126 53.6918 39.3243 53.7817 38.9929 53.9616C38.6615 54.1416 38.4058 54.3996 38.2259 54.7358C38.0459 55.072 37.956 55.4721 37.956 55.9361H35.0369C35.0369 54.9844 35.2524 54.1581 35.6832 53.4574C36.1141 52.7566 36.7178 52.2145 37.4943 51.831C38.2708 51.4474 39.1657 51.2557 40.179 51.2557C41.2206 51.2557 42.1274 51.4403 42.8991 51.8097C43.6757 52.1742 44.2794 52.6809 44.7102 53.3295C45.1411 53.9782 45.3565 54.7216 45.3565 55.5597C45.3565 56.1089 45.2476 56.651 45.0298 57.1861C44.8168 57.7211 44.4356 58.3153 43.8864 58.9688C43.3371 59.6174 42.563 60.3963 41.5639 61.3054L39.4403 63.3864V63.4858H45.5483V66H35.179ZM53.4798 66.3196C52.2582 66.3149 51.207 66.0142 50.3263 65.4176C49.4504 64.821 48.7757 63.9569 48.3022 62.8253C47.8335 61.6937 47.6014 60.3324 47.6062 58.7415C47.6062 57.1553 47.8406 55.8035 48.3093 54.6861C48.7828 53.5687 49.4575 52.7187 50.3335 52.1364C51.2141 51.5492 52.2629 51.2557 53.4798 51.2557C54.6966 51.2557 55.743 51.5492 56.619 52.1364C57.4996 52.7235 58.1767 53.5758 58.6502 54.6932C59.1237 55.8059 59.3581 57.1553 59.3533 58.7415C59.3533 60.3371 59.1166 61.7008 58.6431 62.8324C58.1744 63.964 57.502 64.8281 56.6261 65.4247C55.7501 66.0213 54.7013 66.3196 53.4798 66.3196ZM53.4798 63.7699C54.3131 63.7699 54.9783 63.3509 55.4755 62.5128C55.9727 61.6747 56.2189 60.4176 56.2141 58.7415C56.2141 57.6383 56.1005 56.7197 55.8732 55.9858C55.6507 55.2519 55.3335 54.7003 54.9215 54.331C54.5143 53.9616 54.0337 53.777 53.4798 53.777C52.6512 53.777 51.9883 54.1913 51.4911 55.0199C50.994 55.8485 50.743 57.089 50.7383 58.7415C50.7383 59.8589 50.8496 60.7917 51.0721 61.5398C51.2994 62.2831 51.619 62.8419 52.0309 63.2159C52.4428 63.5852 52.9258 63.7699 53.4798 63.7699ZM61.5462 66V63.7841L66.7237 58.9901C67.1641 58.5639 67.5334 58.1804 67.8317 57.8395C68.1347 57.4986 68.3643 57.1648 68.5206 56.8381C68.6768 56.5066 68.755 56.1491 68.755 55.7656C68.755 55.3395 68.6579 54.9725 68.4638 54.6648C68.2696 54.3523 68.0045 54.1132 67.6683 53.9474C67.3321 53.777 66.951 53.6918 66.5249 53.6918C66.0798 53.6918 65.6915 53.7817 65.3601 53.9616C65.0286 54.1416 64.773 54.3996 64.593 54.7358C64.4131 55.072 64.3232 55.4721 64.3232 55.9361L61.4041 55.9361C61.4041 54.9844 61.6196 54.1581 62.0504 53.4574C62.4813 52.7566 63.085 52.2145 63.8615 51.831C64.638 51.4474 65.5329 51.2557 66.5462 51.2557C67.5878 51.2557 68.4946 51.4403 69.2663 51.8097C70.0429 52.1742 70.6465 52.6809 71.0774 53.3295C71.5083 53.9782 71.7237 54.7216 71.7237 55.5597C71.7237 56.1089 71.6148 56.651 71.397 57.1861C71.1839 57.7211 70.8028 58.3153 70.2536 58.9688C69.7043 59.6174 68.9302 60.3963 67.9311 61.3054L65.8075 63.3864V63.4858L71.9155 63.4858V66H61.5462ZM73.6112 63.4432V61.0213L79.6836 51.4545H81.7717V54.8068H80.5359L76.7077 60.8651V60.9787H85.337V63.4432H73.6112ZM80.5927 66V62.7045L80.6495 61.6321V51.4545H83.533V66H80.5927Z" fill="#375844"/>
</svg>
