<svg width="158" height="40" viewBox="0 0 158 40" fill="none" xmlns="http://www.w3.org/2000/svg">
<path d="M52.632 15.6885H60.528C62.32 15.6885 63.736 16.1365 64.776 17.0325C65.816 17.9125 66.336 19.2645 66.336 21.0885C66.336 21.7925 66.24 22.4565 66.048 23.0805C65.856 23.6885 65.584 24.2085 65.232 24.6405C64.64 25.3605 63.952 25.7045 63.168 25.6725L63.048 25.9845C63.304 26.1925 63.496 26.4085 63.624 26.6325C63.752 26.8405 63.904 27.1685 64.08 27.6165L66.744 34.0005H63.096L60.192 26.6565H56.088V34.0005H52.632V15.6885ZM60.048 23.6565C60.976 23.6565 61.68 23.4485 62.16 23.0325C62.656 22.6165 62.904 22.0085 62.904 21.2085C62.904 20.4245 62.656 19.8245 62.16 19.4085C61.664 18.9925 60.96 18.7845 60.048 18.7845H56.088V23.6565H60.048ZM74.9948 34.2645C73.6348 34.2645 72.4348 33.9685 71.3948 33.3765C70.3548 32.7845 69.5468 31.9685 68.9708 30.9285C68.4108 29.8725 68.1308 28.6805 68.1308 27.3525C68.1308 26.1205 68.3788 24.9685 68.8748 23.8965C69.3868 22.8085 70.1468 21.9285 71.1548 21.2565C72.1788 20.5845 73.4268 20.2485 74.8988 20.2485C76.1148 20.2485 77.2348 20.5045 78.2588 21.0165C79.2828 21.5125 80.1068 22.2885 80.7308 23.3445C81.3548 24.3845 81.6668 25.6805 81.6668 27.2325V27.9285H73.1228C73.0268 27.9285 72.7628 27.9285 72.3308 27.9285C71.8988 27.9285 71.5548 27.9045 71.2988 27.8565L71.2028 28.2165C71.3308 28.2485 71.4268 28.3125 71.4908 28.4085C71.5708 28.5045 71.6348 28.6405 71.6828 28.8165C71.8108 29.1525 71.9148 29.3845 71.9948 29.5125C72.3148 30.1365 72.7388 30.6245 73.2668 30.9765C73.8108 31.3125 74.4268 31.4805 75.1148 31.4805C75.8508 31.4805 76.4828 31.2965 77.0108 30.9285C77.5388 30.5445 77.9148 30.0565 78.1388 29.4645H81.4508C81.0188 30.8885 80.2588 32.0485 79.1708 32.9445C78.0828 33.8245 76.6908 34.2645 74.9948 34.2645ZM71.5868 25.8645C71.8268 25.7205 72.0428 25.6245 72.2348 25.5765C72.4268 25.5285 72.6428 25.5045 72.8828 25.5045H77.0588C77.3148 25.5045 77.5388 25.5285 77.7308 25.5765C77.9388 25.6245 78.1708 25.7205 78.4268 25.8645L78.6188 25.5285C78.5068 25.4645 78.4268 25.4085 78.3788 25.3605C78.3308 25.2965 78.2908 25.2325 78.2588 25.1685C78.2428 25.1045 78.2348 25.0645 78.2348 25.0485C78.1708 24.7765 78.0428 24.5125 77.8508 24.2565C77.5468 23.7925 77.1468 23.4405 76.6508 23.2005C76.1548 22.9445 75.6028 22.8165 74.9948 22.8165C74.3868 22.8165 73.8348 22.9365 73.3388 23.1765C72.8588 23.4165 72.4668 23.7765 72.1628 24.2565C71.9548 24.5125 71.8188 24.7765 71.7548 25.0485C71.7548 25.0645 71.7388 25.1125 71.7068 25.1925C71.6748 25.2565 71.6348 25.3205 71.5868 25.3845C71.5388 25.4325 71.4668 25.4805 71.3708 25.5285L71.5868 25.8645ZM87.9223 34.2645C86.6103 34.2645 85.5463 33.9205 84.7303 33.2325C83.9143 32.5285 83.5063 31.5525 83.5063 30.3045C83.5063 28.9605 84.0183 27.9365 85.0423 27.2325C85.7783 26.7205 86.8263 26.3365 88.1863 26.0805L92.1943 25.3365C92.1943 24.5365 91.9783 23.9045 91.5463 23.4405C91.1463 23.0085 90.5463 22.7925 89.7463 22.7925C89.1223 22.7925 88.5703 22.9765 88.0903 23.3445C87.6263 23.7125 87.3383 24.2085 87.2263 24.8325H84.0103C84.2343 23.3445 84.8903 22.2085 85.9783 21.4245C87.0663 20.6405 88.3303 20.2485 89.7703 20.2485C90.5863 20.2485 91.3463 20.3685 92.0503 20.6085C92.7543 20.8325 93.3543 21.1685 93.8503 21.6165C94.3463 22.0485 94.7063 22.5525 94.9303 23.1285C95.1543 23.7045 95.2903 24.2805 95.3383 24.8565C95.4023 25.4325 95.4343 26.1445 95.4343 26.9925V34.0005H92.1943V33.6165C92.1943 33.2005 92.2983 32.7765 92.5063 32.3445L92.1463 32.1525C91.8583 32.7445 91.4583 33.2085 90.9463 33.5445C90.2263 34.0245 89.2183 34.2645 87.9223 34.2645ZM88.7143 31.7205C89.3063 31.7205 89.8823 31.5925 90.4423 31.3365C90.9543 31.0965 91.3623 30.7445 91.6663 30.2805C91.8103 30.0405 91.9223 29.8085 92.0023 29.5845C92.0823 29.3445 92.1703 29.0165 92.2663 28.6005C92.2983 28.4085 92.3463 28.2725 92.4103 28.1925C92.4903 28.0965 92.6023 28.0405 92.7463 28.0245L92.6743 27.6405C91.3943 27.8965 90.5703 28.0645 90.2023 28.1445L89.0503 28.3605C88.1863 28.5205 87.5623 28.7765 87.1783 29.1285C86.8903 29.4165 86.7463 29.7685 86.7463 30.1845C86.7463 30.6805 86.9223 31.0645 87.2743 31.3365C87.6423 31.5925 88.1223 31.7205 88.7143 31.7205ZM101.286 34.0005C100.262 34.0005 99.486 33.7685 98.958 33.3045C98.43 32.8245 98.166 32.0725 98.166 31.0485V15.6885H101.406V30.0885C101.406 30.5365 101.486 30.8565 101.646 31.0485C101.822 31.2245 102.11 31.3125 102.51 31.3125H103.374V34.0005H101.286ZM111.346 34.2645C109.986 34.2645 108.786 33.9685 107.746 33.3765C106.706 32.7845 105.898 31.9685 105.322 30.9285C104.762 29.8725 104.482 28.6805 104.482 27.3525C104.482 26.1205 104.73 24.9685 105.226 23.8965C105.738 22.8085 106.498 21.9285 107.506 21.2565C108.53 20.5845 109.778 20.2485 111.25 20.2485C112.466 20.2485 113.586 20.5045 114.61 21.0165C115.634 21.5125 116.458 22.2885 117.082 23.3445C117.706 24.3845 118.018 25.6805 118.018 27.2325V27.9285H109.474C109.378 27.9285 109.114 27.9285 108.682 27.9285C108.25 27.9285 107.906 27.9045 107.65 27.8565L107.554 28.2165C107.682 28.2485 107.778 28.3125 107.842 28.4085C107.922 28.5045 107.986 28.6405 108.034 28.8165C108.162 29.1525 108.266 29.3845 108.346 29.5125C108.666 30.1365 109.09 30.6245 109.618 30.9765C110.162 31.3125 110.778 31.4805 111.466 31.4805C112.202 31.4805 112.834 31.2965 113.362 30.9285C113.89 30.5445 114.266 30.0565 114.49 29.4645H117.802C117.37 30.8885 116.61 32.0485 115.522 32.9445C114.434 33.8245 113.042 34.2645 111.346 34.2645ZM107.938 25.8645C108.178 25.7205 108.394 25.6245 108.586 25.5765C108.778 25.5285 108.994 25.5045 109.234 25.5045H113.41C113.666 25.5045 113.89 25.5285 114.082 25.5765C114.29 25.6245 114.522 25.7205 114.778 25.8645L114.97 25.5285C114.858 25.4645 114.778 25.4085 114.73 25.3605C114.682 25.2965 114.642 25.2325 114.61 25.1685C114.594 25.1045 114.586 25.0645 114.586 25.0485C114.522 24.7765 114.394 24.5125 114.202 24.2565C113.898 23.7925 113.498 23.4405 113.002 23.2005C112.506 22.9445 111.954 22.8165 111.346 22.8165C110.738 22.8165 110.186 22.9365 109.69 23.1765C109.21 23.4165 108.818 23.7765 108.514 24.2565C108.306 24.5125 108.17 24.7765 108.106 25.0485C108.106 25.0645 108.09 25.1125 108.058 25.1925C108.026 25.2565 107.986 25.3205 107.938 25.3845C107.89 25.4325 107.818 25.4805 107.722 25.5285L107.938 25.8645ZM126.218 34.2645C124.554 34.2645 123.114 33.8645 121.898 33.0645C120.682 32.2645 119.97 31.0645 119.762 29.4645H122.954C123.162 30.1845 123.546 30.7445 124.106 31.1445C124.666 31.5285 125.362 31.7205 126.194 31.7205C126.898 31.7205 127.466 31.5845 127.898 31.3125C128.346 31.0405 128.57 30.6565 128.57 30.1605C128.57 29.6165 128.306 29.2245 127.778 28.9845C127.266 28.7445 126.466 28.5205 125.378 28.3125C124.338 28.1045 123.474 27.8805 122.786 27.6405C122.098 27.4005 121.514 27.0165 121.034 26.4885C120.554 25.9445 120.314 25.2085 120.314 24.2805C120.314 22.9525 120.802 21.9525 121.778 21.2805C122.77 20.5925 124.018 20.2485 125.522 20.2485C127.106 20.2485 128.418 20.6485 129.458 21.4485C130.514 22.2485 131.162 23.3765 131.402 24.8325H128.354C128.178 24.1285 127.834 23.6165 127.322 23.2965C126.81 22.9605 126.202 22.7925 125.498 22.7925C124.858 22.7925 124.346 22.9205 123.962 23.1765C123.594 23.4165 123.41 23.7445 123.41 24.1605C123.41 24.6565 123.658 25.0085 124.154 25.2165C124.65 25.4245 125.434 25.6325 126.506 25.8405C127.61 26.0485 128.506 26.2725 129.194 26.5125C129.898 26.7365 130.498 27.1205 130.994 27.6645C131.506 28.2085 131.762 28.9605 131.762 29.9205C131.762 31.2485 131.266 32.3045 130.274 33.0885C129.298 33.8725 127.946 34.2645 126.218 34.2645ZM138.368 34.0005C136.272 34.0005 135.224 33.0165 135.224 31.0485V23.1285H133.232V20.5365H135.224V15.6885H138.464V20.5365H141.056V23.1285H138.464V30.0645C138.464 30.4805 138.528 30.7925 138.656 31.0005C138.8 31.2085 139.104 31.3125 139.568 31.3125H141.032V34.0005H138.368ZM149.456 34.2645C148.112 34.2645 146.92 33.9685 145.88 33.3765C144.84 32.7845 144.024 31.9525 143.432 30.8805C142.856 29.8085 142.568 28.5765 142.568 27.1845C142.568 25.8405 142.856 24.6405 143.432 23.5845C144.024 22.5285 144.84 21.7125 145.88 21.1365C146.92 20.5445 148.112 20.2485 149.456 20.2485C150.8 20.2485 151.992 20.5445 153.032 21.1365C154.088 21.7285 154.904 22.5525 155.48 23.6085C156.072 24.6485 156.368 25.8405 156.368 27.1845C156.368 28.5765 156.08 29.8085 155.504 30.8805C154.928 31.9525 154.112 32.7845 153.056 33.3765C152.016 33.9685 150.816 34.2645 149.456 34.2645ZM149.456 31.4805C150.512 31.4805 151.368 31.0805 152.024 30.2805C152.68 29.4805 153.008 28.4485 153.008 27.1845C153.008 25.9685 152.68 24.9765 152.024 24.2085C151.368 23.4245 150.512 23.0325 149.456 23.0325C148.768 23.0325 148.152 23.2085 147.608 23.5605C147.064 23.9125 146.64 24.4085 146.336 25.0485C146.032 25.6725 145.88 26.3845 145.88 27.1845C145.88 28.4645 146.208 29.5045 146.864 30.3045C147.536 31.0885 148.4 31.4805 149.456 31.4805Z" fill="white"/>
<path d="M43 25.5841H33.2315V12.3352L21.5992 3.86455L9.96723 12.3352V25.5841H0V22.4638H6.83775V10.7501L21.5992 0.000488281L36.3609 10.7501V22.4638H43V25.5841Z" fill="#C66735"/>
<path d="M43 33.5761H25.2161V16.3947L21.5992 13.761L17.9826 16.3947V33.5761H0V30.4557H14.8532V14.8098L21.5992 9.89697L28.3456 14.8098V30.4557H43V33.5761Z" fill="white"/>
</svg>
