<svg width="158" height="40" viewBox="0 0 158 40" fill="none" xmlns="http://www.w3.org/2000/svg">
<path d="M52.632 15.688H60.528C62.32 15.688 63.736 16.136 64.776 17.032C65.816 17.912 66.336 19.264 66.336 21.088C66.336 21.792 66.24 22.456 66.048 23.08C65.856 23.688 65.584 24.208 65.232 24.64C64.64 25.36 63.952 25.704 63.168 25.672L63.048 25.984C63.304 26.192 63.496 26.408 63.624 26.632C63.752 26.84 63.904 27.168 64.08 27.616L66.744 34H63.096L60.192 26.656H56.088V34H52.632V15.688ZM60.048 23.656C60.976 23.656 61.68 23.448 62.16 23.032C62.656 22.616 62.904 22.008 62.904 21.208C62.904 20.424 62.656 19.824 62.16 19.408C61.664 18.992 60.96 18.784 60.048 18.784H56.088V23.656H60.048ZM74.9948 34.264C73.6348 34.264 72.4348 33.968 71.3948 33.376C70.3548 32.784 69.5468 31.968 68.9708 30.928C68.4108 29.872 68.1308 28.68 68.1308 27.352C68.1308 26.12 68.3788 24.968 68.8748 23.896C69.3868 22.808 70.1468 21.928 71.1548 21.256C72.1788 20.584 73.4268 20.248 74.8988 20.248C76.1148 20.248 77.2348 20.504 78.2588 21.016C79.2828 21.512 80.1068 22.288 80.7308 23.344C81.3548 24.384 81.6668 25.68 81.6668 27.232V27.928H73.1228C73.0268 27.928 72.7628 27.928 72.3308 27.928C71.8988 27.928 71.5548 27.904 71.2988 27.856L71.2028 28.216C71.3308 28.248 71.4268 28.312 71.4908 28.408C71.5708 28.504 71.6348 28.64 71.6828 28.816C71.8108 29.152 71.9148 29.384 71.9948 29.512C72.3148 30.136 72.7388 30.624 73.2668 30.976C73.8108 31.312 74.4268 31.48 75.1148 31.48C75.8508 31.48 76.4828 31.296 77.0108 30.928C77.5388 30.544 77.9148 30.056 78.1388 29.464H81.4508C81.0188 30.888 80.2588 32.048 79.1708 32.944C78.0828 33.824 76.6908 34.264 74.9948 34.264ZM71.5868 25.864C71.8268 25.72 72.0428 25.624 72.2348 25.576C72.4268 25.528 72.6428 25.504 72.8828 25.504H77.0588C77.3148 25.504 77.5388 25.528 77.7308 25.576C77.9388 25.624 78.1708 25.72 78.4268 25.864L78.6188 25.528C78.5068 25.464 78.4268 25.408 78.3788 25.36C78.3308 25.296 78.2908 25.232 78.2588 25.168C78.2428 25.104 78.2348 25.064 78.2348 25.048C78.1708 24.776 78.0428 24.512 77.8508 24.256C77.5468 23.792 77.1468 23.44 76.6508 23.2C76.1548 22.944 75.6028 22.816 74.9948 22.816C74.3868 22.816 73.8348 22.936 73.3388 23.176C72.8588 23.416 72.4668 23.776 72.1628 24.256C71.9548 24.512 71.8188 24.776 71.7548 25.048C71.7548 25.064 71.7388 25.112 71.7068 25.192C71.6748 25.256 71.6348 25.32 71.5868 25.384C71.5388 25.432 71.4668 25.48 71.3708 25.528L71.5868 25.864ZM87.9223 34.264C86.6103 34.264 85.5463 33.92 84.7303 33.232C83.9143 32.528 83.5063 31.552 83.5063 30.304C83.5063 28.96 84.0183 27.936 85.0423 27.232C85.7783 26.72 86.8263 26.336 88.1863 26.08L92.1943 25.336C92.1943 24.536 91.9783 23.904 91.5463 23.44C91.1463 23.008 90.5463 22.792 89.7463 22.792C89.1223 22.792 88.5703 22.976 88.0903 23.344C87.6263 23.712 87.3383 24.208 87.2263 24.832H84.0103C84.2343 23.344 84.8903 22.208 85.9783 21.424C87.0663 20.64 88.3303 20.248 89.7703 20.248C90.5863 20.248 91.3463 20.368 92.0503 20.608C92.7543 20.832 93.3543 21.168 93.8503 21.616C94.3463 22.048 94.7063 22.552 94.9303 23.128C95.1543 23.704 95.2903 24.28 95.3383 24.856C95.4023 25.432 95.4343 26.144 95.4343 26.992V34H92.1943V33.616C92.1943 33.2 92.2983 32.776 92.5063 32.344L92.1463 32.152C91.8583 32.744 91.4583 33.208 90.9463 33.544C90.2263 34.024 89.2183 34.264 87.9223 34.264ZM88.7143 31.72C89.3063 31.72 89.8823 31.592 90.4423 31.336C90.9543 31.096 91.3623 30.744 91.6663 30.28C91.8103 30.04 91.9223 29.808 92.0023 29.584C92.0823 29.344 92.1703 29.016 92.2663 28.6C92.2983 28.408 92.3463 28.272 92.4103 28.192C92.4903 28.096 92.6023 28.04 92.7463 28.024L92.6743 27.64C91.3943 27.896 90.5703 28.064 90.2023 28.144L89.0503 28.36C88.1863 28.52 87.5623 28.776 87.1783 29.128C86.8903 29.416 86.7463 29.768 86.7463 30.184C86.7463 30.68 86.9223 31.064 87.2743 31.336C87.6423 31.592 88.1223 31.72 88.7143 31.72ZM101.286 34C100.262 34 99.486 33.768 98.958 33.304C98.43 32.824 98.166 32.072 98.166 31.048V15.688H101.406V30.088C101.406 30.536 101.486 30.856 101.646 31.048C101.822 31.224 102.11 31.312 102.51 31.312H103.374V34H101.286ZM111.346 34.264C109.986 34.264 108.786 33.968 107.746 33.376C106.706 32.784 105.898 31.968 105.322 30.928C104.762 29.872 104.482 28.68 104.482 27.352C104.482 26.12 104.73 24.968 105.226 23.896C105.738 22.808 106.498 21.928 107.506 21.256C108.53 20.584 109.778 20.248 111.25 20.248C112.466 20.248 113.586 20.504 114.61 21.016C115.634 21.512 116.458 22.288 117.082 23.344C117.706 24.384 118.018 25.68 118.018 27.232V27.928H109.474C109.378 27.928 109.114 27.928 108.682 27.928C108.25 27.928 107.906 27.904 107.65 27.856L107.554 28.216C107.682 28.248 107.778 28.312 107.842 28.408C107.922 28.504 107.986 28.64 108.034 28.816C108.162 29.152 108.266 29.384 108.346 29.512C108.666 30.136 109.09 30.624 109.618 30.976C110.162 31.312 110.778 31.48 111.466 31.48C112.202 31.48 112.834 31.296 113.362 30.928C113.89 30.544 114.266 30.056 114.49 29.464H117.802C117.37 30.888 116.61 32.048 115.522 32.944C114.434 33.824 113.042 34.264 111.346 34.264ZM107.938 25.864C108.178 25.72 108.394 25.624 108.586 25.576C108.778 25.528 108.994 25.504 109.234 25.504H113.41C113.666 25.504 113.89 25.528 114.082 25.576C114.29 25.624 114.522 25.72 114.778 25.864L114.97 25.528C114.858 25.464 114.778 25.408 114.73 25.36C114.682 25.296 114.642 25.232 114.61 25.168C114.594 25.104 114.586 25.064 114.586 25.048C114.522 24.776 114.394 24.512 114.202 24.256C113.898 23.792 113.498 23.44 113.002 23.2C112.506 22.944 111.954 22.816 111.346 22.816C110.738 22.816 110.186 22.936 109.69 23.176C109.21 23.416 108.818 23.776 108.514 24.256C108.306 24.512 108.17 24.776 108.106 25.048C108.106 25.064 108.09 25.112 108.058 25.192C108.026 25.256 107.986 25.32 107.938 25.384C107.89 25.432 107.818 25.48 107.722 25.528L107.938 25.864ZM126.218 34.264C124.554 34.264 123.114 33.864 121.898 33.064C120.682 32.264 119.97 31.064 119.762 29.464H122.954C123.162 30.184 123.546 30.744 124.106 31.144C124.666 31.528 125.362 31.72 126.194 31.72C126.898 31.72 127.466 31.584 127.898 31.312C128.346 31.04 128.57 30.656 128.57 30.16C128.57 29.616 128.306 29.224 127.778 28.984C127.266 28.744 126.466 28.52 125.378 28.312C124.338 28.104 123.474 27.88 122.786 27.64C122.098 27.4 121.514 27.016 121.034 26.488C120.554 25.944 120.314 25.208 120.314 24.28C120.314 22.952 120.802 21.952 121.778 21.28C122.77 20.592 124.018 20.248 125.522 20.248C127.106 20.248 128.418 20.648 129.458 21.448C130.514 22.248 131.162 23.376 131.402 24.832H128.354C128.178 24.128 127.834 23.616 127.322 23.296C126.81 22.96 126.202 22.792 125.498 22.792C124.858 22.792 124.346 22.92 123.962 23.176C123.594 23.416 123.41 23.744 123.41 24.16C123.41 24.656 123.658 25.008 124.154 25.216C124.65 25.424 125.434 25.632 126.506 25.84C127.61 26.048 128.506 26.272 129.194 26.512C129.898 26.736 130.498 27.12 130.994 27.664C131.506 28.208 131.762 28.96 131.762 29.92C131.762 31.248 131.266 32.304 130.274 33.088C129.298 33.872 127.946 34.264 126.218 34.264ZM138.368 34C136.272 34 135.224 33.016 135.224 31.048V23.128H133.232V20.536H135.224V15.688H138.464V20.536H141.056V23.128H138.464V30.064C138.464 30.48 138.528 30.792 138.656 31C138.8 31.208 139.104 31.312 139.568 31.312H141.032V34H138.368ZM149.456 34.264C148.112 34.264 146.92 33.968 145.88 33.376C144.84 32.784 144.024 31.952 143.432 30.88C142.856 29.808 142.568 28.576 142.568 27.184C142.568 25.84 142.856 24.64 143.432 23.584C144.024 22.528 144.84 21.712 145.88 21.136C146.92 20.544 148.112 20.248 149.456 20.248C150.8 20.248 151.992 20.544 153.032 21.136C154.088 21.728 154.904 22.552 155.48 23.608C156.072 24.648 156.368 25.84 156.368 27.184C156.368 28.576 156.08 29.808 155.504 30.88C154.928 31.952 154.112 32.784 153.056 33.376C152.016 33.968 150.816 34.264 149.456 34.264ZM149.456 31.48C150.512 31.48 151.368 31.08 152.024 30.28C152.68 29.48 153.008 28.448 153.008 27.184C153.008 25.968 152.68 24.976 152.024 24.208C151.368 23.424 150.512 23.032 149.456 23.032C148.768 23.032 148.152 23.208 147.608 23.56C147.064 23.912 146.64 24.408 146.336 25.048C146.032 25.672 145.88 26.384 145.88 27.184C145.88 28.464 146.208 29.504 146.864 30.304C147.536 31.088 148.4 31.48 149.456 31.48Z" fill="#18201B"/>
<path d="M43 25.5836H33.2315V12.3347L21.5992 3.86406L9.96723 12.3347V25.5836H0V22.4633H6.83775V10.7496L21.5992 0L36.3609 10.7496V22.4633H43V25.5836Z" fill="#C66735"/>
<path d="M43 33.5757H25.2161V16.3943L21.5992 13.7606L17.9826 16.3943V33.5757H0V30.4553H14.8532V14.8094L21.5992 9.89658L28.3456 14.8094V30.4553H43V33.5757Z" fill="#375844"/>
</svg>
